<?xml version="1.0" encoding="utf-8"?>
<!-- Generator: Adobe Illustrator 16.0.0, SVG Export Plug-In . SVG Version: 6.00 Build 0)  -->
<!DOCTYPE svg PUBLIC "-//W3C//DTD SVG 1.1//EN" "http://www.w3.org/Graphics/SVG/1.1/DTD/svg11.dtd">
<svg version="1.1" id="图层_3" xmlns="http://www.w3.org/2000/svg" xmlns:xlink="http://www.w3.org/1999/xlink" x="0px" y="0px"
	 width="192px" height="192px" viewBox="0 0 192 192" enable-background="new 0 0 192 192" xml:space="preserve">
<path fill="#4285F4" d="M162.275,19.879H28.892c-4.913,0-8.892,3.984-8.892,8.893v106.711c0,4.909,3.979,8.887,8.892,8.887h21.057
	l-3.276,35.534l42.651-35.534h72.952c4.908,0,8.892-3.979,8.892-8.887V28.771C171.167,23.863,167.184,19.879,162.275,19.879z"/>
<path fill="#FFFFFF" d="M96.02,117.459c3.911,0,7.085-3.175,7.085-7.085c0-3.911-3.174-7.086-7.085-7.086s-7.085,3.175-7.085,7.086
	C88.934,114.284,92.108,117.459,96.02,117.459z M100.526,46.887c-13.714-2.824-25.781,7.576-25.781,20.8h10.628
	c0-6.962,6.734-12.382,14.03-10.102c3.156,0.982,5.717,3.56,6.699,6.717c1.666,5.296-0.736,10.189-4.788,12.54
	c-0.666,0.386-1.367,0.684-2.104,0.93c-0.21,0.07-0.421,0.14-0.631,0.193c-4.56,1.386-7.91,5.577-7.91,10.593v7.471h10.627v-5.84
	c0-1.157,0.772-2.14,1.859-2.525c3.034-1.105,5.735-2.894,7.962-5.156c4.806-4.875,7.331-11.996,5.577-19.73
	C114.942,54.884,108.488,48.518,100.526,46.887z"/>
</svg>
