<?xml version="1.0" encoding="utf-8"?>
<!-- Generator: Adobe Illustrator 16.0.0, SVG Export Plug-In . SVG Version: 6.00 Build 0)  -->
<!DOCTYPE svg PUBLIC "-//W3C//DTD SVG 1.1//EN" "http://www.w3.org/Graphics/SVG/1.1/DTD/svg11.dtd">
<svg version="1.1" id="图层_3" xmlns="http://www.w3.org/2000/svg" xmlns:xlink="http://www.w3.org/1999/xlink" x="0px" y="0px"
	 width="192px" height="192px" viewBox="0 0 192 192" enable-background="new 0 0 192 192" xml:space="preserve">
<g>
	<path fill="#A4DDF1" d="M8,95.588c0,48.235,39.102,87.338,87.338,87.338c48.235,0,87.338-39.103,87.338-87.338
		S143.573,8.25,95.338,8.25C47.102,8.25,8,47.353,8,95.588z"/>
	<path fill="#8CCCDF" d="M141.216,46.359l-1.399,5.28l-1.688,10.635l-6.285,5.075l-2.659,3.143l-6.768-9.667l-0.726,8.942
		l-1.206,5.077l-9.429,5.076l-20.06,1.45L62.25,53.08l-3.16,2.668l-7.952-9.584l0.128,18.641L71.9,91.037l-2.175,2.416
		l-13.052,3.384l14.503,14.503l5.318,21.992l-2.795,3.091l44.019,43.595c37.391-9.885,64.958-43.935,64.958-84.43
		c0-2.9-0.148-5.765-0.425-8.592L141.216,46.359z"/>
	<path fill="#CF7C3F" d="M65.426,101.172c0,0-17.294-2.075-15.612-22.881c0,0,16.59-2.484,22.601,11.441 M125.251,101.172
		c0,0,17.293-2.075,15.609-22.881c0,0-16.587-2.484-22.599,11.441"/>
	<path fill="#ECC466" d="M63.358,111.334c0,18.637,14.317,33.743,31.979,33.743s31.979-15.106,31.979-33.743
		c0-18.635-14.316-33.742-31.979-33.742S63.358,92.699,63.358,111.334z"/>
	<path fill="#233640" d="M81.047,100.285c0,1.778,1.364,3.22,3.052,3.222c1.685,0.001,3.054-1.44,3.054-3.218
		c0-0.002,0-0.003,0-0.004c0-1.778-1.365-3.221-3.051-3.221c-1.685-0.001-3.054,1.439-3.055,3.216
		C81.047,100.281,81.047,100.284,81.047,100.285z"/>
	<path fill="#233640" d="M103.523,100.285c0,1.778,1.365,3.22,3.051,3.222c1.686,0.001,3.054-1.44,3.055-3.218
		c0-0.002,0-0.003,0-0.004c0-1.778-1.365-3.221-3.052-3.221c-1.685-0.001-3.054,1.439-3.054,3.216
		C103.523,100.281,103.523,100.284,103.523,100.285z"/>
	<path fill="#ECECEC" d="M111.616,124.545c0,5.829-7.287,10.556-16.278,10.556s-16.279-4.727-16.279-10.556
		c0-5.831,7.288-15.748,16.279-15.748S111.616,118.714,111.616,124.545z"/>
	<path fill="#A6592E" d="M98.912,119.799h-7.149c-1.152,0-2.084-0.935-2.084-2.085s0.932-2.084,2.084-2.084h7.149
		c1.152,0,2.08,0.935,2.08,2.084C100.992,118.864,100.064,119.799,98.912,119.799z"/>
	<path fill="#9A4922" d="M108.041,82.136c-1.15,0.004-2.086-0.924-2.09-2.075c-0.005-1.014,0.724-1.883,1.721-2.059
		c0.206-0.037,20.729-3.875,28.246-15.473c2.685-4.143,3.368-8.67,2.095-13.844c-0.277-1.117,0.405-2.247,1.523-2.522
		c1.117-0.276,2.247,0.407,2.522,1.523c1.542,6.266,0.654,12.026-2.648,17.118c-8.508,13.112-30.082,17.133-30.995,17.298
		C108.291,82.125,108.167,82.136,108.041,82.136z"/>
	<path fill="#9A4922" d="M128.591,74.247c-1.15,0.005-2.085-0.922-2.089-2.071c-0.001-0.605,0.26-1.182,0.718-1.579
		c6.025-5.276,0.729-14.279,0.504-14.659c-0.588-0.99-0.261-2.268,0.729-2.855c0.979-0.579,2.241-0.268,2.836,0.7
		c2.572,4.247,5.605,13.883-1.328,19.95C129.567,74.077,129.079,74.247,128.591,74.247L128.591,74.247z M116.983,79.683
		c-1.153,0.002-2.086-0.929-2.089-2.08c0-0.729,0.379-1.405,1.001-1.784c6.397-3.897,3.497-12.478,3.372-12.841
		c-0.383-1.085,0.186-2.275,1.27-2.657c1.086-0.383,2.277,0.186,2.659,1.271c1.479,4.169,2.308,13.253-5.131,17.789
		C117.728,79.584,117.354,79.683,116.983,79.683z"/>
	<path fill="#9A4922" d="M82.635,82.136c-0.123,0-0.245-0.01-0.373-0.033c-0.913-0.165-22.487-4.185-30.994-17.298
		c-3.303-5.091-4.194-10.852-2.649-17.117c0.276-1.118,1.404-1.799,2.522-1.524c1.117,0.276,1.798,1.405,1.523,2.522l0,0
		c-1.276,5.175-0.588,9.707,2.102,13.851c7.533,11.617,28.029,15.428,28.238,15.465c1.131,0.207,1.88,1.293,1.672,2.425
		C84.496,81.414,83.638,82.132,82.635,82.136z"/>
	<path fill="#9A4922" d="M62.086,74.247c-0.505,0.001-0.992-0.183-1.371-0.515c-6.933-6.067-3.898-15.703-1.327-19.951
		c0.632-0.963,1.924-1.231,2.887-0.599c0.913,0.599,1.208,1.8,0.68,2.754c-0.228,0.381-5.524,9.384,0.501,14.659
		c0.868,0.753,0.96,2.069,0.206,2.936C63.267,73.988,62.691,74.249,62.086,74.247z M73.693,79.683c-0.37,0-0.746-0.096-1.082-0.305
		c-7.439-4.534-6.608-13.618-5.129-17.788c0.411-1.075,1.615-1.613,2.69-1.202c1.038,0.396,1.583,1.537,1.237,2.593
		c-0.141,0.408-3.007,8.951,3.372,12.838c0.985,0.597,1.296,1.878,0.7,2.862C75.101,79.305,74.423,79.685,73.693,79.683z"/>
</g>
</svg>
