<?xml version="1.0" encoding="utf-8"?>
<!-- Generator: Adobe Illustrator 16.0.0, SVG Export Plug-In . SVG Version: 6.00 Build 0)  -->
<!DOCTYPE svg PUBLIC "-//W3C//DTD SVG 1.1//EN" "http://www.w3.org/Graphics/SVG/1.1/DTD/svg11.dtd">
<svg version="1.1" id="图层_3" xmlns="http://www.w3.org/2000/svg" xmlns:xlink="http://www.w3.org/1999/xlink" x="0px" y="0px"
	 width="192px" height="192px" viewBox="0 0 192 192" enable-background="new 0 0 192 192" xml:space="preserve">
<path fill="#4285F4" d="M162.275,19.879H28.892c-4.913,0-8.892,3.984-8.892,8.893v106.711c0,4.909,3.979,8.887,8.892,8.887h21.057
	l-3.276,35.534l42.651-35.534h72.952c4.908,0,8.892-3.979,8.892-8.887V28.771C171.167,23.863,167.184,19.879,162.275,19.879z"/>
<path fill="#FFFFFF" d="M95.583,113.248c-15.472,0-28.865-8.795-35.525-21.645l7.989-3.885c5.211,9.888,15.58,16.637,27.536,16.637
	c12.649,0,23.511-7.559,28.379-18.393l7.99,3.89C125.635,103.645,111.745,113.248,95.583,113.248z"/>
</svg>
