<?xml version="1.0" encoding="utf-8"?>
<!-- Generator: Adobe Illustrator 19.0.0, SVG Export Plug-In . SVG Version: 6.00 Build 0)  -->
<svg version="1.1" id="Layer_1" xmlns="http://www.w3.org/2000/svg" xmlns:xlink="http://www.w3.org/1999/xlink" x="0px" y="0px"
	 viewBox="0 0 500 500" style="enable-background:new 0 0 500 500;" xml:space="preserve">
<style type="text/css">
	.st0{fill-rule:evenodd;clip-rule:evenodd;fill:#03A9F4;}
</style>
<g>
	<path class="st0" d="M154.5,304.9h30l1.7-19.7h10.4l1.6,19.7h29.7l-16.6-109.4h-41.9L154.5,304.9L154.5,304.9z M191.5,219.9
		c1.5,18.2,3,33.6,4.4,46h-10C186.6,256.2,188.5,240.9,191.5,219.9L191.5,219.9z M283.1,197.3c-4.3-1.2-10.3-1.8-18.2-1.8h-29.2
		v109.4h29v-44.1h7.8c6.3,0,11.5-0.9,15.4-2.6c3.9-1.7,6.6-4.2,8.1-7.4c1.5-3.2,2.2-8.3,2.2-15.3v-9.5c0-6.8-0.4-11.9-1.1-15.2
		c-0.8-3.3-2.2-6-4.3-8.3C290.6,200.3,287.4,198.6,283.1,197.3L283.1,197.3z M273.9,232.2c0,4.1-0.5,6.7-1.6,8
		c-1,1.3-2.9,1.9-5.6,1.9c-0.6,0-1.3,0-2.1-0.1v-27.8c3.8,0,6.3,0.6,7.4,1.7c1.2,1.1,1.8,3.6,1.8,7.3V232.2L273.9,232.2z
		 M339.3,304.9V195.5h-29v109.4H339.3L339.3,304.9z M443.1,211C421.1,101.6,317.6,32.2,210.7,54.9C120.5,74.1,55.3,156.1,54.6,250.5
		c1.2,11.6,1.9,23.3,3.8,34.8C66,329.2,86,366.5,118,396.7c37.9,35.8,83.2,53.3,134.7,53.3c29.6,0,57.9-6.9,84.2-20.7
		c10.4-5.5,20.4-12.1,30.2-18.7c6.7-4.5,5.7-13.9-1.4-16.9c-4.2-1.8-7.7,0-11.2,2.5c-42,30.3-88.3,41.2-138.7,30.7
		C121.6,407.3,61,314,79.2,217.4c15.1-80.3,83-140.8,163-144.4c54.1-2.4,100.3,16.6,137.5,56.9c29.2,31.5,44.5,69.4,46.9,112.6
		c1.8,31.9-4.5,62.2-18.6,90.8c-2.8,5.7-1.3,11.2,3.4,13.7c5.1,2.7,10.6,0.6,13.5-5.3C445.5,300.3,452.2,256.7,443.1,211L443.1,211z
		"/>
</g>
</svg>
