<?xml version="1.0" encoding="utf-8"?>
<!-- Generator: Adobe Illustrator 19.0.0, SVG Export Plug-In . SVG Version: 6.00 Build 0)  -->
<svg version="1.1" id="Layer_1" xmlns="http://www.w3.org/2000/svg" xmlns:xlink="http://www.w3.org/1999/xlink" x="0px" y="0px"
	 viewBox="0 0 500 500" style="enable-background:new 0 0 500 500;" xml:space="preserve">
<style type="text/css">
	.st0{fill:#4E5FBB;}
	.st1{fill:#FBEB3D;}
	.st2{fill:#FFFFFF;}
</style>
<rect class="st0" width="500" height="500"/>
<path class="st1" d="M271.7,179c0,46.2,37.5,83.7,83.7,83.7S439,225.2,439,179s-37.5-83.7-83.7-83.7S271.7,132.8,271.7,179z"/>
<path class="st2" d="M363.8,236.8c-0.8,0-1.6,0.1-2.5,0.1c-0.4,0-0.8-0.1-1.2-0.1h-39.7c-6.3-46.9-46.5-83.1-95.1-83.1
	c-47.4,0-86.8,34.4-94.6,79.6c-45.2,3.1-80.8,40.6-80.8,86.6c0,47.9,38.9,86.8,86.8,86.8c1.8,0,3.7-0.1,5.5-0.2
	c1.2,0.1,2.5,0.2,3.8,0.2h214.2c0.4,0,0.8-0.1,1.2-0.1c0.8,0,1.6,0.1,2.5,0.1c46.9,0,84.9-38,84.9-84.9
	C448.7,274.8,410.7,236.8,363.8,236.8L363.8,236.8z"/>
</svg>
