<?xml version="1.0" encoding="utf-8"?>
<!-- Generator: Adobe Illustrator 19.0.0, SVG Export Plug-In . SVG Version: 6.00 Build 0)  -->
<svg version="1.1" id="Layer_1" xmlns="http://www.w3.org/2000/svg" xmlns:xlink="http://www.w3.org/1999/xlink" x="0px" y="0px"
	 viewBox="0 0 500 500" style="enable-background:new 0 0 500 500;" xml:space="preserve">
<style type="text/css">
	.st0{fill:#FFC824;}
	.st1{fill:#6B400D;}
</style>
<g>
	<path class="st0" d="M132.7,249.5c0.1,32.9,13.9,64.2,38.1,86.4L250,132.1C185.2,132.1,132.7,184.7,132.7,249.5L132.7,249.5z
		 M250,296.4l-75.3,43.1c43.6,36.5,107.1,36.5,150.7,0L250,296.4z M250,132.1l79.2,203.7C376.9,292,380,217.7,336.2,170
		C314,145.9,282.8,132.2,250,132.1z"/>
	<path class="st1" d="M130.5,116.4c2.7,0,5.4-0.9,7.5-2.7c3.2-2.6,6.3-5,9.6-7.4c5.4-3.6,6.9-10.9,3.3-16.3
		c-3.6-5.4-10.9-6.9-16.3-3.3c-0.3,0.2-0.5,0.4-0.8,0.6c-3.6,2.6-7.3,5.4-10.8,8.3c-5,4.1-5.7,11.5-1.5,16.5
		C123.7,114.8,127,116.4,130.5,116.4z"/>
	<path class="st1" d="M250,50c-18.9,0-37.8,2.7-56,8c-6.2,1.8-9.8,8.3-8,14.6c1.8,6.2,8.3,9.8,14.6,8
		C293.9,53.2,391.7,106.7,419,200c27.3,93.3-26.2,191.1-119.5,218.3S108.4,392.1,81.1,298.8c-4.7-16-7.1-32.7-7.1-49.4
		c-0.1-23.7,4.7-47.2,14.1-69c2.6-5.9-0.1-12.9-6.1-15.4c0,0-0.1,0-0.1-0.1c-6-2.5-12.8,0.3-15.4,6.2
		c-43.2,101.3,3.9,218.5,105.2,261.7s218.5-3.9,261.7-105.2S429.6,109.2,328.3,66C303.5,55.4,276.9,50,250,50z"/>
	<path class="st1" d="M173.8,353.5l76.3-43.7l76.3,43.7c1.8,1,3.8,1.5,5.9,1.5c6.5,0,11.7-5.3,11.7-11.8c0-1.4-0.3-2.9-0.8-4.2
		l-82.1-211.2c-2.4-6-9.2-9-15.2-6.6c-3,1.2-5.4,3.6-6.6,6.6L157,339.1c-2.4,6,0.6,12.8,6.7,15.2C167,355.6,170.7,355.3,173.8,353.5
		z M250,164.5l58.7,152.5l-53.3-30.5c-3.6-2.1-8.1-2.1-11.7,0l-52.3,30.2L250,164.5z"/>
</g>
</svg>
