<?xml version="1.0" encoding="utf-8"?>
<!-- Generator: Adobe Illustrator 19.0.0, SVG Export Plug-In . SVG Version: 6.00 Build 0)  -->
<svg version="1.1" id="Layer_1" xmlns="http://www.w3.org/2000/svg" xmlns:xlink="http://www.w3.org/1999/xlink" x="0px" y="0px"
	 viewBox="0 0 500 500" style="enable-background:new 0 0 500 500;" xml:space="preserve">
<style type="text/css">
	.st0{fill:#3C8CEA;}
	.st1{fill:#2D6FE4;}
	.st2{fill:#FFFFFF;}
	.st3{fill:none;}
</style>
<g>
	<path class="st0" d="M298.3,50H126.8c-15,0-27.3,12.3-27.3,27.3v201.3v87v57.1c0,15,12.3,27.3,27.3,27.3h245.4
		c15,0,27.3-12.3,27.3-27.3v-57.1v-79.9V158.8L298.3,50z"/>
	<path class="st1" d="M399.5,159.3v5.4h-68.6c0,0-34.3-7-33.2-35.9c0,0,1.1,30.5,32.1,30.5L399.5,159.3L399.5,159.3z"/>
	<path class="st2" d="M298.3,50v78.2c0,8.6,5.9,31.1,32.7,31.1h68.5L298.3,50z"/>
	<line class="st3" x1="62.5" y1="204.3" x2="440.5" y2="204.3"/>
</g>
<path class="st2" d="M178,368.7V400h30.1l88.7-92.2l-30.1-31.3L178,368.7z M319.9,283.7c3.1-3.3,3.1-8.5,0-11.8l-18.7-19.5
	c-3.1-3.3-8.2-3.3-11.3,0l-14.7,15.3l30.1,31.3C305.2,298.9,319.9,283.7,319.9,283.7z"/>
</svg>
