<?xml version="1.0" standalone="no"?><!DOCTYPE svg PUBLIC "-//W3C//DTD SVG 1.1//EN" "http://www.w3.org/Graphics/SVG/1.1/DTD/svg11.dtd"><svg t="1519395328764" class="icon" style="" viewBox="0 0 1024 1024" version="1.1" xmlns="http://www.w3.org/2000/svg" p-id="1069" xmlns:xlink="http://www.w3.org/1999/xlink" width="1024" height="1024"><defs><style type="text/css"></style></defs><path d="M195.59375 125.28125027c-39.0234375 0-70.31249973 31.28906223-70.31249973 70.31249973v492.18749973c0 39.0234375 31.28906223 70.31249973 70.31249973 70.31250054h421.875L406.53125 125.28125027H195.59375m328.35937527 140.62499946L547.15625027 336.21875027h281.24999973v492.18749973h-303.04687527l22.85156304 70.31249973H828.40625c39.0234375 0 70.31249973-31.28906223 70.31249973-70.31249973V336.21875027c0-39.0234375-31.28906223-70.31249973-70.31249973-70.31250054h-304.45312473m-185.625 31.99218777c38.67187473 0 71.36718723 14.06250027 95.62499973 38.32031277L394.57812473 372.42968723c-10.19531223-10.19531223-27.77343777-21.79687473-56.24999946-21.79687473-48.86718777 0-87.89062527 40.078125-87.89062527 88.94531277s39.0234375 90.00000027 87.89062527 89.99999946c56.953125 0 77.34375027-41.1328125 81.56249946-61.52343696H338.32812527V419.89062473h134.29687446c1.75781223 8.08593723 2.109375 13.7109375 2.109375 23.90625054 0 81.56250027-54.84375 138.51562527-136.40624946 138.51562446A142.3828125 142.3828125 0 0 1 195.59375 439.57812527c0-79.45312527 63.63281277-141.67968777 142.73437527-141.67968777M652.62500027 441.68750027v35.15624946h-58.35937527l11.24999973 35.15625027H722.9375c-9.4921875 21.44531277-13.00781277 41.1328125-41.83593723 74.8828125-14.06250027-16.52343723-25.3125-30.93750027-28.4765625-39.72656223h-35.15625027c4.21875 15.11718777 21.79687473 38.67187473 42.89062473 62.57812446-4.57031277 4.57031277-10.89843777 10.546875-16.52343723 15.46875054l9.84375027 29.53125c8.78906277-7.73437527 17.57812473-15.8203125 26.3671875-23.90625054 35.859375 37.61718723 73.828125 72.42187473 73.828125 72.42187554l19.68749973-21.09375s-37.61718723-36.9140625-71.36718723-73.47656304c22.1484375-24.60937527 41.83593723-54.49218723 55.8984375-96.67968723h35.15624946v-35.15625027h-105.46875v-35.15624946h-35.15624946z" fill="#1296db" p-id="1070"></path></svg>