<?xml version="1.0" encoding="utf-8"?>
<!-- Generator: Adobe Illustrator 19.0.0, SVG Export Plug-In . SVG Version: 6.00 Build 0)  -->
<svg version="1.1" id="图形" xmlns="http://www.w3.org/2000/svg" xmlns:xlink="http://www.w3.org/1999/xlink" x="0px" y="0px"
	 viewBox="15.167 -16.333 1000.636 1000.678" enable-background="new 15.167 -16.333 1000.636 1000.678" xml:space="preserve">
<rect x="15.167" y="-16.333" display="none" fill-rule="evenodd" clip-rule="evenodd" fill="#03C7DF" width="1000.636" height="1000.678"/>
<image display="none" overflow="visible" width="144" height="144" xlink:href="7C2B95F7.png"  transform="matrix(6.9489 0 0 6.9492 15.1667 -16.3331)">
</image>
<circle display="none" fill="none" stroke="#000000" cx="515.506" cy="484.006" r="500.339"/>
<g>
	<path fill="#009688" d="M228.603,378.825c0,39.157,31.743,70.9,70.9,70.9s70.9-31.743,70.9-70.9s-31.743-70.9-70.9-70.9
		S228.603,339.668,228.603,378.825z"/>
	<path fill="#009688" d="M859.324,401.194v417.293L677.458,620.603L571.302,727.851L368.452,519.94L164.709,812.863V258.834h416.354
		v-30.212H134.497V851.29h755.04V401.194H859.324z"/>
	<path fill="#009688" d="M744.344,95.475L521.027,450.232l152.129,95.766l223.317-354.757L744.344,95.475z M663.684,504.335
		L562.69,440.76l191.126-303.621l100.994,63.575L663.684,504.335z"/>
	<path fill="#009688" d="M537.586,592.644l-0.243-120.261l-30.213,0.061l0.341,168.04l151.666-72.351l-13.008-27.269
		L537.586,592.644z"/>
</g>
</svg>
