<?xml version="1.0" encoding="utf-8"?>
<!-- Generator: Adobe Illustrator 19.0.0, SVG Export Plug-In . SVG Version: 6.00 Build 0)  -->
<svg version="1.1" id="图形" xmlns="http://www.w3.org/2000/svg" xmlns:xlink="http://www.w3.org/1999/xlink" x="0px" y="0px"
	 viewBox="15.167 -16.333 1000.636 1000.678" enable-background="new 15.167 -16.333 1000.636 1000.678" xml:space="preserve">
<text transform="matrix(1 0 0 1 126.8154 763.3548)" display="none" fill="#F4F4F4" font-family="'MicrosoftYaHeiLight'" font-size="792.2377px">云</text>
<rect x="15.167" y="-16.333" display="none" fill-rule="evenodd" clip-rule="evenodd" fill="#03C7DF" width="1000.636" height="1000.678"/>
<image display="none" overflow="visible" width="144" height="144" xlink:href="B138E4BD.png"  transform="matrix(6.9489 0 0 6.9492 15.1667 -16.3331)">
</image>
<circle display="none" fill="none" stroke="#000000" cx="515.506" cy="484.006" r="500.339"/>
<g>
	<path fill="#333333" d="M378.455,389.216h175.232c16.239-23.363,31.118-46.57,44.634-69.622l17.444,7.858
		c-15.507,23.888-29.337,44.476-41.49,61.763h105.769v15.716H378.455V389.216z M399.2,136.19h16.345v134.214H399.2V136.19z
		 M519.113,265.846l16.502-4.4c4.817,15.507,8.117,27.399,9.9,35.675h110.797v15.402H410.987V297.12h117.241
		c-0.105-0.523-0.314-1.36-0.629-2.514C523.828,281.196,520.998,271.609,519.113,265.846z M447.448,328.395l14.773-8.487
		c12.153,17.185,24.254,35.466,36.304,54.849l-15.716,8.958C472.331,366.219,460.544,347.78,447.448,328.395z M463.164,123.303
		h16.501V275.59h-16.501V123.303z M496.639,156.463v-15.087h157.159v16.03c-17.498,27.66-37.352,48.825-59.563,63.492
		c20.324,11.421,48.404,20.745,84.236,27.975c-4.297,6.498-7.178,11.841-8.644,16.03C629.49,255.056,599,243.686,578.362,230.8
		c-20.851,11.526-47.462,22.159-79.837,31.903c-1.468-3.981-4.454-9.115-8.958-15.402c31.849-9.115,56.314-18.125,73.394-27.031
		c-18.442-14.353-34.732-35.621-48.877-63.807H496.639z M634.467,156.463H532.314c13.516,23.994,28.969,42.224,46.361,54.691
		C599.315,198.479,617.912,180.248,634.467,156.463z"/>
	<path fill="#333333" d="M379.555,688.226l-3.615-17.13c17.182-5.867,30.907-10.79,41.176-14.773v-73.394h-36.618v-14.772h36.618
		v-62.078h16.816v62.078h29.546v14.772h-29.546v66.95c10.582-4.295,20.534-8.381,29.86-12.259c0,5.555,0.314,10.95,0.943,16.188
		c-3.354,1.363-9.063,3.615-17.13,6.758c-6.078,2.306-10.635,4.086-13.673,5.344v109.54c0.314,17.182-8.698,26.088-27.031,26.717
		c-4.82,0.209-12.678,0.314-23.574,0.314c-0.734-5.449-1.886-11.056-3.458-16.816c9.847,0.731,17.759,1.101,23.731,1.101
		c9.533,0.417,14.039-3.669,13.516-12.259V672.824C402.761,678.274,390.242,683.407,379.555,688.226z M476.365,564.228h53.749
		v-58.149h17.13v303.16h-17.13v-71.822h-67.579v-15.401h67.579v-63.807h-49.819v-15.401h49.819v-63.021h-53.749V564.228z
		 M592.82,506.078h17.131v58.149h66.32v15.559h-66.32v63.021h58.62v15.401h-58.62v63.807h71.507v15.401h-71.507v71.822H592.82
		V506.078z"/>
</g>
</svg>
