<?xml version="1.0" encoding="utf-8"?>
<!-- Generator: Adobe Illustrator 19.0.0, SVG Export Plug-In . SVG Version: 6.00 Build 0)  -->
<svg version="1.1" id="图形" xmlns="http://www.w3.org/2000/svg" xmlns:xlink="http://www.w3.org/1999/xlink" x="0px" y="0px"
	 viewBox="15.167 -16.333 1000.636 1000.678" enable-background="new 15.167 -16.333 1000.636 1000.678" xml:space="preserve">
<g>
	<g>
		<defs>
			<rect id="SVGID_1_" x="78.882" y="268.692" width="873.936" height="430.725"/>
		</defs>
		<clipPath id="SVGID_2_">
			<use xlink:href="#SVGID_1_"  overflow="visible"/>
		</clipPath>
		<path clip-path="url(#SVGID_2_)" fill="#F83A19" d="M249.584,444.582l-13.27,63.874h129.814l-26.282,125.912H175.222
			c-10.72,0-18.77-3.472-24.618-10.621c-5.81-7.092-7.493-15.757-5.122-26.589l45.727-223.069
			c2.491-11.41,8.527-20.816,18.459-28.759c9.947-7.952,20.319-11.821,31.701-11.821h224.823l13.318-63.257H251.257
			c-28.97,0-55.539,9.545-78.971,28.377c-23.446,18.845-38.447,43.081-44.593,72.07L81.331,593.834
			c-6.294,29.644-1.139,54.64,15.322,74.295c16.384,19.573,39.7,29.496,69.296,29.496h224.833l52.851-253.043H249.584z
			 M524.676,269.013l-89.319,429.229h64.227l89.314-429.229H524.676z M694.319,345.325c9.947-7.952,20.318-11.816,31.704-11.816
			h212.457l13.318-63.257H735.913c-28.97,0-55.543,9.545-78.975,28.377c-23.447,18.845-38.449,43.081-44.593,72.08l-67.552,326.916
			h64.203l38.946-186.691h237.396l13.27-63.874H660.615l15.246-72.97C678.352,362.68,684.391,353.273,694.319,345.325
			L694.319,345.325z M694.319,345.325"/>
	</g>
</g>
</svg>
