<?xml version="1.0" encoding="utf-8"?>
<!-- Generator: Adobe Illustrator 19.0.0, SVG Export Plug-In . SVG Version: 6.00 Build 0)  -->
<svg version="1.1" id="Layer_1" xmlns="http://www.w3.org/2000/svg" xmlns:xlink="http://www.w3.org/1999/xlink" x="0px" y="0px"
	 viewBox="0 0 500 500" style="enable-background:new 0 0 500 500;" xml:space="preserve">
<style type="text/css">
	.st0{fill:url(#SVGID_1_);}
</style>
<linearGradient id="SVGID_1_" gradientUnits="userSpaceOnUse" x1="50.25" y1="249.875" x2="450.5" y2="249.875">
	<stop  offset="0" style="stop-color:#4285F4"/>
	<stop  offset="1" style="stop-color:#E1B2F9"/>
</linearGradient>
<path class="st0" d="M250.4,49.8c-110.5,0-200.1,89.6-200.1,200.1S139.9,450,250.4,450c18.5,0,33.4-14.9,33.4-33.4
	c0-8.7-3.2-16.5-8.7-22.3c-5.2-5.9-8.3-13.6-8.3-22.1c0-18.5,14.9-33.4,33.4-33.4h39.2c61.4,0,111.2-49.8,111.2-111.2
	C450.5,129.4,360.9,49.8,250.4,49.8z M128.1,249.9c-18.5,0-33.4-14.9-33.4-33.4s14.9-33.4,33.4-33.4s33.4,14.9,33.4,33.4
	S146.5,249.9,128.1,249.9z M194.8,160.9c-18.5,0-33.4-14.9-33.4-33.4s14.9-33.4,33.4-33.4s33.4,14.9,33.4,33.4
	S213.2,160.9,194.8,160.9z M306,160.9c-18.5,0-33.4-14.9-33.4-33.4s14.9-33.4,33.4-33.4s33.4,14.9,33.4,33.4S324.4,160.9,306,160.9z
	 M372.7,249.9c-18.5,0-33.4-14.9-33.4-33.4s14.9-33.4,33.4-33.4s33.4,14.9,33.4,33.4S391.1,249.9,372.7,249.9z"/>
</svg>
