<?xml version="1.0" standalone="no"?><!DOCTYPE svg PUBLIC "-//W3C//DTD SVG 1.1//EN" "http://www.w3.org/Graphics/SVG/1.1/DTD/svg11.dtd"><svg t="1520307449060" class="icon" style="" viewBox="0 0 1024 1024" version="1.1" xmlns="http://www.w3.org/2000/svg" p-id="1552" xmlns:xlink="http://www.w3.org/1999/xlink" width="200" height="200"><defs><style type="text/css"></style></defs><path d="M742.85351563 900.4765625H281.14648437C208.28515625 900.4765625 149.01171875 841.22949219 149.01171875 768.36816406v-422.75390625c0-72.85253906 59.2734375-132.12597656 132.12597656-132.12597656h461.71582031c72.85253906 0 132.12597656 59.2734375 132.12597657 132.12597656v422.75390625C874.98828125 841.22949219 815.71484375 900.4765625 742.85351563 900.4765625zM281.14648437 235.48730469A110.51367188 110.51367188 0 0 0 170.984375 345.640625v422.75390625A110.51367188 110.51367188 0 0 0 281.14648437 878.50390625h461.70703126A110.51367188 110.51367188 0 0 0 853.015625 768.36816406v-422.75390625a110.51367188 110.51367188 0 0 0-110.16210938-110.12695312z" fill="#3D9FF9" p-id="1553"></path><path d="M640.89160156 134.48339844l112.42089844 0 0 204.48632812-112.42089844 0 0-204.48632812Z" fill="#C5E3FF" p-id="1554"></path><path d="M712.390625 349.95605469h-30.55078125a51.99609375 51.99609375 0 0 1-51.93457031-51.93457032V175.44042969A51.99609375 51.99609375 0 0 1 681.83984375 123.5234375H712.390625a51.99609375 51.99609375 0 0 1 51.93457031 51.93457031v122.56347657A51.99609375 51.99609375 0 0 1 712.390625 349.95605469zM681.83984375 145.49609375a29.99707031 29.99707031 0 0 0-29.96191406 29.96191406v122.56347657a29.99707031 29.99707031 0 0 0 29.96191406 29.96191406H712.390625a29.99707031 29.99707031 0 0 0 29.96191406-29.96191407V175.44042969A29.99707031 29.99707031 0 0 0 712.390625 145.49609375z" fill="#3D9FF9" p-id="1555"></path><path d="M270.6875 134.48339844l112.42089844 0 0 204.48632812-112.42089844 0 0-204.48632812Z" fill="#C5E3FF" p-id="1556"></path><path d="M342.16015625 349.95605469H311.609375a51.99609375 51.99609375 0 0 1-51.93457031-51.93457032V175.44042969A51.99609375 51.99609375 0 0 1 311.609375 123.5234375h30.52441406a51.99609375 51.99609375 0 0 1 51.93457032 51.93457031v122.56347657a51.99609375 51.99609375 0 0 1-51.90820313 51.93457031zM311.609375 145.49609375a29.99707031 29.99707031 0 0 0-29.96191406 29.96191406v122.56347657A29.99707031 29.99707031 0 0 0 311.609375 327.98339844h30.52441406a29.99707031 29.99707031 0 0 0 29.96191407-29.96191407V175.44042969A29.99707031 29.99707031 0 0 0 342.16015625 145.49609375zM512 573.25976563a67.20117188 67.20117188 0 1 1 67.20117188-67.20117188A67.27148438 67.27148438 0 0 1 512 573.25976563z m0-112.42089844a45.22851563 45.22851563 0 1 0 45.22851563 45.22851562A45.27246094 45.27246094 0 0 0 512 460.83886719zM326.89355469 573.25976563a67.20117188 67.20117188 0 1 1 67.20117187-67.20117188 67.27148438 67.27148438 0 0 1-67.20117187 67.20117188z m0-112.42089844a45.22851563 45.22851563 0 1 0 45.22851562 45.22851562 45.27246094 45.27246094 0 0 0-45.22851562-45.22851562zM697.10644531 573.25976563a67.20117188 67.20117188 0 1 1 67.20117188-67.20117188 67.27148438 67.27148438 0 0 1-67.20117188 67.20117188z m0-112.42089844a45.22851563 45.22851563 0 1 0 45.22851563 45.22851562 45.27246094 45.27246094 0 0 0-45.22851563-45.22851562zM512 742.78320313a67.20117188 67.20117188 0 1 1 67.20117188-67.20117188A67.27148438 67.27148438 0 0 1 512 742.78320313z m0-112.42089844a45.22851563 45.22851563 0 1 0 45.22851563 45.22851562A45.27246094 45.27246094 0 0 0 512 630.35351563zM326.89355469 742.78320313a67.20117188 67.20117188 0 1 1 67.20117187-67.20117188 67.27148438 67.27148438 0 0 1-67.20117187 67.20117188z m0-112.42089844a45.22851563 45.22851563 0 1 0 45.22851562 45.22851562 45.27246094 45.27246094 0 0 0-45.22851562-45.23730469zM697.10644531 742.78320313a67.20117188 67.20117188 0 1 1 67.20117188-67.20117188 67.27148438 67.27148438 0 0 1-67.20117188 67.20117188z m0-112.42089844a45.22851563 45.22851563 0 1 0 45.22851563 45.22851562 45.27246094 45.27246094 0 0 0-45.22851563-45.23730469z" fill="#3D9FF9" p-id="1557"></path></svg>