<?xml version="1.0" standalone="no"?><!DOCTYPE svg PUBLIC "-//W3C//DTD SVG 1.1//EN" "http://www.w3.org/Graphics/SVG/1.1/DTD/svg11.dtd"><svg t="1519395023728" class="icon" style="" viewBox="0 0 1024 1024" version="1.1" xmlns="http://www.w3.org/2000/svg" p-id="1004" xmlns:xlink="http://www.w3.org/1999/xlink" width="1024" height="1024"><defs><style type="text/css"></style></defs><path d="M442.62125 685.9240625L442.62125 685.9240625 442.62125 582.051875 338.7453125 582.051875c-57.3628125 0-103.8721875 46.509375-103.8721875 103.8721875 0 57.3703125 46.509375 103.8721875 103.8721875 103.8721875C396.1128125 789.79625 442.62125 743.294375 442.62125 685.9240625L442.62125 685.9240625 442.62125 685.9240625 442.62125 685.9240625zM494.5578125 685.9240625c0 86.0521875-69.7603125 155.8078125-155.8125 155.8078125C252.696875 841.731875 182.9375 771.97625 182.9375 685.9240625c0-86.0521875 69.759375-155.8078125 155.8078125-155.8078125l103.8759375 0 51.9365625 0 0 51.935625L494.5578125 685.9240625 494.5578125 685.9240625 494.5578125 685.9240625zM581.1153125 685.9240625L581.1153125 582.051875 684.9875 582.051875c57.3703125 0 103.87125 46.509375 103.87125 103.8721875 0 57.3703125-46.5009375 103.8721875-103.87125 103.8721875C627.62375 789.79625 581.1153125 743.294375 581.1153125 685.9240625L581.1153125 685.9240625 581.1153125 685.9240625zM529.17875 685.9240625c0 86.0521875 69.759375 155.8078125 155.80875 155.8078125 86.0521875 0 155.8115625-69.755625 155.8115625-155.8078125 0-86.0521875-69.759375-155.8078125-155.8115625-155.8078125L581.1153125 530.11625l-51.9365625 0 0 51.935625L529.17875 685.9240625 529.17875 685.9240625 529.17875 685.9240625zM442.62125 339.6828125l0 103.8759375L338.7453125 443.55875c-57.3628125 0-103.8721875-46.509375-103.8721875-103.8759375 0-57.36375 46.509375-103.8721875 103.8721875-103.8721875C396.1128125 235.810625 442.62125 282.3190625 442.62125 339.6828125L442.62125 339.6828125 442.62125 339.6828125zM494.5578125 339.6828125c0-86.0484375-69.7603125-155.8078125-155.8125-155.8078125C252.696875 183.875 182.9375 253.634375 182.9375 339.6828125c0 86.0521875 69.759375 155.8115625 155.8078125 155.8115625l103.8759375 0 51.9365625 0 0-51.935625L494.5578125 339.6828125 494.5578125 339.6828125 494.5578125 339.6828125zM581.1153125 339.6828125l0 103.8759375L684.9875 443.55875c57.3703125 0 103.87125-46.509375 103.87125-103.8759375 0-57.36375-46.5009375-103.8721875-103.87125-103.8721875C627.62375 235.810625 581.1153125 282.3190625 581.1153125 339.6828125L581.1153125 339.6828125 581.1153125 339.6828125zM529.17875 339.6828125L529.17875 339.6828125C529.17875 253.634375 598.938125 183.875 684.9875 183.875c86.0521875 0 155.8115625 69.759375 155.8115625 155.8078125 0 86.0521875-69.759375 155.8115625-155.8115625 155.8115625L581.1153125 495.494375l-51.9365625 0 0-51.935625L529.17875 339.6828125 529.17875 339.6828125 529.17875 339.6828125zM529.17875 339.6828125" fill="#1296db" p-id="1005"></path></svg>