<?xml version="1.0" encoding="utf-8"?>
<!-- Generator: Adobe Illustrator 19.0.0, SVG Export Plug-In . SVG Version: 6.00 Build 0)  -->
<svg version="1.1" id="图形" xmlns="http://www.w3.org/2000/svg" xmlns:xlink="http://www.w3.org/1999/xlink" x="0px" y="0px"
	 viewBox="15.167 -16.333 1000.636 1000.678" enable-background="new 15.167 -16.333 1000.636 1000.678" xml:space="preserve">
<rect x="15.167" y="-16.333" fill-rule="evenodd" clip-rule="evenodd" fill="#42BA52" width="1000.636" height="1000.678"/>
<g>
	<path fill-rule="evenodd" clip-rule="evenodd" fill="#FFFFFF" d="M388.854,125.144c0-7.968-6.52-14.49-14.489-14.49H159.279
		c-7.968,0-14.489,6.521-14.489,14.49V340.23c0,7.968,6.52,14.489,14.489,14.489h215.086c7.968,0,14.489-6.52,14.489-14.489V125.144
		 M363.157,314.534c0,7.968-6.52,14.49-14.488,14.49H184.975c-7.968,0-14.489-6.521-14.489-14.49V150.839
		c0-7.968,6.52-14.488,14.489-14.488h163.694c7.968,0,14.488,6.52,14.488,14.488V314.534 M883.054,125.144
		c0-7.968-6.52-14.49-14.488-14.49H653.479c-7.968,0-14.49,6.521-14.49,14.49V340.23c0,7.968,6.521,14.489,14.49,14.489h215.086
		c7.968,0,14.488-6.52,14.488-14.489L883.054,125.144L883.054,125.144 M857.357,314.534c0,7.968-6.52,14.49-14.488,14.49H679.176
		c-7.969,0-14.489-6.521-14.489-14.49V150.839c0-7.968,6.52-14.488,14.489-14.488H842.87c7.969,0,14.489,6.52,14.489,14.488v163.694
		H857.357 M144.79,842.351c0,7.968,6.52,14.489,14.489,14.489h215.086c7.968,0,14.489-6.52,14.489-14.489V627.266
		c0-7.968-6.52-14.489-14.489-14.489H159.279c-7.968,0-14.489,6.52-14.489,14.489V842.351 M170.487,652.961
		c0-7.969,6.52-14.49,14.489-14.49H348.67c7.968,0,14.489,6.521,14.489,14.49v163.695c0,7.968-6.52,14.489-14.489,14.489H184.975
		c-7.968,0-14.489-6.52-14.489-14.489L170.487,652.961L170.487,652.961 M149.12,480.049c0-7.066,6.52-12.849,14.489-12.849h706.575
		c7.969,0,14.49,5.782,14.49,12.849c0,7.066-6.521,12.848-14.49,12.848H163.608C155.639,492.896,149.12,487.115,149.12,480.049
		 M501.075,125.164c0-7.969,5.781-14.489,12.848-14.489c7.066,0,12.848,6.52,12.848,14.489v215.049
		c0,7.969-5.781,14.489-12.848,14.489c-7.066,0-12.848-6.52-12.848-14.489V125.164 M498.597,677.903
		c0-7.066,6.52-12.848,14.489-12.848h354.123c7.968,0,14.489,5.781,14.489,12.848c0,7.066-6.52,12.848-14.489,12.848H513.085
		C505.117,690.75,498.597,684.969,498.597,677.903 M506.261,842.634c0-7.066,6.52-12.848,14.489-12.848h338.796
		c7.969,0,14.489,5.782,14.489,12.848s-6.52,12.847-14.489,12.847H520.75C512.781,855.482,506.261,849.701,506.261,842.634
		 M506.261,829.787"/>
</g>
</svg>
