<?xml version="1.0" standalone="no"?><!DOCTYPE svg PUBLIC "-//W3C//DTD SVG 1.1//EN" "http://www.w3.org/Graphics/SVG/1.1/DTD/svg11.dtd"><svg t="1519394551550" class="icon" style="" viewBox="0 0 1024 1024" version="1.1" xmlns="http://www.w3.org/2000/svg" p-id="8788" xmlns:xlink="http://www.w3.org/1999/xlink" width="1024" height="1024"><defs><style type="text/css"></style></defs><path d="M812.032 523.776c3.072-6.144 0-13.824-6.144-16.896-1.024-0.512-1.536-0.512-2.56-1.024-35.84-7.168-76.288-1.024-112.64-2.56h-8.192l-12.288-1.536c4.608-100.352 11.264-200.704 7.68-301.568 0-6.656-5.632-12.288-12.8-12.288-2.56 0-5.12 1.024-7.168 2.56h-3.072c-52.736 8.192-112.128-4.096-165.888-4.096s-106.496-2.048-159.744 4.096c-5.632-4.096-13.312-2.56-17.408 3.584-1.536 2.048-2.048 4.096-2.048 6.656-1.024 97.792-1.024 196.096 5.12 293.888-18.432 0.512-36.864 2.56-54.784 6.144-16.896 1.536-33.28 3.584-49.664 5.632-1.024 0-2.56 0.512-3.584 1.536-6.144 0.512-10.752 5.632-10.752 11.776-1.536 54.784-5.632 110.08-6.656 165.376-0.512 31.744-4.608 63.488-3.072 94.208-3.072 2.048-5.632 5.632-5.632 9.216 0 9.728-0.512 19.456-1.024 28.672 0 6.144 5.12 11.776 11.264 12.288 0.512 0 0.512 0 1.024 0.512 2.048 1.536 4.096 2.56 6.656 2.56 79.36-2.048 159.744 0.512 239.104 2.56 19.968 1.024 39.936 2.048 59.904 2.56 41.984 1.536 83.456 0.512 124.928-1.536 50.176-1.024 100.352-3.072 150.528-6.656h12.288c1.536 0 2.56-0.512 4.096-0.512 4.096-0.512 8.192-0.512 12.288-0.512 1.536 0 2.56-1.024 3.584-2.048 3.072 0 5.632-2.56 5.632-5.632v-20.992c0.512-4.608 0.512-9.216 0-13.824v-0.512c1.024-88.064 2.048-174.592 1.024-261.632z" fill="#CDF0FD" p-id="8789"></path><path d="M380.928 496.128c-15.872-1.024-31.744-2.048-47.616-2.048 9.728-93.696 3.584-189.44 1.536-283.648 105.984 1.536 211.456 0.512 316.928 8.704-10.24 93.184-7.168 189.44-15.36 282.624-36.864-1.024-74.24-2.048-111.104-2.56-47.616-1.024-96.256-2.56-144.384-3.072z" fill="#CDFDE5" p-id="8790"></path><path d="M797.184 781.312c-3.072 5.12-4.608 10.752-5.632 16.384-1.536 1.536-2.048 3.072-2.048 5.12v0.512h-3.072c-90.112 0.512-179.712 9.728-269.312 8.192 0-1.536 0-3.584-0.512-5.12-20.48-90.624 14.336-183.808-8.704-273.408 37.888 0 75.776-1.024 113.664-1.024l0.512 0.512c34.304 14.848 76.8 8.192 113.152 4.608 2.048 0 4.608-1.024 6.656-2.048 15.872-1.536 35.328-4.608 48.64-3.072 0 82.944 6.144 164.864 8.192 247.808-0.512 0-1.024 0.512-1.536 1.536z" fill="#FDF1CD" p-id="8791"></path><path d="M212.992 798.72c-3.072 0-5.632 1.536-7.168 3.584 3.584-89.6 13.312-178.688 13.824-268.288 15.36-3.072 30.72-5.12 46.08-6.656 48.128 2.048 97.28 2.048 145.92 1.536 10.752 1.024 21.504 1.536 32.256 2.048s20.48 1.024 30.72 1.536c0.512 47.616 2.048 94.72 4.096 142.336 1.536 44.032-1.024 92.672 8.704 136.192-91.136-3.584-182.784-12.288-274.432-12.288z" fill="#CDD8FD" p-id="8792"></path><path d="M375.808 662.016c7.68-8.192 11.264-19.456 6.656-37.376-9.216-36.864-47.104-55.808-79.36-38.4-3.072-3.072-7.68-2.56-10.752 0.512-0.512 0.512-1.024 1.024-1.024 1.536-13.312 23.04-13.312 54.272-16.896 80.384-3.072 24.576-10.24 59.904-1.024 83.456 3.072 8.704 11.776 12.8 20.48 10.24 1.536-0.512 2.56-1.024 4.096-2.048 36.864 23.04 110.592 5.12 109.056-47.616-1.024-21.504-12.8-40.448-31.232-50.688z m-22.016-26.624c0.512 8.192-7.68 11.776-17.92 13.824-8.704-0.512-17.408 0-26.112 2.048 1.536-14.848 1.536-29.696-0.512-44.544 16.896-6.656 35.84 2.048 41.984 18.944 2.048 3.072 2.56 6.656 2.56 9.728zM307.2 739.84c3.072-19.456 0.512-40.96 1.024-59.904 1.536 0.512 3.584 0.512 5.12 0.512l20.992-2.56c17.92 0.512 37.376 9.728 44.032 27.136 13.824 34.816-51.2 45.568-71.168 34.816z" fill="#4C72E5" p-id="8793"></path><path d="M687.104 701.44c-11.776 18.432-30.72 20.992-50.176 11.264-21.504-11.264-27.136-38.912-25.088-61.44 1.536-5.632 3.072-11.776 3.584-17.408 3.072-7.168 7.68-13.312 13.824-17.92 6.656-2.56 13.312-4.608 20.48-4.608 16.384-1.536 38.912 1.536 43.008 20.48 0.512 4.608 4.608 8.192 9.216 8.192 4.608 2.56 10.752 0.512 12.8-4.096 1.024-2.048 1.024-4.096 1.024-6.144 11.264-35.84-39.424-51.712-65.536-49.664-18.432 1.024-35.328 9.728-47.104 24.064-7.168 9.216-11.264 19.968-12.288 31.744-1.024 3.584-1.536 6.656-2.048 10.24-5.632 39.424 8.704 77.824 43.52 98.816 30.72 18.432 86.528 9.728 90.624-31.744 1.536-22.016-26.112-26.624-35.84-11.776z" fill="#A6723F" p-id="8794"></path><path d="M533.504 365.568c-10.24-33.792-18.944-68.096-30.208-101.888-2.56-8.704-11.776-13.824-20.48-11.264-4.096 1.024-7.68 4.096-9.728 7.68-29.184 49.152-45.568 104.448-54.272 160.768-1.536 6.144 2.56 12.8 8.704 13.824 6.144 1.536 11.776-2.048 13.824-7.68 4.096-11.264 8.192-22.528 11.776-33.792 14.848 0 31.744-3.584 46.592 0 1.024 0 2.048 0 3.584 0.512 3.072 10.24 6.656 20.48 10.24 30.208 2.56 7.68 9.216 12.8 17.408 13.312 34.304 4.096 6.144-59.392 2.56-71.68zM462.848 363.52c5.632-17.408 11.776-34.304 19.456-50.688 3.584 14.336 7.168 29.184 10.752 44.032-10.24 1.024-19.968 3.584-30.208 6.656z" fill="#3FA672" p-id="8795"></path><path d="M812.032 523.776c3.072-6.144 0-13.824-6.144-16.896-1.024-0.512-1.536-0.512-2.56-1.024-35.84-7.168-76.288-1.024-112.64-2.56h-8.192l-12.288-1.536c4.608-100.352 11.264-200.704 7.68-301.568 0-6.656-5.632-12.288-12.8-12.288-2.56 0-5.12 1.024-7.168 2.56h-3.072c-52.736 8.192-112.128-4.096-165.888-4.096s-106.496-2.048-159.744 4.096c-5.632-4.096-13.312-2.56-17.408 3.584-1.536 2.048-2.048 4.096-2.048 6.656-1.024 97.792-1.024 196.096 5.12 293.888-18.432 0.512-36.864 2.56-54.784 6.144-16.896 1.536-33.28 3.584-49.664 5.632-1.024 0-2.56 0.512-3.584 1.536-6.144 0.512-10.752 5.632-10.752 11.776-1.536 54.784-5.632 110.08-6.656 165.376-0.512 31.744-4.608 63.488-3.072 94.208-3.072 2.048-5.632 5.632-5.632 9.216 0 9.728-0.512 19.456-1.024 28.672 0 6.144 5.12 11.776 11.264 12.288 0.512 0 0.512 0 1.024 0.512 2.048 1.536 4.096 2.56 6.656 2.56 79.36-2.048 159.744 0.512 239.104 2.56 19.968 1.024 39.936 2.048 59.904 2.56 41.984 1.536 83.456 0.512 124.928-1.536 50.176-1.024 100.352-3.072 150.528-6.656h12.288c1.536 0 2.56-0.512 4.096-0.512 4.096-0.512 8.192-0.512 12.288-0.512 1.536 0 2.56-1.024 3.584-2.048 3.072 0 5.632-2.56 5.632-5.632v-20.992c0.512-4.608 0.512-9.216 0-13.824v-0.512c1.024-88.064 2.048-174.592 1.024-261.632zM212.992 798.72c-3.072 0-5.632 1.536-7.168 3.584 3.584-89.6 13.312-178.688 13.824-268.288 15.36-3.072 30.72-5.12 46.08-6.656 48.128 2.048 97.28 2.048 145.92 1.536 10.752 1.024 21.504 1.536 32.256 2.048s20.48 1.024 30.72 1.536c0.512 47.616 2.048 94.72 4.096 142.336 1.536 44.032-1.024 92.672 8.704 136.192-91.136-3.584-182.784-12.288-274.432-12.288z m167.936-302.592c-15.872-1.024-31.744-2.048-47.616-2.048 9.728-93.696 3.584-189.44 1.536-283.648 105.984 1.536 211.456 0.512 316.928 8.704-10.24 93.184-7.168 189.44-15.36 282.624-36.864-1.024-74.24-2.048-111.104-2.56-47.616-1.024-96.256-2.56-144.384-3.072z m416.256 285.184c-3.072 5.12-4.608 10.752-5.632 16.384-1.536 1.536-2.048 3.072-2.048 5.12v0.512h-3.072c-90.112 0.512-179.712 9.728-269.312 8.192 0-1.536 0-3.584-0.512-5.12-20.48-90.624 14.336-183.808-8.704-273.408 37.888 0 75.776-1.024 113.664-1.024l0.512 0.512c34.304 14.848 76.8 8.192 113.152 4.608 2.048 0 4.608-1.024 6.656-2.048 15.872-1.536 35.328-4.608 48.64-3.072 0 82.944 6.144 164.864 8.192 247.808-0.512 0-1.024 0.512-1.536 1.536z" fill="#3F72A6" p-id="8796"></path></svg>