<?xml version="1.0" standalone="no"?><!DOCTYPE svg PUBLIC "-//W3C//DTD SVG 1.1//EN" "http://www.w3.org/Graphics/SVG/1.1/DTD/svg11.dtd"><svg t="1519396532281" class="icon" style="" viewBox="0 0 1024 1024" version="1.1" xmlns="http://www.w3.org/2000/svg" p-id="1167" xmlns:xlink="http://www.w3.org/1999/xlink" width="1024" height="1024"><defs><style type="text/css"></style></defs><path d="M848.90058594 230.75L175.09941406 230.75C143.7453125 230.75 118.25 256.21015625 118.25 287.54140625l0 448.85566406C118.25 767.74941406 143.7453125 793.25 175.09941406 793.25l673.80117188 0C880.2546875 793.25 905.75 767.74941406 905.75 736.3953125L905.75 287.54140625C905.75 256.21015625 880.2546875 230.75 848.90058594 230.75zM561.25917969 680.75l-98.521875 0 0-168.75-73.8984375 94.70742187L314.97207031 512l0 168.75L216.45722656 680.75 216.45722656 343.25l98.51484375 0 73.86679688 119.49609375 73.8984375-119.49609375 98.521875 0L561.25917969 680.75 561.25917969 680.75zM708.3125 680.75l-122.40527344-168.75 73.828125 0 0-168.75 98.51308594 0 0 168.75 73.87558594 0-123.84316407 168.75L708.3125 680.75z" fill="#5ab402" p-id="1168"></path></svg>