<?xml version="1.0" encoding="utf-8"?>
<!-- Generator: Adobe Illustrator 19.0.0, SVG Export Plug-In . SVG Version: 6.00 Build 0)  -->
<svg version="1.1" id="图形" xmlns="http://www.w3.org/2000/svg" xmlns:xlink="http://www.w3.org/1999/xlink" x="0px" y="0px"
	 viewBox="15.167 -16.333 1000.636 1000.678" enable-background="new 15.167 -16.333 1000.636 1000.678" xml:space="preserve">
<rect x="15.167" y="-16.333" fill-rule="evenodd" clip-rule="evenodd" fill="#86BEF6" width="1000.636" height="1000.678"/>
<image display="none" overflow="visible" width="144" height="144" xlink:href="89027B43.png"  transform="matrix(6.9489 0 0 6.9492 15.1667 -16.3331)">
</image>
<circle display="none" fill="none" stroke="#000000" cx="515.506" cy="484.006" r="500.339"/>
<polygon opacity="0.1" fill-rule="evenodd" clip-rule="evenodd" points="756.042,262.808 1058.818,566.906 1066.845,1045.839 
	556.818,985.839 282.213,712.376 730.818,705.839 "/>
<path fill-rule="evenodd" clip-rule="evenodd" fill="#FFFFFF" d="M765.644,668.416V299.632c0-36.32-29.448-65.766-65.783-65.766
	H331.071c-36.32,0-65.745,29.447-65.745,65.766v368.747c0,36.304,29.433,65.766,65.745,65.766h368.754
	C736.196,734.191,765.644,704.736,765.644,668.416L765.644,668.416z M412.866,665.563c-27.201,0-49.333-22.088-49.333-49.332
	c0-27.179,22.132-49.325,49.333-49.325c27.238,0,49.326,22.131,49.326,49.325C462.198,643.475,440.125,665.563,412.866,665.563
	L412.866,665.563z M412.866,534.014c-27.201,0-49.333-22.131-49.333-49.325c0-27.253,22.132-49.34,49.333-49.34
	c27.238,0,49.326,22.103,49.326,49.34C462.198,511.913,440.125,534.014,412.866,534.014L412.866,534.014z M412.866,402.45
	c-27.201,0-49.333-22.095-49.333-49.326c0-27.208,22.132-49.339,49.333-49.339c27.238,0,49.326,22.131,49.326,49.339
	C462.198,380.356,440.125,402.45,412.866,402.45L412.866,402.45z M610.211,665.563c-27.208,0-49.332-22.088-49.332-49.332
	c0-27.179,22.125-49.325,49.332-49.325c27.252,0,49.326,22.131,49.326,49.325C659.537,643.475,637.464,665.563,610.211,665.563
	L610.211,665.563z M610.211,534.014c-27.208,0-49.332-22.131-49.332-49.325c0-27.253,22.125-49.34,49.332-49.34
	c27.252,0,49.326,22.103,49.326,49.34C659.537,511.913,637.464,534.014,610.211,534.014L610.211,534.014z M610.211,402.45
	c-27.208,0-49.332-22.095-49.332-49.326c0-27.208,22.125-49.339,49.332-49.339c27.252,0,49.326,22.131,49.326,49.339
	C659.537,380.356,637.464,402.45,610.211,402.45L610.211,402.45z"/>
<line display="none" fill="none" stroke="#000000" stroke-miterlimit="10" x1="96.892" y1="537.59" x2="350.892" y2="793.537"/>
</svg>
