<?xml version="1.0" standalone="no"?><!DOCTYPE svg PUBLIC "-//W3C//DTD SVG 1.1//EN" "http://www.w3.org/Graphics/SVG/1.1/DTD/svg11.dtd"><svg t="1519395999820" class="icon" style="" viewBox="0 0 1024 1024" version="1.1" xmlns="http://www.w3.org/2000/svg" p-id="1102" xmlns:xlink="http://www.w3.org/1999/xlink" width="1024" height="1024"><defs><style type="text/css"></style></defs><path d="M156.70922947 828.54626131c-4.05550003 0-8.11100006-1.66565181-10.93536616-4.56243753-2.89678574-2.89678574-4.56243754-6.87986613-4.56243753-10.93536616V216.67269421c0-8.54551793 6.95228576-15.49780369 15.49780369-15.49780368 8.54551793 0 15.49780369 6.95228576 15.49780369 15.49780368v580.87795973h695.08373737c8.54551793 0 15.49780369 6.95228576 15.49780369 15.49780368 0 8.54551793-6.95228576 15.49780369-15.49780369 15.49780369H156.70922947z" fill="#626262" p-id="1103"></path><path d="M338.41011477 726.79666233c0 16.51167869-13.47005367 29.98173237-29.98173237 29.98173237h-57.28393794c-16.51167869 0-30.05415202-13.47005367-30.05415201-29.98173237V663.35705472c0-16.51167869 13.54247332-29.98173237 30.05415201-29.98173238h57.28393794c16.51167869 0 29.98173237 13.47005367 29.98173237 29.98173237v63.43960762zM487.52216053 726.79666233c0 16.51167869-13.54247332 29.98173237-30.05415201 29.98173237h-57.28393794c-16.51167869 0-30.05415202-13.47005367-30.05415201-29.98173237v-199.15401935c0-16.51167869 13.54247332-29.98173237 30.05415201-29.98173238h57.28393794c16.51167869 0 30.05415202 13.47005367 30.054152 29.98173238v199.15401935z" fill="#626262" p-id="1104"></path><path d="M793.27789498 725.13101053c0 17.38071443-14.26666975 31.64738417-31.64738417 31.64738417h-53.95263434c-17.38071443 0-31.64738417-14.26666975-31.64738416-31.64738418v-259.26232336c0-17.38071443 14.1942501-31.64738417 31.64738416-31.64738417h53.95263435c17.38071443 0 31.64738417 14.26666975 31.64738416 31.64738416v259.26232338z" fill="#54A8B9" p-id="1105"></path><path d="M636.56178665 726.79666233c0 16.51167869-13.54247332 29.98173237-30.05415202 29.98173237h-57.28393792c-16.51167869 0-30.05415202-13.47005367-30.05415202-29.98173237V589.27175952c0-16.51167869 13.54247332-29.98173237 30.05415202-29.98173238h57.28393793c16.51167869 0 30.05415202 13.47005367 30.05415201 29.98173237v137.52490282z" fill="#626262" p-id="1106"></path><path d="M769.30699302 248.39249802l-114.13335802 12.45617866 37.58579493 37.65821458L568.99425936 449.71910667 440.52181196 331.02331113c-8.76277686-8.11100006-22.37766982-8.18341971-31.2128663-0.21725893L220.5109353 501.28189277c-9.48697329 8.54551793-10.21116973 23.24670554-1.66565178 32.73367883 4.56243754 5.06937504 10.86294651 7.60406256 17.23587512 7.60406255 5.57631255 0 11.08020545-1.95533037 15.49780369-5.93841077l173.08294773-156.28159044 130.93471526 121.08564376c4.70727683 4.34517861 11.00778579 6.5177679 17.30829478 6.08325005 6.30050899-0.43451786 12.31133938-3.54856253 16.29441977-8.40067863L725.63794804 331.38540935l31.21286631 31.21286632L769.30699302 248.39249802z" fill="#F79633" p-id="1107"></path></svg>