<?xml version="1.0" standalone="no"?><!DOCTYPE svg PUBLIC "-//W3C//DTD SVG 1.1//EN" "http://www.w3.org/Graphics/SVG/1.1/DTD/svg11.dtd"><svg t="1519393470305" class="icon" style="" viewBox="0 0 1024 1024" version="1.1" xmlns="http://www.w3.org/2000/svg" p-id="774" xmlns:xlink="http://www.w3.org/1999/xlink" width="1024" height="1024"><defs><style type="text/css"></style></defs><path d="M249.49999971 174.5h75.00000058v74.99999971H249.49999971v187.50000058a74.99999971 74.99999971 0 0 1-74.99999971 74.99999971 74.99999971 74.99999971 0 0 1 74.99999971 74.99999971v187.50000058h75.00000058v74.99999971H249.49999971c-40.12499971-10.125-74.99999971-33.75-74.99999971-74.99999971v-150.00000029a74.99999971 74.99999971 0 0 0-74.99999971-74.99999971H62v-75.00000058h37.50000029a74.99999971 74.99999971 0 0 0 74.99999971-74.99999971V249.49999971a74.99999971 74.99999971 0 0 1 74.99999971-74.99999971m525.00000058 0a74.99999971 74.99999971 0 0 1 74.99999971 74.99999971v150.00000029a74.99999971 74.99999971 0 0 0 74.99999971 74.99999971h37.50000029v75.00000058h-37.50000029a74.99999971 74.99999971 0 0 0-74.99999971 74.99999971v150.00000029a74.99999971 74.99999971 0 0 1-74.99999971 74.99999971h-75.00000058v-74.99999971h75.00000058v-187.50000058a74.99999971 74.99999971 0 0 1 74.99999971-74.99999971 74.99999971 74.99999971 0 0 1-74.99999971-74.99999971V249.49999971h-75.00000058V174.5h75.00000058m-262.50000029 450a37.50000029 37.50000029 0 0 1 37.50000029 37.50000029 37.50000029 37.50000029 0 0 1-37.50000029 37.49999942 37.50000029 37.50000029 0 0 1-37.50000029-37.49999942 37.50000029 37.50000029 0 0 1 37.50000029-37.50000029m-150.00000029 0a37.50000029 37.50000029 0 0 1 37.50000029 37.50000029 37.50000029 37.50000029 0 0 1-37.50000029 37.49999942 37.50000029 37.50000029 0 0 1-37.49999942-37.49999942 37.50000029 37.50000029 0 0 1 37.49999942-37.50000029m300.00000058 0a37.50000029 37.50000029 0 0 1 37.49999942 37.50000029 37.50000029 37.50000029 0 0 1-37.49999942 37.49999942 37.50000029 37.50000029 0 0 1-37.50000029-37.49999942 37.50000029 37.50000029 0 0 1 37.50000029-37.50000029z" fill="#5ab402" p-id="775"></path></svg>