<?xml version="1.0" standalone="no"?><!DOCTYPE svg PUBLIC "-//W3C//DTD SVG 1.1//EN" "http://www.w3.org/Graphics/SVG/1.1/DTD/svg11.dtd"><svg t="1520390279859" class="icon" style="" viewBox="0 0 1024 1024" version="1.1" xmlns="http://www.w3.org/2000/svg" p-id="1748" xmlns:xlink="http://www.w3.org/1999/xlink" width="200" height="200"><defs><style type="text/css"></style></defs><path d="M305.0970788 192.19485474C250.63750695 207.54781914 207.54781914 250.63750695 192.19485474 305.0970788L305.0970788 192.19485474z" fill="#FFA65A" p-id="1749"></path><path d="M342.46561479 186.25644398c-84.36888457 3.40372325-152.80544758 71.76786661-156.20917081 156.20917082L342.46561479 186.25644398z" fill="#FFA659" p-id="1750"></path><path d="M374.04057931 186.11160469H349.05580234C259.47270345 186.11160469 186.11160469 259.47270345 186.11160469 349.05580234v24.98477698L374.04057931 186.11160469z" fill="#FFA558" p-id="1751"></path><path d="M405.54312419 186.11160469h-56.48732185C259.47270345 186.11160469 186.11160469 259.47270345 186.11160469 349.05580234v56.48732185L405.54312419 186.11160469z" fill="#FFA557" p-id="1752"></path><path d="M436.97324944 186.11160469H349.05580234C259.47270345 186.11160469 186.11160469 259.47270345 186.11160469 349.05580234v87.9174471L436.97324944 186.11160469z" fill="#FFA556" p-id="1753"></path><path d="M468.40337468 186.11160469H349.05580234c-25.99865198 0-50.54891109 6.15566969-72.4196434 17.09103584L203.20264053 276.63615894C192.26727438 298.50689126 186.11160469 323.05715036 186.11160469 349.05580234v119.34757234L468.40337468 186.11160469z" fill="#FFA555" p-id="1754"></path><path d="M499.90591955 186.11160469H349.05580234c-8.83519649 0-17.5255537 0.72419644-25.99865198 2.10016966L188.21177434 323.05715036C186.83580113 331.53024864 186.11160469 340.22060585 186.11160469 349.05580234v150.85011722L499.90591955 186.11160469z" fill="#FFA454" p-id="1755"></path><path d="M186.11160469 531.3360448L531.3360448 186.11160469H356.6598649L186.11160469 356.6598649z" fill="#FFA453" p-id="1756"></path><path d="M186.11160469 562.76617002L562.76617002 186.11160469H388.08999013L186.11160469 388.08999013z" fill="#FFA452" p-id="1757"></path><path d="M186.11160469 594.26871491L594.26871491 186.11160469H419.52011537L186.11160469 419.52011537z" fill="#FFA451" p-id="1758"></path><path d="M186.11160469 451.02266025V625.69884014L625.69884014 186.11160469H451.02266025z" fill="#FFA450" p-id="1759"></path><path d="M186.11160469 482.45278549v174.67617989L657.12896538 186.11160469H482.45278549z" fill="#FFA34F" p-id="1760"></path><path d="M674.94419766 186.11160469H513.88291073L186.11160469 513.88291073V674.94419766c0 4.41759825 0.21725894 8.76277686 0.50693751 13.10795545L688.05215311 186.61854219c-4.34517861-0.28967857-8.6903572-0.50693751-13.10795545-0.5069375z" fill="#FFA34E" p-id="1761"></path><path d="M674.94419766 186.11160469H545.38545562L186.11160469 545.38545562V674.94419766c0 13.83215189 1.73807144 27.22978592 4.9969554 40.12048244L715.0646801 191.10856008C702.17398357 187.84967613 688.77634955 186.11160469 674.94419766 186.11160469z" fill="#FFA34D" p-id="1762"></path><path d="M674.94419766 186.11160469H576.81558085L186.11160469 576.81558085V674.94419766c0 22.5225091 4.63485718 44.03114318 12.96311617 63.5844469L738.52864456 199.07472085C718.97534084 190.74646186 697.46670676 186.11160469 674.94419766 186.11160469z" fill="#FFA34C" p-id="1763"></path><path d="M759.31308223 209.79282807C734.61798382 194.80196189 705.7225461 186.11160469 674.94419766 186.11160469h-66.69849158L186.11160469 608.24570608V674.94419766c0 30.77834844 8.6903572 59.67378616 23.68122339 84.36888457L759.31308223 209.79282807z" fill="#FFA24B" p-id="1764"></path><path d="M777.70767164 222.82836389C749.60885001 199.94375658 713.83354617 186.11160469 674.94419766 186.11160469h-35.1959467L186.11160469 639.74825096V674.94419766c0 38.88934852 13.83215189 74.66465235 36.71675921 102.76347398l554.87930774-554.87930774z" fill="#FFA24A" p-id="1765"></path><path d="M674.94419766 186.11160469h-3.76582147L186.11160469 671.17837619v3.76582147c0 46.85550928 20.06024123 89.22100068 51.92488433 118.98547411l555.89318275-555.89318275C764.16519832 206.17184592 721.79970694 186.11160469 674.94419766 186.11160469z" fill="#FFA249" p-id="1766"></path><path d="M188.13935471 700.58075142c7.09712505 44.17598247 32.08190203 82.63081313 67.20542908 107.4707508l552.70671844-552.70671843c-24.83993769-35.19594669-63.29476834-60.18072367-107.47075081-67.20542908L188.13935471 700.58075142z" fill="#FFA248" p-id="1767"></path><path d="M194.29502439 725.85520697c13.54247332 40.84467888 42.8724289 74.59223271 80.60306311 94.07311678l545.03023625-545.03023625C800.51985932 237.16745329 766.69988585 207.83749771 725.85520697 194.29502439l-531.56018257 531.56018257z" fill="#FFA247" p-id="1768"></path><path d="M203.56473874 748.08803749c19.1912055 37.8754735 52.79392005 67.42268801 93.49375964 81.2548399l532.28437901-532.28437901C815.5107255 256.35865879 785.96351099 222.75594426 748.08803749 203.56473874L203.56473874 748.08803749z" fill="#FFA147" p-id="1769"></path><path d="M215.36914062 767.7861805c24.62267876 35.26836634 62.78783083 60.47040225 106.81897403 67.85720586l513.45527171-513.45527171c-7.38680363-44.03114318-32.58883953-82.19629526-67.85720586-106.81897403L215.36914062 767.7861805z" fill="#FFA146" p-id="1770"></path><path d="M837.88839531 349.05580234c0-47.2176075-20.3499198-89.87277747-52.64908076-119.70967054L229.3461318 785.23931456C259.18302488 817.53847552 301.83819485 837.88839531 349.05580234 837.88839531h2.31742859L837.88839531 351.37323093V349.05580234z" fill="#FFA145" p-id="1771"></path><path d="M837.88839531 349.05580234c0-39.25144673-14.04941082-75.31642914-37.36853599-103.56009006L245.49571228 800.51985932c28.24366093 23.31912517 64.30864334 37.36853599 103.56009006 37.36853599h33.74755383L837.88839531 382.80335617V349.05580234z" fill="#FFA144" p-id="1772"></path><path d="M837.88839531 349.05580234c0-31.21286632-8.90761614-60.3979826-24.26058054-85.23792029L263.81788206 813.62781477C288.65781975 828.98077918 317.84293603 837.88839531 349.05580234 837.88839531h65.25009871L837.88839531 414.30590105V349.05580234z" fill="#FFA143" p-id="1773"></path><path d="M349.05580234 837.88839531h96.68022396L837.88839531 445.73602629V349.05580234c0-22.88460732-4.77969646-44.75533962-13.39763404-64.59832191L284.45748042 824.41834163c19.84298229 8.6903572 41.7137146 13.47005367 64.59832192 13.47005368z" fill="#FFA042" p-id="1774"></path><path d="M349.05580234 837.88839531h128.11034918L837.88839531 477.16615152V349.05580234c0-14.26666975-1.88291073-28.026402-5.35905361-41.2067771L307.84902524 832.5293417c13.1803751 3.47614289 26.94010734 5.35905361 41.2067771 5.35905361z" fill="#FFA041" p-id="1775"></path><path d="M349.05580234 837.88839531h159.61289407L837.88839531 508.66869641V349.05580234c0-4.85211611-0.21725894-9.70423222-0.65177679-14.48392867L334.57187367 837.23661852c4.77969646 0.43451786 9.63181258 0.65177679 14.48392867 0.65177679z" fill="#FFA040" p-id="1776"></path><path d="M540.09882163 837.88839531L837.88839531 540.09882163V365.42264175L365.42264175 837.88839531z" fill="#FFA03F" p-id="1777"></path><path d="M571.52894687 837.88839531L837.88839531 571.52894687V396.85276699L396.85276699 837.88839531z" fill="#FF9F3E" p-id="1778"></path><path d="M603.03149175 837.88839531L837.88839531 603.03149175V428.28289223L428.28289223 837.88839531z" fill="#FF9F3D" p-id="1779"></path><path d="M634.461617 837.88839531L837.88839531 634.461617V459.7854371L459.7854371 837.88839531z" fill="#FF9F3C" p-id="1780"></path><path d="M665.89174224 837.88839531L837.88839531 665.89174224V491.21556235L491.21556235 837.88839531z" fill="#FF9F3B" p-id="1781"></path><path d="M837.88839531 674.94419766V522.64568758L522.64568758 837.88839531H674.94419766c8.25583935 0 16.29441978-0.65177679 24.26058054-1.81049109l136.87312602-136.87312602c1.1587143-7.96616078 1.81049109-16.00474119 1.81049109-24.26058054z" fill="#FF9F3A" p-id="1782"></path><path d="M837.88839531 674.94419766V554.14823247L554.14823247 837.88839531H674.94419766c24.83993769 0 48.44874143-5.64873218 69.59527732-15.71506262l77.63385771-77.63385771c10.06633044-21.14653587 15.71506263-44.75533962 15.71506262-69.59527732z" fill="#FF9E39" p-id="1783"></path><path d="M837.88839531 585.57835769L585.57835769 837.88839531H674.94419766c89.65551853 0 162.94419766-73.36109876 162.94419765-162.94419765V585.57835769z" fill="#FF9E38" p-id="1784"></path><path d="M837.88839531 617.00848293L617.00848293 837.88839531h57.93571473c89.65551853 0 162.94419766-73.36109876 162.94419765-162.94419765v-57.93571473z" fill="#FF9E37" p-id="1785"></path><path d="M837.88839531 648.51102781L648.51102781 837.88839531H674.94419766c89.65551853 0 162.94419766-73.36109876 162.94419765-162.94419765v-26.43316986z" fill="#FF9E36" p-id="1786"></path><path d="M837.81597567 680.01357269L680.01357269 837.81597567c85.6000185-2.67952681 155.12287617-72.20238447 157.80240298-157.80240299z" fill="#FF9D35" p-id="1787"></path><path d="M832.38450241 716.94759083L716.94759083 832.38450241c56.052804-15.06328583 100.37362576-59.38410759 115.43691158-115.43691158z" fill="#FF9D34" p-id="1788"></path><path d="M512 512m-175.97973347 0a175.97973347 175.97973347 0 1 0 351.95946694 0 175.97973347 175.97973347 0 1 0-351.95946694 0Z" fill="#FFD9C0" p-id="1789"></path><path d="M453.34008884 459.85785674m-26.07107162 0a26.07107163 26.07107163 0 1 0 52.14214325 0 26.07107163 26.07107163 0 1 0-52.14214325 0Z" fill="#FFFFFF" p-id="1790"></path><path d="M570.65991116 459.85785674m-26.07107163 0a26.07107163 26.07107163 0 1 0 52.14214325 0 26.07107163 26.07107163 0 1 0-52.14214325 0Z" fill="#FFFFFF" p-id="1791"></path><path d="M603.24875068 531.55330372c0 50.40407181-40.84467888 91.24875068-91.24875068 91.24875068s-91.24875068-40.84467888-91.24875068-91.24875068h182.49750136z" fill="#FFF6F0" p-id="1792"></path></svg>