<?xml version="1.0" standalone="no"?><!DOCTYPE svg PUBLIC "-//W3C//DTD SVG 1.1//EN" "http://www.w3.org/Graphics/SVG/1.1/DTD/svg11.dtd"><svg t="1519394064610" class="icon" style="" viewBox="0 0 1024 1024" version="1.1" xmlns="http://www.w3.org/2000/svg" p-id="813" xmlns:xlink="http://www.w3.org/1999/xlink" width="1024" height="1024"><defs><style type="text/css"></style></defs><path d="M350.76113281 182.37148438l38.02060547 144.23466796 121.12558594 43.68867188-120.60175781 45.08349609-36.27597657 144.58271485-38.02060546-144.14677735-121.21259766-43.68867187 120.68876953-45.0834961zM603.56445313 224.22851562l47.26406249 95.57490235 91.21464844 13.16865234-78.04599609 48.92080078-4.70917969 106.56210938-47.2640625-95.57490234-91.21464844-13.16865235 78.0459961-48.92080078zM364.71376953 567.63564453l21.27744141 60.51884766 53.54384765 14.56259765-50.22861328 23.45800782-10.63740234 63.39726562-21.1913086-60.60673828-53.54384765-14.56259766 50.22861328-23.54501953z m84.49980469-35.31708984l71.41992187-71.41992188c15.34746094-15.34746094 40.54833984-15.34746094 55.89667969 0L684.40009766 568.76855469 557.08349609 696.08515625 449.21357422 588.12822266c-15.34746094-15.34746094-15.34746094-40.46220703 0-55.81054688z m259.95410156 61.21582031L581.85107422 720.85097656l109.43964844 109.43964844c15.34746094 15.34746094 40.54833984 15.34746094 55.89667968 0l71.41992188-71.41992188c15.34746094-15.34746094 15.34746094-40.54833984 0-55.89667968L709.16767578 593.534375zM463.95195313 565.63085938l89.99384765 90.08173828L644.02753906 565.63085938 553.94580078 475.54912109 463.95195313 565.63085938z" fill="#d81e06" p-id="814"></path></svg>