<?xml version="1.0" encoding="utf-8"?>
<!-- Generator: Adobe Illustrator 19.0.0, SVG Export Plug-In . SVG Version: 6.00 Build 0)  -->
<svg version="1.1" id="图形" xmlns="http://www.w3.org/2000/svg" xmlns:xlink="http://www.w3.org/1999/xlink" x="0px" y="0px"
	 viewBox="15.167 -16.333 1000.636 1000.678" enable-background="new 15.167 -16.333 1000.636 1000.678" xml:space="preserve">
<rect x="15.167" y="-16.333" display="none" fill-rule="evenodd" clip-rule="evenodd" fill="#03C7DF" width="1000.636" height="1000.678"/>
<image display="none" overflow="visible" width="144" height="144" xlink:href="1F8B2F9B.png"  transform="matrix(6.9489 0 0 6.9492 15.1667 -16.3331)">
</image>
<circle display="none" fill="none" stroke="#000000" cx="515.506" cy="484.006" r="500.339"/>
<path fill-rule="evenodd" clip-rule="evenodd" fill="#DAB766" d="M706.345,205.174"/>
<g>
	<g>
		<path fill-rule="evenodd" clip-rule="evenodd" fill="#8BC34A" d="M722.222,158.763v181.832l-62.113-93.393
			c-26.699-52.704-66.701-52.704-93.193-52.704h-15.784l-29.72-29.705c-1.501-1.501-3.371-2.543-5.399-3.06
			c-1.968-1.495-4.415-2.393-7.081-2.393H368.223c-2.762,0-5.292,0.959-7.293,2.552c-1.934,0.496-3.745,1.457-5.187,2.901
			l-29.72,29.705h-15.132c-26.515,0-66.527,0-93.215,52.704L101.137,422.415c-3.455,5.162-2.254,12.13,2.723,15.858l93.81,70.318
			c2.528,1.887,5.708,2.677,8.866,2.197c3.122-0.483,5.925-2.217,7.755-4.823l36.672-51.901v349.844h375.23V453.905l37.028,52.099
			c1.832,2.567,4.623,4.301,7.745,4.784c3.111,0.471,6.302-0.321,8.842-2.197l42.415-31.704v326.243h196.11V158.763H722.222
			L722.222,158.763z M513.119,189.647l13.236,13.233l-57.962,57.917l-13.235-13.222L513.119,189.647L513.119,189.647z
			 M486.838,182.78l-48.259,48.222l-48.252-48.222H486.838L486.838,182.78z M364.038,189.647l57.959,57.927l-13.247,13.222
			l-57.948-57.917L364.038,189.647L364.038,189.647z M722.222,447.624l-46.842,35.013l-51.35-72.252
			c-2.961-4.15-8.303-5.947-13.119-4.381c-4.861,1.553-8.166,6.064-8.166,11.169v363.296H274.412V417.172
			c0-5.105-3.316-9.616-8.179-11.169c-4.861-1.566-10.169,0.231-13.131,4.401l-51.018,72.182l-75.29-56.423l110.797-166.579
			c0.275-0.401,0.515-0.813,0.731-1.244c20.214-40.402,46.832-40.402,72.568-40.402h21.824l67.756,67.722
			c2.196,2.194,5.182,3.427,8.28,3.427c3.112,0,6.097-1.233,8.293-3.427l21.533-21.523l21.525,21.523
			c2.298,2.284,5.296,3.427,8.293,3.427c2.998,0,6.004-1.143,8.293-3.427l67.756-67.722h22.475c25.726,0,52.332,0,72.545,40.402
			c0.217,0.43,0.456,0.843,0.719,1.244l82.041,123.355L722.222,447.624L722.222,447.624L722.222,447.624z M890.317,775.114H750.238
			v-70.04h84.048c7.736,0,14.008-6.272,14.008-14.009c0-7.738-6.272-14.008-14.008-14.008h-84.048v-42.023h42.023
			c7.738,0,14.008-6.272,14.008-14.01c0-7.735-6.27-14.006-14.008-14.006h-42.023v-42.025h84.048c7.736,0,14.008-6.27,14.008-14.008
			c0-7.735-6.272-14.006-14.008-14.006h-84.048v-42.024h42.023c7.738,0,14.008-6.272,14.008-14.01
			c0-7.735-6.27-14.007-14.008-14.007h-42.023v-10.992l0.012-31.03h84.036c7.736,0,14.008-6.272,14.008-14.01
			c0-7.735-6.272-14.008-14.008-14.008H750.25l-0.012-14.176v-27.846h42.023c7.738,0,14.008-6.272,14.008-14.008
			s-6.27-14.01-14.008-14.01h-42.023v-42.024h84.048c7.736,0,14.008-6.27,14.008-14.006c0-7.736-6.272-14.008-14.008-14.008h-84.048
			v-70.042h140.079V775.114L890.317,775.114z"/>
		<polygon fill-rule="evenodd" clip-rule="evenodd" fill="#8BC34A" points="427.199,288.258 450.637,288.258 450.637,382.011 
			427.199,382.011 427.199,288.258 		"/>
	</g>
</g>
</svg>
