<?xml version="1.0" encoding="utf-8"?>
<!-- Generator: Adobe Illustrator 19.0.0, SVG Export Plug-In . SVG Version: 6.00 Build 0)  -->
<svg version="1.1" id="Layer_1" xmlns="http://www.w3.org/2000/svg" xmlns:xlink="http://www.w3.org/1999/xlink" x="0px" y="0px"
	 viewBox="0 0 500 500" style="enable-background:new 0 0 500 500;" xml:space="preserve">
<style type="text/css">
	.st0{fill:#FBBC05;}
	.st1{fill:#F9EEE1;}
	.st2{fill:#F7E6CD;}
</style>
<path class="st0" d="M405,400H94.4C70,400,50,380,50,355.6V144.4C50,120,70,100,94.4,100H405c24.4,0,44.4,20,44.4,44.4v211.2
	C449.4,380,429.4,400,405,400z"/>
<g>
	<path class="st1" d="M380.1,228.3h-96.6c-4.9,0-8.9-4-8.9-8.9c0-4.9,4-8.9,8.9-8.9h96.6c4.9,0,8.9,4,8.9,8.9
		C389,224.2,385,228.3,380.1,228.3z"/>
	<path class="st1" d="M380.1,285.5h-96.6c-4.9,0-8.9-4-8.9-8.9s4-8.9,8.9-8.9h96.6c4.9,0,8.9,4,8.9,8.9S385,285.5,380.1,285.5z"/>
</g>
<path class="st2" d="M206.1,163.9H108c-9.2,0-16.6,7.5-16.6,16.6v122.9c0,9.2,7.5,16.6,16.6,16.6h98.1c9.2,0,16.6-7.5,16.6-16.6
	V180.5C222.8,171.4,215.3,163.9,206.1,163.9z M157.5,198.5c12,0,21.7,9.8,21.7,21.7c0,12-9.8,21.7-21.7,21.7
	c-12,0-21.7-9.7-21.7-21.7C135.8,208.3,145.5,198.5,157.5,198.5z M201,285.5h-87v-7.2c0-14.5,29-22.5,43.5-22.5
	c14.5,0,43.5,8,43.5,22.5V285.5z"/>
</svg>
