<?xml version="1.0" encoding="utf-8"?>
<!-- Generator: Adobe Illustrator 19.0.0, SVG Export Plug-In . SVG Version: 6.00 Build 0)  -->
<svg version="1.1" id="图形" xmlns="http://www.w3.org/2000/svg" xmlns:xlink="http://www.w3.org/1999/xlink" x="0px" y="0px"
	 viewBox="15.167 -16.333 1000.636 1000.678" enable-background="new 15.167 -16.333 1000.636 1000.678" xml:space="preserve">
<rect x="15.167" y="-16.333" fill-rule="evenodd" clip-rule="evenodd" fill="#03C7DF" width="1000.636" height="1000.678"/>
<g>
	<path fill-rule="evenodd" clip-rule="evenodd" fill="#515151" d="M722.571,619.599c-9.465-14.364-21.09-24.337-36.136-30.493
		c22.283-39.156,26.959-111.142,26.445-211.17c-1.025-191.962-24.281-266.626-83.044-266.343
		c-58.647,0.342-81.161,75.293-80.137,267.199c0.514,106.981,11.743,176.972,34.598,213.507
		c-17.898,7.864-32.546,19.493-41.949,35.395c-6.841,11.399-9.347,23.483-9.347,35.564c0,20.29,7.181,40.467,12.936,56.881
		l2.279,6.5c6.385,18.352,13.967,60.815,13.967,82.588c0,4.9-0.4,8.72-1.256,11.057l3.193-3.935
		c-6.1,7.582-7.982,19.835-2.395,27.758c5.585,7.979,14.194,12.881,23.369,9.803l8.209-2.793
		c26.959-9.061,29.181-9.802,46.679-22.114l14.874-10.315c38.815-26.332,69.479-67.256,78.257-104.301
		C741.893,676.88,738.186,643.196,722.571,619.599L722.571,619.599z"/>
	<path fill-rule="evenodd" clip-rule="evenodd" fill="#CDCDCD" d="M630.123,155.366c6.269,0,37.846,10.546,38.984,222.799
		c0.114,19.663,0.227,49.417-1.138,80.192c-22.742-6.725-47.024-6.042-71.303,1.768c-1.824-22.686-3.021-49.305-3.193-81.561
		C592.39,171.667,621.231,155.424,630.123,155.366L630.123,155.366z"/>
	<path fill-rule="evenodd" clip-rule="evenodd" fill="#FFFFFF" d="M666.031,489.135c-3.251,38.132-9.747,72.841-22.687,85.666
		c-3.078,3.02-6.1,4.275-10.373,4.218c-0.284,0-22.17-1.879-33.227-88.457C622.655,481.84,645.341,481.329,666.031,489.135
		L666.031,489.135z"/>
	<path fill-rule="evenodd" clip-rule="evenodd" fill="#FF8900" d="M690.48,704.352c-6.154,26.107-30.889,58.25-60.188,78.086
		l-15.501,10.773c-4.104,2.849-6.841,4.672-9.52,6.211c-1.369-39.84-15.388-86.406-15.674-87.087l-2.393-6.841
		c-4.56-12.881-10.315-29.183-10.315-42.177c0-5.071,0.856-9.575,3.02-13.222c11.399-19.151,35.168-23.997,53.062-24.737h0.058
		c36.878-1.482,45.825,7.41,52.947,18.298c5.244,7.978,7.982,19.376,7.982,32.713C693.959,685.031,692.817,694.55,690.48,704.352
		L690.48,704.352z"/>
	<path fill-rule="evenodd" clip-rule="evenodd" fill="#898989" d="M651.041,648.384c-7.982,1.252-13.395,8.774-12.085,16.698
		c4.902,30.609,5.585,44.058-7.637,54.603c-6.268,5.016-7.295,14.19-2.278,20.463c5.016,6.326,14.191,7.349,20.459,2.336
		c27.871-22.172,22.973-52.609,18.239-82.019C666.485,652.543,658.963,647.129,651.041,648.384L651.041,648.384z M502.793,812.646
		c12.085,0,21.886,9.803,21.886,21.886c0,12.081-9.803,21.886-21.886,21.886H296.64c-12.085,0-21.886-9.805-21.886-21.886
		c0-12.085,9.803-21.886,21.886-21.886H502.793L502.793,812.646z"/>
</g>
</svg>
