<?xml version="1.0" encoding="utf-8"?>
<!-- Generator: Adobe Illustrator 19.0.0, SVG Export Plug-In . SVG Version: 6.00 Build 0)  -->
<svg version="1.1" id="图形" xmlns="http://www.w3.org/2000/svg" xmlns:xlink="http://www.w3.org/1999/xlink" x="0px" y="0px"
	 viewBox="15.167 -16.333 1000.636 1000.678" enable-background="new 15.167 -16.333 1000.636 1000.678" xml:space="preserve">
<rect x="15.167" y="-16.333" display="none" fill-rule="evenodd" clip-rule="evenodd" fill="#03C7DF" width="1000.636" height="1000.678"/>
<image display="none" overflow="visible" width="144" height="144" xlink:href="D46EF906.png"  transform="matrix(6.9489 0 0 6.9492 15.1667 -16.3331)">
</image>
<circle display="none" fill="none" stroke="#000000" cx="515.506" cy="484.006" r="500.339"/>
<g>
	<path fill-rule="evenodd" clip-rule="evenodd" fill="#27AE60" d="M823.822,297.711H204.608c-49.732,0-76.654,43.375-59.08,96.472
		l82.637,251.649h199.674v25.8h170.134v-25.8H799.89l82.637-251.649C900.476,341.086,873.927,297.711,823.822,297.711
		L823.822,297.711z M330.246,568.056h-68.054v-68.053h68.054V568.056L330.246,568.056z M330.619,448.027h-68.053v-68.054h68.053
		V448.027L330.619,448.027z M438.683,568.056h-68.054v-68.053h68.054V568.056L438.683,568.056z M439.056,448.027h-68.053v-68.054
		h68.053V448.027L439.056,448.027z M547.494,568.056H479.44v-68.053h68.053V568.056L547.494,568.056z M547.868,448.027h-68.053
		v-68.054h68.053V448.027L547.868,448.027z M655.931,568.056h-68.053v-68.053h68.053V568.056L655.931,568.056z M656.305,448.027
		h-68.053v-68.054h68.053V448.027L656.305,448.027z M764.742,568.056h-68.053v-68.053h68.053V568.056L764.742,568.056z
		 M764.742,448.027h-68.053v-68.054h68.053V448.027L764.742,448.027z"/>
</g>
</svg>
