<?xml version="1.0" standalone="no"?><!DOCTYPE svg PUBLIC "-//W3C//DTD SVG 1.1//EN" "http://www.w3.org/Graphics/SVG/1.1/DTD/svg11.dtd"><svg t="1520307954747" class="icon" style="" viewBox="0 0 1025 1024" version="1.1" xmlns="http://www.w3.org/2000/svg" p-id="2074" xmlns:xlink="http://www.w3.org/1999/xlink" width="200.1953125" height="200"><defs><style type="text/css"></style></defs><path d="M470.25668455 277.36035538c9.23350453 24.44162965 35.30457616 41.27919673 62.46194244 42.36549139 7.60406256 0 8.6903572 0 15.75127243 0l5.43147326 0 250.93406439 0c22.81218768 0 41.82234406 19.55330372 41.82234406 42.36549139l0 168.37567091 0 84.18783546 0 126.55332683c0 22.81218768-19.01015639 42.36549139-41.82234406 42.3654914L219.32262017 783.57366276c-22.81218768 0-41.82234406-19.55330372-41.82234408-42.3654914L177.50027609 277.36035538c0-22.81218768 19.01015639-42.36549139 41.82234408-42.36549139l209.11172032 0M428.43434049 235.53801132L428.43434049 235.53801132c20.09645105 1.08629466 36.39087081 25.5279243 41.82234406 42.36549138" fill="#7cba59" p-id="2075"></path></svg>