<?xml version="1.0" standalone="no"?><!DOCTYPE svg PUBLIC "-//W3C//DTD SVG 1.1//EN" "http://www.w3.org/Graphics/SVG/1.1/DTD/svg11.dtd"><svg t="1519393846061" class="icon" style="" viewBox="0 0 1024 1024" version="1.1" xmlns="http://www.w3.org/2000/svg" p-id="784" xmlns:xlink="http://www.w3.org/1999/xlink" width="1024" height="1024"><defs><style type="text/css"></style></defs><path d="M670.21214222 837.88712232H353.79040379c-10.34057117 0-18.72327043-8.38397163-18.7232698-18.72327045V669.88052595c0-97.56137503 79.37276397-176.934139 176.93413901-176.93413965 10.33929818 0 18.72327043 8.38397163 18.72327043 18.72327044s-8.38397163 18.72327043-18.72327043 18.72327043c-76.91460308 0-139.48759878 62.57426871-139.48759878 139.48759878v130.56005613h278.97519756V669.88052595c0-30.14970938-9.458383-58.84183517-27.35293071-82.97535198-6.15749638-8.30759216-4.41730644-20.03318648 3.88901208-26.19195522 8.30504616-6.16004239 20.03445948-4.41730644 26.19195585 3.88901208 22.71284899 30.63472233 34.718503 67.0399492 34.71850301 105.27829512v149.28332593c0 10.34057117-8.38397163 18.72327043-18.72326979 18.72327044z" fill="#2D527C" p-id="785"></path><path d="M701.33187687 837.88712232H322.66812313c-10.34057117 0-18.72327043-8.38397163-18.72327042-18.72327045s8.38269863-18.72327043 18.72327042-18.72326979h378.66375374c10.33929818 0 18.72327043 8.38397163 18.72327042 18.72326979S711.67117504 837.88712232 701.33187687 837.88712232z" fill="#2D527C" p-id="786"></path><path d="M512.001273 512.33034326c87.3773824 0 158.21086921-70.8334868 158.21086922-158.21086921V204.83487512H353.79040379v149.28332593c0 87.3773824 70.8334868 158.21214222 158.21086921 158.21214221z" fill="#CEE8FA" p-id="787"></path><path d="M512.001273 531.0536137c-97.56137503 0-176.934139-79.37276397-176.93413901-176.93413965V204.83487512C335.06713399 194.49557631 343.44855961 186.11160469 353.79040379 186.11160469h316.42173843c10.33929818 0 18.72327043 8.38397163 18.72326979 18.72327043v149.28332593c0 97.56392104-79.37403698 176.93541201-176.93413901 176.93541264zM372.51240122 223.55814492v130.56005613c0 76.91333008 62.57299569 139.48759878 139.48759878 139.48759879 76.91333008 0 139.48759878-62.57426871 139.48759878-139.48759879V223.55814492H372.51240122z" fill="#2D527C" p-id="788"></path><path d="M701.33187687 223.55814492H322.66812313c-10.34057117 0-18.72327043-8.38397163-18.72327042-18.7232698S312.32755198 186.11160469 322.66812313 186.11160469h378.66375374c10.33929818 0 18.72327043 8.38397163 18.72327042 18.72327043s-8.38397163 18.72327043-18.72327042 18.7232698zM512.001273 646.70812402c-10.34057117 0-18.72327043-8.38397163-18.72327043-18.72327041V511.66838373c0-10.33929818 8.38269863-18.72327043 18.72327043-18.72327042 10.33929818 0 18.72327043 8.38397163 18.72327043 18.72327043v116.31646987c0 10.33929818-8.38524462 18.72327043-18.72327043 18.72327041zM450.21371799 299.49126572H357.53429433c-10.34057117 0-18.72327043-8.38397163-18.72327043-18.72326979s8.38269863-18.72327043 18.72327043-18.72327043h92.67942366c10.34057117 0 18.72327043 8.38397163 18.7232698 18.72327043s-8.38142562 18.72327043-18.7232698 18.72326979zM670.68060551 761.95527451h-92.67942366c-10.33929818 0-18.72327043-8.38397163-18.7232698-18.72327044s8.38397163-18.72327043 18.7232698-18.72326979h92.67942366c10.33929818 0 18.72327043 8.38397163 18.72327043 18.72326979s-8.38524462 18.72327043-18.72327043 18.72327043z" fill="#2D527C" p-id="789"></path></svg>