<?xml version="1.0" standalone="no"?><!DOCTYPE svg PUBLIC "-//W3C//DTD SVG 1.1//EN" "http://www.w3.org/Graphics/SVG/1.1/DTD/svg11.dtd"><svg t="1519738731579" class="icon" style="" viewBox="0 0 1024 1024" version="1.1" xmlns="http://www.w3.org/2000/svg" p-id="1200" xmlns:xlink="http://www.w3.org/1999/xlink" width="1024" height="1024"><defs><style type="text/css"></style></defs><path d="M512 512m-438.87760118 0a438.87760118 438.87760118 0 1 0 877.75520236 0 438.87760118 438.87760118 0 1 0-877.75520236 0Z" fill="#0B5975" p-id="1201"></path><path d="M407.35599882 572.39021037c0 16.74808889-1.22333867 28.72904059-3.6408889 35.93314608a56.47746845 56.47746845 0 0 1-12.10716917 20.2142151c-5.66036859 6.26232889-13.64119703 10.72848592-23.8259769 13.40818015-10.23332503 2.68940325-22.45700267 4.07779555-36.6224877 4.07779555-15.33056948 0-27.9717357-1.41751941-37.89437156-4.25255822-9.961472-2.84474785-17.81608297-7.6798483-23.64150518-14.50530133a64.20586192 64.20586192 0 0 1-12.75767466-24.04928473c-2.67969422-9.19445808-4.01954133-23.91335822-4.01954134-44.04990105v-11.07801125h63.82720948v27.23384888c0 9.95176297 0.65050548 16.74808889 1.91268029 20.45694104 1.30101097 3.67972503 4.60208355 5.51473303 10.00030815 5.51473304 9.07794963 0 13.631488-7.92257422 13.631488-23.83568593 0-10.223616-0.57283318-17.88404622-1.72820858-22.98129067-1.14566637-5.07782637-4.51470222-10.48576-10.1944889-16.15583762-26.42799882-19.04913067-44.55477097-33.22432475-54.46769777-42.57412741-16.73837985-15.62184059-25.12698785-38.60313125-25.12698786-68.95358103 0-10.80615822 0.65050548-20.14625185 1.9126803-28.11737127 1.26217482-7.93228325 3.90303289-15.43736889 7.89344711-22.57351111a43.22463289 43.22463289 0 0 1 23.83568592-19.15593007c10.18477985-3.407872 23.82597689-5.08753541 40.83620978-5.08753541 16.47623585 0 29.46692741 1.00003082 38.96236564 2.99038341 9.49543822 1.99035259 17.38888533 6.35941925 23.64150518 13.17516326 6.25261985 6.82545303 10.34012445 15.48591408 12.33047703 25.97167407 1.15537541 6.25261985 1.68937245 17.73841067 1.68937245 34.48649956v3.83506962h-63.36117571v-13.18487228c0-7.66043022-0.15534459-12.36931318-0.41748859-14.05868564-1.15537541-6.51476385-4.67004682-9.80612741-10.65081363-9.80612741-8.23326341 0-12.34018608 7.66043022-12.34018607 22.98129067 0 11.92269748 1.92238933 20.45694103 5.74774992 25.55418548 3.83506963 5.08753541 15.66067675 14.05868563 35.55449363 26.8163603 21.8356243 13.90334103 36.16616297 28.6513683 42.98190697 44.28291793 5.34967941 12.20425955 8.03908267 31.35048059 8.03908267 57.48720829z m203.47228918 108.10041838h-57.05030163c-19.57341867 0-32.06894933-2.68940325-37.46717392-8.0973369-4.21372208-4.25255822-6.34971022-13.48585245-6.34971023-27.69017363a88.1580563 88.1580563 0 0 1-21.30162725-2.5437677 65.536 65.536 0 0 1-20.42781394-9.38863882c-15.04900741-9.63136475-24.70949925-22.39874845-28.95234844-38.30215111-2.83503882-10.48576-4.21372208-28.92322133-4.21372207-55.312384v-90.67269689c0-12.74796563 0.30098015-23.18518045 1.02915793-31.26309925a95.05147259 95.05147259 0 0 1 4.9030637-23.21430756c5.67007763-14.74802725 15.25289718-25.47651318 28.7290406-32.13691259 13.48585245-6.67010845 30.15626903-10.00030815 49.98212266-10.00030815 23.56383289 0 42.71976297 3.91274192 57.46779022 11.72851674 14.7577363 7.77693867 24.7192083 19.922944 29.8067437 36.39917986 1.99035259 5.94193067 3.09718282 13.95188622 3.41758104 24.02015762 0.262144 10.07798045 0.42719763 17.66073837 0.42719763 22.806528v95.35245274c0 23.81626785-1.00973985 40.2925037-3.00980148 49.38016237-4.20401303 19.53458252-18.83553185 32.33109333-43.82659319 38.30215111 0 7.08759703 1.27188385 11.34015525 3.84477867 12.75767466 2.53405867 1.40781037 8.24297245 2.10686103 17.00052385 2.10686105h25.99109215v35.76809245z m-76.21594075-108.10041838V420.40494459c0-8.80609659-0.66992355-15.17522489-2.097152-19.15593007-1.41751941-3.98070518-4.56324741-5.97105778-9.3886388-5.97105777-5.37880652 0-8.73813333 2.13598815-10.0100172 6.3982554-1.25246578 4.25255822-1.90297125 12.74796563-1.90297125 25.55418548v150.24734815c0 7.66043022 0.71846875 13.59265185 2.14569718 17.9034643 1.41751941 4.21372208 4.52441125 6.34971022 9.34980267 6.34971022 7.93228325-0.00970903 11.90327941-9.7770003 11.9032794-29.34070993z m252.43496297 72.32261688H641.88749748V351.86885215h76.19652267v234.53149867h68.9729991v58.31247643z" fill="#353535" p-id="1202"></path><path d="M407.35599882 568.20561541c0 16.74808889-1.22333867 28.72904059-3.6408889 35.93314607a56.47746845 56.47746845 0 0 1-12.10716917 20.21421511c-5.66036859 6.26232889-13.64119703 10.72848592-23.8259769 13.40818016-10.23332503 2.68940325-22.45700267 4.07779555-36.6224877 4.07779555-15.33056948 0-27.9717357-1.41751941-37.89437156-4.25255822-9.961472-2.84474785-17.81608297-7.6798483-23.64150518-14.50530133a64.20586192 64.20586192 0 0 1-12.75767466-24.04928475c-2.67969422-9.19445808-4.01954133-23.91335822-4.01954134-44.04990103v-11.07801127h63.82720948v27.23384889c0 9.95176297 0.65050548 16.74808889 1.91268029 20.45694104 1.30101097 3.67972503 4.60208355 5.51473303 10.00030815 5.51473304 9.07794963 0 13.631488-7.92257422 13.631488-23.83568592 0-10.223616-0.57283318-17.88404622-1.72820858-22.98129067-1.14566637-5.07782637-4.51470222-10.48576-10.1944889-16.15583763-26.42799882-19.04913067-44.55477097-33.22432475-54.46769777-42.57412742-16.73837985-15.62184059-25.12698785-38.60313125-25.12698786-68.95358103 0-10.80615822 0.65050548-20.14625185 1.9126803-28.11737125 1.26217482-7.93228325 3.90303289-15.43736889 7.89344711-22.57351112a43.22463289 43.22463289 0 0 1 23.83568592-19.15593008c10.18477985-3.407872 23.82597689-5.08753541 40.83620978-5.0875354 16.47623585 0 29.46692741 1.00003082 38.96236564 2.9903834 9.49543822 1.99035259 17.38888533 6.35941925 23.64150518 13.17516327 6.25261985 6.82545303 10.34012445 15.48591408 12.33047703 25.97167407 1.15537541 6.25261985 1.68937245 17.73841067 1.68937245 34.48649956v3.83506963h-63.36117571v-13.1848723c0-7.66043022-0.15534459-12.36931318-0.41748859-14.05868563-1.15537541-6.51476385-4.67004682-9.80612741-10.65081363-9.8061274-8.23326341 0-12.34018608 7.66043022-12.34018607 22.98129066 0 11.92269748 1.92238933 20.45694103 5.74774992 25.55418548 3.83506963 5.08753541 15.66067675 14.05868563 35.55449363 26.81636029 21.8356243 13.90334103 36.16616297 28.6513683 42.98190697 44.28291793 5.34967941 12.20425955 8.03908267 31.36018963 8.03908267 57.4872083z m203.47228918 108.11012741h-57.05030163c-19.57341867 0-32.06894933-2.68940325-37.46717392-8.0973369-4.21372208-4.25255822-6.34971022-13.48585245-6.34971023-27.69017362a88.1580563 88.1580563 0 0 1-21.30162725-2.54376771 65.536 65.536 0 0 1-20.42781394-9.38863881c-15.04900741-9.63136475-24.70949925-22.39874845-28.95234844-38.30215111-2.83503882-10.48576-4.21372208-28.92322133-4.21372207-55.312384v-90.67269689c0-12.74796563 0.30098015-23.18518045 1.02915793-31.26309926a95.05147259 95.05147259 0 0 1 4.9030637-23.21430755c5.67007763-14.74802725 15.25289718-25.47651318 28.7290406-32.1369126 13.48585245-6.67010845 30.15626903-10.00030815 49.98212266-10.00030815 23.56383289 0 42.71976297 3.91274192 57.46779022 11.72851675 14.7577363 7.77693867 24.7192083 19.922944 29.8067437 36.39917985 1.99035259 5.94193067 3.09718282 13.95188622 3.41758104 24.02015763 0.262144 10.07798045 0.42719763 17.66073837 0.42719763 22.806528v95.35245273c0 23.81626785-1.00973985 40.2925037-3.00980148 49.38016237-4.20401303 19.53458252-18.83553185 32.33109333-43.82659319 38.30215112 0 7.08759703 1.27188385 11.34015525 3.84477867 12.75767466 2.53405867 1.40781037 8.24297245 2.10686103 17.00052385 2.10686104h25.99109215v35.76809245z m-76.21594075-108.11012741V416.22034963c0-8.80609659-0.66992355-15.17522489-2.097152-19.15593008-1.41751941-3.98070518-4.56324741-5.97105778-9.3886388-5.97105777-5.37880652 0-8.73813333 2.13598815-10.0100172 6.3982554-1.25246578 4.25255822-1.90297125 12.74796563-1.90297125 25.55418549v150.24734815c0 7.66043022 0.71846875 13.59265185 2.14569718 17.90346429 1.41751941 4.21372208 4.52441125 6.34971022 9.34980267 6.34971022 7.93228325 0 11.90327941-9.76729125 11.9032794-29.34070992z m252.43496297 72.32261689H641.88749748V347.68425718h76.19652267v234.53149867h68.9729991v58.31247645z" fill="#FFFFFF" p-id="1203"></path></svg>