<?xml version="1.0" standalone="no"?><!DOCTYPE svg PUBLIC "-//W3C//DTD SVG 1.1//EN" "http://www.w3.org/Graphics/SVG/1.1/DTD/svg11.dtd"><svg t="1520437548365" class="icon" style="" viewBox="0 0 1024 1024" version="1.1" xmlns="http://www.w3.org/2000/svg" p-id="1866" xmlns:xlink="http://www.w3.org/1999/xlink" width="1024" height="1024"><defs><style type="text/css"></style></defs><path d="M345.1451416 658.64977789m-62.89646029-1e-8a62.89646029 62.89646029 0 1 0 125.79292058 0 62.89646029 62.89646029 0 1 0-125.79292058 0Z" fill="#C7F045" p-id="1867"></path><path d="M708.18481398 658.64977789m-62.8964603-1e-8a62.89646029 62.89646029 0 1 0 125.7929206 0 62.89646029 62.89646029 0 1 0-125.7929206 0Z" fill="#C7F045" p-id="1868"></path><path d="M196.54003334 304.40909218v345.44169904H283.87812328c3.91066074-31.28528595 30.30762076-55.40102721 62.5705719-55.40102721 32.26295114 0 58.65991116 24.11574126 62.5705719 55.40102721h149.25688505v-345.44169904H196.54003334zM588.5837729 354.59590506v295.58077455h56.05280399c3.91066074-31.28528595 30.30762076-55.40102721 62.5705719-55.40102721 32.26295114 0 58.65991116 24.11574126 62.5705719 55.40102721h57.03046917V492.44669628l-93.52996944-137.85079122h-144.69444752z" fill="#EFF0A9" p-id="1869"></path><path d="M777.59904218 481.69237924h-146.64977789V389.14007497h87.01220155z" fill="#C7F045" p-id="1870"></path><path d="M545.56650472 293.98066354H208.59790396C196.21414495 293.98066354 186.11160469 304.08320379 186.11160469 316.46696281v321.65184617c0 12.38375903 10.10254026 22.48629927 22.48629927 22.48629927h65.82945586c0.65177679 38.45483065 31.93706274 69.41422821 70.71778179 69.41422821 38.45483065 0 70.06600499-30.95939755 70.71778177-69.41422821h130.02946974c12.38375903 0 22.48629927-10.10254026 22.48629927-22.48629927V316.46696281c-0.65177679-12.38375903-10.42842865-22.48629927-22.81218767-22.48629927zM345.1451416 713.3990283c-29.32995558 0-53.44569682-23.78985286-54.09747363-52.79392005h1.3035536l1.30355358-8.47309827c3.58477236-25.74518323 25.74518323-44.97259856 51.81625484-44.97259855 25.74518323 0 48.2314825 19.55330372 51.81625485 44.97259856l1.30355359 8.47309826h1.30355359c-1.30355359 29.32995558-25.41929483 52.79392005-54.74925041 52.79392005z m203.02847028-75.28021931c0 1.30355359-1.30355359 2.60710716-2.60710716 2.60710716H414.5593698C406.08627152 609.76651859 377.73398113 586.95433092 344.81925321 586.95433092c-32.91472793 0-61.26701831 22.48629927-69.7401166 53.77158523H208.59790396c-1.30355359 0-2.60710716-1.30355359-2.60710715-2.60710716V316.46696281c0-1.30355359 1.30355359-2.60710716 2.60710715-2.60710715h336.96860076c1.30355359 0 2.60710716 1.30355359 2.60710716 2.60710715v321.65184617zM710.46603274 376.75631594h-72.99900055c-9.77665186 0-17.59797335 7.82132149-17.59797334 17.59797336V476.15227651c0 9.77665186 7.82132149 17.59797335 17.59797334 17.59797335h130.02946973c6.5177679 0 12.38375903-3.58477236 15.64264298-9.45076346 2.93299556-5.86599112 2.60710716-12.70964742-1.30355359-17.92386175l-57.03046917-82.12387561c-3.25888396-4.88832593-8.47309828-7.49543309-14.3390894-7.4954331z m-70.39189338 97.11474181V396.63550806h69.4142282l53.77158523 77.56143808h-123.18581343z" fill="#2EA7E0" p-id="1871"></path><path d="M833.97773457 480.38882565l-89.94519711-127.74825095c-3.91066074-5.54010272-10.42842865-8.79898668-16.94619656-8.79898668h-129.37769293c-11.40609383 0-20.8568573 9.45076346-20.8568573 20.8568573v275.04980564c0 11.40609383 9.45076346 20.8568573 20.8568573 20.85685729h38.78071904c0.65177679 38.45483065 31.93706274 69.41422821 70.71778178 69.41422821 38.45483065 0 70.06600499-30.95939755 70.71778178-69.41422821h39.43249583c11.40609383 0 20.8568573-9.45076346 20.85685731-20.85685729V492.44669628c-0.32588839-4.23654913-1.62944197-8.47309828-4.23654914-12.05787063z m-127.09647418 233.01020265c-29.32995558 0-53.44569682-23.78985286-54.09747362-52.79392004h1.30355358l1.30355359-8.47309827c3.58477236-25.74518323 25.74518323-44.97259856 51.81625485-44.97259856 25.74518323 0 48.2314825 19.55330372 51.81625485 44.97259856l1.30355358 8.47309827h1.30355359c-0.97766519 29.32995558-25.09340644 52.79392005-54.74925041 52.79392004z m111.1279428-73.65077734c0 0.65177679-0.32588839 0.97766519-0.97766518 0.97766519h-40.41016101c-8.47309828-30.95939755-36.82538867-53.77158522-69.74011661-53.77158523-32.91472793 0-61.26701831 22.48629927-69.74011659 53.77158523h-39.75838423c-0.65177679 0-0.97766519-0.32588839-0.97766518-0.97766519V364.69844532c0-0.65177679 0.32588839-0.97766519 0.97766518-0.97766519H727.0863409c0.32588839 0 0.65177679 0.32588839 0.9776652 0.32588839L818.00920319 492.44669628v147.30155468zM295.9359939 377.08220434c-6.19187951 0-11.73198223 0.97766519-16.29441976 2.93299555-4.88832593 1.95533037-8.79898668 4.88832593-12.05787062 8.79898669-3.25888396 3.91066074-5.54010272 7.82132149-6.8436563 11.73198222-1.30355359 3.91066074-2.28121877 9.45076346-3.25888395 16.29441977l-0.6517768 4.56243754H283.87812328l1.62944198-11.73198223c0.65177679-5.54010272 1.95533037-9.12487507 3.25888395-10.75431706 1.30355359-1.95533037 3.25888396-2.60710716 5.54010272-2.60710716s3.91066074 0.97766519 4.88832594 2.60710716c0.97766519 1.62944197 0.97766519 4.23654913 0.65177678 7.4954331-0.65177679 4.23654913-3.25888396 10.42842865-8.14720988 18.24975014-4.88832593 7.82132149-19.55330372 28.026402-43.99493336 60.61524153l-2.60710718 16.94619655h67.45889784l2.93299555-20.85685731H281.92279291c20.8568573-25.41929483 33.56650472-42.03960299 38.12894226-49.86092447 4.56243754-7.82132149 7.49543309-15.31675458 8.47309827-22.16041089 1.30355359-9.12487507-0.65177679-16.94619655-6.1918795-22.81218766s-14.3390894-9.45076346-26.39696004-9.45076347zM369.91265965 379.36342311L332.10960579 459.53196836l-2.93299556 20.85685729h36.49950028l-2.93299557 21.83452249h30.63350916l2.93299556-21.50863409h8.79898668l2.93299555-20.8568573h-8.79898667l11.08020544-80.16854525H369.91265965zM368.60910606 459.53196836h-13.6873126l20.8568573-52.14214325-7.1695447 52.14214325zM494.07613826 403.80505275c-3.25888396-2.60710716-7.82132149-4.23654913-13.03553581-4.23654913-3.58477236 0-6.84365631 0.65177679-10.10254027 1.95533037-3.25888396 1.30355359-6.19187951 2.93299556-9.45076346 5.54010273l3.91066074-27.70051361h-30.63350914L417.81825375 502.22334814h30.63350917l10.10254026-71.69544697c0.65177679-5.21421433 1.62944197-8.47309828 2.28121875-10.10254025 0.97766519-1.62944197 2.28121877-2.60710716 4.23654915-2.60710717 1.95533037 0 3.25888396 0.97766519 3.58477234 2.60710717 0.32588839 1.62944197 0 5.54010272-0.65177679 11.40609384l-9.77665185 70.71778178h30.63350915l9.77665186-69.4142282c1.30355359-9.45076346 1.95533037-15.96853136 1.62944198-19.55330372-0.97766519-3.91066074-2.60710716-6.84365631-6.19187951-9.77665186z" fill="#2EA7E0" p-id="1872"></path></svg>