<?xml version="1.0" encoding="utf-8"?>
<!-- Generator: Adobe Illustrator 19.0.0, SVG Export Plug-In . SVG Version: 6.00 Build 0)  -->
<svg version="1.1" id="Layer_1" xmlns="http://www.w3.org/2000/svg" xmlns:xlink="http://www.w3.org/1999/xlink" x="0px" y="0px"
	 viewBox="-47 170.9 500 500" style="enable-background:new -47 170.9 500 500;" xml:space="preserve">
<style type="text/css">
	.st0{fill:#4285F4;}
	.st1{fill:#FFFFFF;}
	.st2{fill:#34A853;}
	.st3{fill:#EA4335;}
	.st4{fill:#666666;}
</style>
<rect x="-47" y="170.9" class="st0" width="500" height="500"/>
<path class="st1" d="M203.4,220.7C92.9,220.7,3.3,310.3,3.3,420.8s89.6,200.1,200.1,200.1c18.5,0,33.4-14.9,33.4-33.4
	c0-8.7-3.2-16.5-8.7-22.3c-5.2-5.9-8.3-13.6-8.3-22.1c0-18.5,14.9-33.4,33.4-33.4h39.2c61.4,0,111.2-49.8,111.2-111.2
	C403.5,300.3,313.9,220.7,203.4,220.7z"/>
<path class="st0" d="M81.1,420.8c-18.5,0-33.4-14.9-33.4-33.4S62.6,354,81.1,354s33.4,14.9,33.4,33.4S99.5,420.8,81.1,420.8z"/>
<path class="st2" d="M147.8,331.8c-18.5,0-33.4-14.9-33.4-33.4c0-18.5,14.9-33.4,33.4-33.4s33.4,14.9,33.4,33.4
	C181.2,316.9,166.2,331.8,147.8,331.8z"/>
<path class="st3" d="M259,331.8c-18.5,0-33.4-14.9-33.4-33.4c0-18.5,14.9-33.4,33.4-33.4s33.4,14.9,33.4,33.4
	C292.4,316.9,277.4,331.8,259,331.8z"/>
<path class="st4" d="M325.7,420.8c-18.5,0-33.4-14.9-33.4-33.4s14.9-33.4,33.4-33.4s33.4,14.9,33.4,33.4S344.1,420.8,325.7,420.8z"
	/>
</svg>
