<?xml version="1.0" encoding="utf-8"?>
<!-- Generator: Adobe Illustrator 19.0.0, SVG Export Plug-In . SVG Version: 6.00 Build 0)  -->
<svg version="1.1" id="Layer_1" xmlns="http://www.w3.org/2000/svg" xmlns:xlink="http://www.w3.org/1999/xlink" x="0px" y="0px"
	 viewBox="0 0 500 500" style="enable-background:new 0 0 500 500;" xml:space="preserve">
<style type="text/css">
	.st0{fill:#34A853;}
</style>
<path class="st0" d="M410,108H89.7c-22.1,0-39.8,17.9-39.8,40l-0.2,200.2c0,22.1,17.9,40,40,40H410c22.1,0,40-17.9,40-40V148
	C450,125.9,432.1,108,410,108z M229.8,168.1h40v40h-40V168.1z M229.8,228.1h40v40h-40V228.1z M169.8,168.1h40v40h-40V168.1z
	 M169.8,228.1h40v40h-40V228.1z M149.7,268.1h-40v-40h40V268.1z M149.7,208.1h-40v-40h40V208.1z M329.9,348.2H169.8v-40h160.1V348.2
	z M329.9,268.1h-40v-40h40V268.1z M329.9,208.1h-40v-40h40V208.1z M389.9,268.1h-40v-40h40V268.1z M389.9,208.1h-40v-40h40V208.1z"
	/>
</svg>
