<?xml version="1.0" standalone="no"?><!DOCTYPE svg PUBLIC "-//W3C//DTD SVG 1.1//EN" "http://www.w3.org/Graphics/SVG/1.1/DTD/svg11.dtd"><svg t="1520266296807" class="icon" style="" viewBox="0 0 1024 1024" version="1.1" xmlns="http://www.w3.org/2000/svg" p-id="4973" xmlns:xlink="http://www.w3.org/1999/xlink" width="1024" height="1024"><defs><style type="text/css"></style></defs><path d="M511.51 515.547m-447.297 0a447.297 447.297 0 1 0 894.594 0 447.297 447.297 0 1 0-894.594 0Z" fill="#E0995E" p-id="4974"></path><path d="M679.246 739.196c0 30.879-25.033 55.912-55.912 55.912H399.685c-30.879 0-55.912-25.033-55.912-55.912V291.898c0-30.879 25.033-55.912 55.912-55.912h223.649c30.879 0 55.912 25.033 55.912 55.912v447.298z" fill="#231F20" p-id="4975"></path><path d="M399.685 746.185c-19.274 0-34.945-15.671-34.945-34.945V263.942c0-19.274 15.671-34.945 34.945-34.945h223.649c19.274 0 34.945 15.671 34.945 34.945v447.297c0 19.274-15.671 34.945-34.945 34.945H399.685z" fill="#4F5D73" p-id="4976"></path><path d="M623.334 249.964c7.707 0 13.978 6.27 13.978 13.978v447.297c0 7.708-6.271 13.978-13.978 13.978H399.685c-7.707 0-13.978-6.27-13.978-13.978V263.942c0-7.708 6.271-13.978 13.978-13.978h223.649m0-41.934H399.685c-30.879 0-55.912 25.033-55.912 55.912v447.297c0 30.879 25.033 55.912 55.912 55.912h223.649c30.879 0 55.912-25.033 55.912-55.912V263.942c0-30.879-25.033-55.912-55.912-55.912z" fill="#FFFFFF" p-id="4977"></path><path d="M431.136 228.997l220.171 532.838V228.997z" fill="#FFFFFF" p-id="4978"></path><path d="M623.334 767.152H399.685l-55.912-111.825h335.473z" fill="#FFFFFF" p-id="4979"></path><path d="M511.51 711.239m-27.956 0a27.956 27.956 0 1 0 55.912 0 27.956 27.956 0 1 0-55.912 0Z" fill="#E0E0D1" p-id="4980"></path></svg>