<?xml version="1.0" encoding="utf-8"?>
<!-- Generator: Adobe Illustrator 19.0.0, SVG Export Plug-In . SVG Version: 6.00 Build 0)  -->
<svg version="1.1" id="图层_1" xmlns="http://www.w3.org/2000/svg" xmlns:xlink="http://www.w3.org/1999/xlink" x="0px" y="0px"
	 viewBox="0 0 146 146" style="enable-background:new 0 0 146 146;" xml:space="preserve">
<style type="text/css">
	.st0{fill:#FFFFFF;}
	.st1{fill:#333E48;}
</style>
<rect class="st0" width="146" height="146"/>
<circle class="st1" cx="87.4" cy="31.4" r="7"/>
<circle class="st1" cx="114.5" cy="31.4" r="7"/>
<path class="st1" d="M30.9,24.4h27.6c3.6,0,6.5,2.9,6.5,6.5v1c0,3.6-2.9,6.5-6.5,6.5H30.9c-3.6,0-6.5-2.9-6.5-6.5v-1
	C24.4,27.3,27.3,24.4,30.9,24.4z"/>
<circle class="st1" cx="29.7" cy="57.4" r="7"/>
<circle class="st1" cx="59.5" cy="57.4" r="7"/>
<path class="st1" d="M87.4,50.4H115c3.6,0,6.5,2.9,6.5,6.5v1c0,3.6-2.9,6.5-6.5,6.5H87.4c-3.6,0-6.5-2.9-6.5-6.5v-1
	C80.9,53.3,83.8,50.4,87.4,50.4z"/>
<circle class="st1" cx="29.7" cy="83.1" r="7"/>
<circle class="st1" cx="114.5" cy="83.1" r="7"/>
<path class="st1" d="M59.2,76.1h27.6c3.6,0,6.5,2.9,6.5,6.5v1c0,3.6-2.9,6.5-6.5,6.5H59.2c-3.6,0-6.5-2.9-6.5-6.5v-1
	C52.7,79,55.6,76.1,59.2,76.1z"/>
<path class="st1" d="M87.4,103.7H115c3.6,0,6.5,2.9,6.5,6.5v1c0,3.6-2.9,6.5-6.5,6.5H87.4c-3.6,0-6.5-2.9-6.5-6.5v-1
	C80.9,106.6,83.8,103.7,87.4,103.7z"/>
<circle class="st1" cx="59.5" cy="110.7" r="7"/>
<circle class="st1" cx="29.7" cy="110.7" r="7"/>
</svg>
