<?xml version="1.0" encoding="utf-8"?>
<!-- Generator: Adobe Illustrator 19.0.0, SVG Export Plug-In . SVG Version: 6.00 Build 0)  -->
<svg version="1.1" id="图形" xmlns="http://www.w3.org/2000/svg" xmlns:xlink="http://www.w3.org/1999/xlink" x="0px" y="0px"
	 viewBox="15.167 -16.333 1000.636 1000.678" enable-background="new 15.167 -16.333 1000.636 1000.678" xml:space="preserve">
<rect x="15.167" y="-16.333" fill-rule="evenodd" clip-rule="evenodd" fill="#E0EBFC" width="1000.636" height="1000.678"/>
<image display="none" overflow="visible" width="144" height="144" xlink:href="48ADFA08.png"  transform="matrix(6.9489 0 0 6.9492 15.1667 -16.3331)">
</image>
<circle display="none" fill="none" stroke="#000000" cx="515.506" cy="484.006" r="500.339"/>
<g>
	<path fill-rule="evenodd" clip-rule="evenodd" fill="#515F78" d="M300.415,831.672c-3.285,0.005-6.409-1.421-8.557-3.907
		c-4.089-4.723-3.575-11.867,1.147-15.957l56.027-48.511c4.725-4.089,11.868-3.573,15.957,1.147
		c4.088,4.724,3.575,11.867-1.147,15.956l-56.027,48.512C305.762,830.695,303.134,831.675,300.415,831.672L300.415,831.672z
		 M722.073,831.672c-2.719,0.003-5.347-0.977-7.4-2.76l-56.028-48.512c-4.722-4.089-5.236-11.233-1.147-15.956
		c4.09-4.724,11.233-5.237,15.957-1.147l56.027,48.511c4.724,4.09,5.237,11.233,1.147,15.957
		C728.481,830.25,725.357,831.677,722.073,831.672L722.073,831.672z M222.2,232.655c-5.274,0-9.993-3.706-11.077-9.076
		c-3.447-17.079-5.237-29.927-5.312-30.466c-0.856-6.187,3.466-11.897,9.653-12.754c6.189-0.856,11.899,3.464,12.757,9.652
		c0.017,0.125,1.777,12.74,5.079,29.092c1.236,6.124-2.726,12.09-8.85,13.327C223.694,232.581,222.94,232.655,222.2,232.655
		L222.2,232.655z M314.186,385.367c-2.605,0.002-5.131-0.899-7.146-2.55c-45.562-37.19-79.831-118.842-81.267-122.299
		c-2.397-5.769,0.338-12.389,6.106-14.786c5.77-2.397,12.388,0.336,14.786,6.103c0.331,0.795,33.545,79.878,74.681,113.456
		c4.84,3.95,5.561,11.075,1.611,15.916C320.809,383.844,317.587,385.372,314.186,385.367L314.186,385.367z"/>
	<path fill-rule="evenodd" clip-rule="evenodd" fill="#515F78" d="M783.036,586.992h-90.296
		c-3.268,7.776-7.034,15.332-11.276,22.624h101.572c8.722,0,15.819,7.097,15.819,15.819v119.283c0,8.722-7.096,15.82-15.819,15.82
		H239.452c-8.723,0-15.82-7.097-15.82-15.82V625.435c0-8.722,7.097-15.82,15.82-15.82h101.571
		c-4.241-7.29-8.008-14.848-11.275-22.624h-90.295c-21.199,0-38.444,17.246-38.444,38.444v119.283
		c0,21.197,17.246,38.443,38.444,38.443h543.584c21.198,0,38.444-17.246,38.444-38.443V625.435
		C821.479,604.237,804.234,586.992,783.036,586.992L783.036,586.992z M882.792,132.255H148.13c-6.248,0-11.312,5.064-11.312,11.311
		c0,51.091,10.014,100.664,29.765,147.346c19.073,45.081,46.374,85.568,81.143,120.337c21.712,21.712,45.654,40.51,71.55,56.212
		c1.723-7.651,3.905-15.192,6.536-22.581c-22.36-14.094-43.133-30.671-62.088-49.628c-32.699-32.699-58.372-70.77-76.305-113.155
		c-17.104-40.424-26.439-83.169-27.802-127.219h711.689c-1.363,44.05-10.699,86.795-27.803,127.219
		c-17.934,42.385-43.611,80.456-76.316,113.154c-20.906,20.903-44.02,38.92-69.044,53.893c2.457,7.446,4.465,15.032,6.012,22.717
		c28.778-16.549,55.243-36.832,79.028-60.613c34.776-34.769,62.081-75.256,81.156-120.338
		c19.751-46.68,29.767-96.254,29.767-147.346C894.103,137.318,889.039,132.255,882.792,132.255L882.792,132.255z"/>
	<path fill-rule="evenodd" clip-rule="evenodd" fill="#515F78" d="M511.244,718.935c-55.583,0-107.838-21.645-147.142-60.948
		c-39.302-39.303-60.948-91.559-60.948-147.143c0-55.582,21.645-107.838,60.948-147.141c39.304-39.304,91.558-60.948,147.142-60.948
		c55.582,0,107.839,21.644,147.142,60.948c39.303,39.302,60.949,91.558,60.949,147.141c0,55.583-21.646,107.84-60.949,147.143
		C619.082,697.29,566.826,718.935,511.244,718.935L511.244,718.935z M511.244,325.38c-102.266,0-185.466,83.2-185.466,185.466
		c0,102.267,83.199,185.467,185.466,185.467c102.266,0,185.467-83.199,185.467-185.467C696.71,408.58,613.51,325.38,511.244,325.38
		L511.244,325.38z"/>
	<path fill-rule="evenodd" clip-rule="evenodd" fill="#515F78" d="M511.244,376.397c-6.248,0-11.313-5.064-11.313-11.311V314.12
		c0-6.248,5.065-11.311,11.313-11.311c6.248,0,11.311,5.064,11.311,11.311v50.965C522.555,371.333,517.491,376.397,511.244,376.397
		L511.244,376.397z M511.244,718.935c-6.248,0-11.313-5.064-11.313-11.311v-50.965c0-6.248,5.065-11.311,11.313-11.311
		c6.248,0,11.311,5.064,11.311,11.311v50.965C522.555,713.871,517.491,718.935,511.244,718.935L511.244,718.935z M365.483,522.158
		h-50.965c-6.248,0-11.312-5.065-11.312-11.312c0-6.248,5.065-11.311,11.312-11.311h50.965c6.247,0,11.311,5.064,11.311,11.311
		C376.794,517.093,371.73,522.158,365.483,522.158L365.483,522.158z M708.021,522.158h-50.965c-6.247,0-11.311-5.065-11.311-11.312
		c0-6.248,5.065-11.311,11.311-11.311h50.965c6.248,0,11.313,5.064,11.313,11.311C719.334,517.093,714.269,522.158,708.021,522.158
		L708.021,522.158z"/>
	<path fill-rule="evenodd" clip-rule="evenodd" fill="#515F78" d="M511.244,558.938c-26.517,0-48.091-21.574-48.091-48.092
		c0-26.517,21.574-48.091,48.091-48.091s48.091,21.574,48.091,48.091C559.334,537.364,537.76,558.938,511.244,558.938
		L511.244,558.938z M511.244,485.378c-14.042,0-25.467,11.424-25.467,25.467c0,14.043,11.424,25.468,25.467,25.468
		c14.043,0,25.467-11.425,25.467-25.468C536.711,496.802,525.286,485.378,511.244,485.378L511.244,485.378z"/>
	<path fill-rule="evenodd" clip-rule="evenodd" fill="#515F78" d="M539.289,498.374c-3.001,0.003-5.88-1.189-7.998-3.314
		c-4.417-4.417-4.417-11.579,0-15.998l71.107-71.107c4.417-4.417,11.581-4.417,15.998,0c4.419,4.417,4.419,11.579,0,15.998
		l-71.107,71.107C545.168,497.185,542.289,498.378,539.289,498.374L539.289,498.374z"/>
</g>
</svg>
