<?xml version="1.0" standalone="no"?><!DOCTYPE svg PUBLIC "-//W3C//DTD SVG 1.1//EN" "http://www.w3.org/Graphics/SVG/1.1/DTD/svg11.dtd"><svg t="1520266188951" class="icon" style="" viewBox="0 0 1024 1024" version="1.1" xmlns="http://www.w3.org/2000/svg" p-id="1269" xmlns:xlink="http://www.w3.org/1999/xlink" width="1024" height="1024"><defs><style type="text/css"></style></defs><path d="M825.11035131 182.410156H198.88964869C153.45568873 182.410156 116.4921875 219.37365722 116.4921875 264.80761719v461.42578099c0 45.43395997 36.96350123 82.39746119 82.39746119 82.3974612h626.22070262c45.43395997 0 82.39746119-36.96350123 82.39746119-82.3974612V264.80761719c0-45.43395997-36.96350123-82.39746119-82.39746119-82.39746119zM198.88964869 215.36914062h626.22070262c27.25707982 0 49.43847656 22.18139674 49.43847656 49.43847657v82.39746119H149.45117213V264.80761719c0-27.25707982 22.18139674-49.43847656 49.43847656-49.43847657z m626.22070262 560.30273413H198.88964869c-27.25707982 0-49.43847656-22.18139674-49.43847656-49.43847657V380.16406225h725.09765574v346.06933593c0 27.25707982-22.18139674 49.43847656-49.43847656 49.43847657z" fill="#010101" p-id="1270"></path><path d="M248.32812525 281.28710912m-32.95898463 0a32.95898463 32.95898463 0 1 0 65.9179685 0 32.95898463 32.95898463 0 1 0-65.9179685 0Z" fill="#010101" p-id="1271"></path><path d="M347.20507838 281.28710912m-32.95898463 0a32.95898463 32.95898463 0 1 0 65.9179685 0 32.95898463 32.95898463 0 1 0-65.9179685 0Z" fill="#010101" p-id="1272"></path><path d="M446.0820315 281.28710912m-32.95898463 0a32.95898463 32.95898463 0 1 0 65.9179685 0 32.95898463 32.95898463 0 1 0-65.91796849 0Z" fill="#010101" p-id="1273"></path></svg>