<?xml version="1.0" standalone="no"?><!DOCTYPE svg PUBLIC "-//W3C//DTD SVG 1.1//EN" "http://www.w3.org/Graphics/SVG/1.1/DTD/svg11.dtd"><svg t="1519394201843" class="icon" style="" viewBox="0 0 1024 1024" version="1.1" xmlns="http://www.w3.org/2000/svg" p-id="843" xmlns:xlink="http://www.w3.org/1999/xlink" width="1024" height="1024"><defs><style type="text/css"></style></defs><path d="M687.32795667 820.94219876H324.2882843c-48.2314825 0-87.33808994-39.10660744-87.33808994-87.33808994V459.85785674c0-48.2314825 39.10660744-87.33808994 87.33808994-87.33808994H687.97973347c48.2314825 0 87.33808994 39.10660744 87.33808994 87.33808995v273.74625207c-0.65177679 48.2314825-39.75838423 87.33808994-87.98986674 87.33808994zM324.2882843 417.49236536c-23.46396446 0-42.36549139 18.90152693-42.36549139 42.36549138v273.74625208c0 23.46396446 18.90152693 42.36549139 42.36549139 42.36549138H687.97973347c23.46396446 0 42.36549139-18.90152693 42.36549139-42.36549138V459.85785674c0-23.46396446-18.90152693-42.36549139-42.36549139-42.36549138H324.2882843zM662.56043863 372.5197668h-44.97259855c0-61.91879512-50.18681288-112.10560798-112.10560798-112.10560798s-112.10560798 50.18681288-112.105608 112.10560798h-44.97259854C348.40402556 285.83345366 419.44769573 215.44156027 505.4822321 215.44156027c86.68631316 0 157.07820654 70.39189339 157.07820653 157.07820653z" fill="#4C4C4C" p-id="844"></path><path d="M505.4822321 697.75638533c-18.90152693 0-33.89239312-14.99086619-33.89239312-33.89239312V529.59797335c0-18.90152693 14.99086619-33.89239312 33.89239312-33.89239313s33.89239312 14.99086619 33.89239311 33.89239312v134.26601888c0 18.90152693-14.99086619 33.89239312-33.89239311 33.8923931z" fill="#FFA028" p-id="845"></path></svg>