<?xml version="1.0" standalone="no"?><!DOCTYPE svg PUBLIC "-//W3C//DTD SVG 1.1//EN" "http://www.w3.org/Graphics/SVG/1.1/DTD/svg11.dtd"><svg t="1519394798091" class="icon" style="" viewBox="0 0 1024 1024" version="1.1" xmlns="http://www.w3.org/2000/svg" p-id="975" xmlns:xlink="http://www.w3.org/1999/xlink" width="1024" height="1024"><defs><style type="text/css"></style></defs><path d="M823.88782567 663.03032451v108.92251154c0 30.07773068-24.3835254 54.46125608-54.46125608 54.46125609H252.04716395c-30.07773068 0-54.46125608-24.3835254-54.46125609-54.46125609V663.03032451h626.30191781z" fill="#A5A5A5" p-id="976"></path><path d="M823.88782567 663.03032451c0 30.07773068-24.3835254 54.46125608-54.46125608 54.46125545H252.04716395c-30.07773068 0-54.46125608-24.3835254-54.46125609-54.46125545S221.96943327 608.56906842 252.04716395 608.56906842h517.37940564c30.07773068 0 54.46125608 24.3835254 54.46125608 54.46125609z" fill="#DBD8D2" p-id="977"></path><path d="M687.73215948 452.18811155v210.84221296H551.58154586v-210.84221296a27.233154 27.233154 0 0 1 27.233154-27.23315463h81.68935754a27.233154 27.233154 0 0 1 27.23315464 27.23315463z" fill="#FC8059" p-id="978"></path><path d="M606.04280131 478.64317519v184.38714932H469.89218767V478.64317519a27.233154 27.233154 0 0 1 27.23315464-27.23315401h81.68935754a27.233154 27.233154 0 0 1 27.233154 27.23315401z" fill="#BF5243" p-id="979"></path><path d="M578.81469985 227.34027579v435.69004872H442.65903367V227.34532833a27.233154 27.233154 0 0 1 27.233154-27.233154h81.68935819a27.233154 27.233154 0 0 1 27.233154 27.233154z" fill="#A3CCAA" p-id="980"></path><path d="M497.12028977 372.83302384v290.19730067H360.96967549V372.83302384a27.233154 27.233154 0 0 1 27.23315463-27.233154h81.68935755a27.233154 27.233154 0 0 1 27.23315463 27.233154z" fill="#80A886" p-id="981"></path><path d="M469.89218767 346.37795957v316.65236494H333.74157403V346.37795957a27.233154 27.233154 0 0 1 27.22810146-27.23315398h81.69441072a27.233154 27.233154 0 0 1 27.22810146 27.23315398z" fill="#FED766" p-id="982"></path><path d="M428.36541717 771.95283605a10.21116993 10.21116993 0 0 1-10.21116993 10.21116993h-1.36418411a10.21116993 10.21116993 0 0 1 0-20.42233922h1.36418411a10.20611739 10.20611739 0 0 1 10.20611738 10.21116929z m-81.01231867-10.21116929h-1.3641841a10.21116993 10.21116993 0 0 0 0 20.42233922h1.3641841a10.21116993 10.21116993 0 0 0 0-20.42233922z m486.7458971-98.71134225v108.92251153c0 35.66078003-29.011646 64.67242602-64.67242601 64.67242602H252.04716395c-35.66078003 0-64.67242602-29.011646-64.67242601-64.67242601V663.03032451c0-35.66078003 29.011646-64.67242602 64.67242601-64.67242602h71.47818761V349.87936497c0-20.64465112 16.79967281-37.43927138 37.4392714-37.43927138h71.48324078V227.34027579c0-20.64465112 16.79967281-37.43927138 37.43927139-37.43927139h81.69946326c20.64465112 0 37.43927138 16.79462026 37.43927139 37.43927139v194.01727742h71.47818762c20.64465112 0 37.43927138 16.79967281 37.43927138 37.44432393v139.55602135h71.4832408c35.66078003 0 64.67242602 29.011646 64.67242602 64.67242602z m-245.07312582-221.25043207v211.04431468H677.52098955v-194.01727743a17.03714233 17.03714233 0 0 0-17.01693215-17.02703726H589.02586978zM452.87020297 227.35038088v86.51957986c15.69822096 4.45633413 27.233154 18.91163201 27.23315463 36.01445678v302.93978959h88.50017231V227.34532833a17.03714233 17.03714233 0 0 0-17.02198405-17.02198407H469.88713513a17.03714233 17.03714233 0 0 0-17.01693216 17.02198407zM343.95274397 652.81410203h115.7282744V349.87936497a17.03714233 17.03714233 0 0 0-17.0219847-17.01693152H360.96967549a17.03714233 17.03714233 0 0 0-17.02198406 17.01693151v302.93978961zM207.79202461 663.03032451c0 24.39868303 19.85140313 44.25008616 44.2500868 44.25008616h517.37940562c24.39868303 0 44.25008616-19.85140313 44.25008617-44.25008616 0-24.39868303-19.85140313-44.25008616-44.25008617-44.25008679h-71.47818825v34.03891685h57.8666638a10.21116993 10.21116993 0 0 1 0 20.42233924H265.66374096a10.21116993 10.21116993 0 0 1-1e-8-20.42233924h57.86666316v-34.03891685H252.04716395c-24.39868303 0-44.25008616 19.85645567-44.25008678 44.25008679z m605.87957859 108.92251154v-7.36154069a64.41979886 64.41979886 0 0 1-44.25008617 17.57271062H469.89218767a10.21116993 10.21116993 0 0 1 0-20.42233922h299.53438192c24.39868303 0 44.25008616-19.85140313 44.25008615-44.2500868v-7.3615407a64.41979886 64.41979886 0 0 1-44.25008615 17.57271063H252.04716395a64.42485141 64.42485141 0 0 1-44.25008678-17.57271063v61.82279679c0 24.39868303 19.85140313 44.25008616 44.25008678 44.25008678h517.37940564c24.39868303 0 44.25008616-19.85140313 44.25008615-44.25008678z" fill="#4C4C4C" p-id="983"></path></svg>