<?xml version="1.0" encoding="utf-8"?>
<!-- Generator: Adobe Illustrator 19.0.0, SVG Export Plug-In . SVG Version: 6.00 Build 0)  -->
<svg version="1.1" id="Layer_1" xmlns="http://www.w3.org/2000/svg" xmlns:xlink="http://www.w3.org/1999/xlink" x="0px" y="0px"
	 viewBox="0 0 500 500" style="enable-background:new 0 0 500 500;" xml:space="preserve">
<style type="text/css">
	.st0{fill:#3C8CEA;}
	.st1{fill:#2D6FE4;}
	.st2{fill:#FFFFFF;}
	.st3{fill:none;}
</style>
<g>
	<path class="st0" d="M299,50H127.5c-15,0-27.3,12.3-27.3,27.3v201.3v87v57.1c0,15,12.3,27.3,27.3,27.3h245.4
		c15,0,27.3-12.3,27.3-27.3v-57.1v-79.9V158.8L299,50z"/>
	<path class="st1" d="M400.2,159.3v5.4h-68.6c0,0-34.3-7-33.2-35.9c0,0,1.1,30.5,32.1,30.5L400.2,159.3L400.2,159.3z"/>
	<path class="st2" d="M299,50v78.2c0,8.6,5.9,31.1,32.7,31.1h68.5L299,50z"/>
	<line class="st3" x1="63.2" y1="204.3" x2="441.2" y2="204.3"/>
</g>
<path class="st2" d="M323,347.4l-62.4-62.4c6.1-15.7,2.7-34.5-9.9-47.1c-13.6-13.6-34.1-16.4-50.5-8.5l29.7,29.7L209,279.8
	l-29.7-29.7c-7.8,16.4-5.1,36.8,8.5,50.5c12.6,12.6,31.4,16,47.1,9.9l62.4,62.4c2.7,2.7,7.2,2.7,9.6,0l16-16
	C325.7,354.5,325.7,350.1,323,347.4z"/>
</svg>
