<?xml version="1.0" encoding="utf-8"?>
<!-- Generator: Adobe Illustrator 19.0.0, SVG Export Plug-In . SVG Version: 6.00 Build 0)  -->
<svg version="1.1" id="图形" xmlns="http://www.w3.org/2000/svg" xmlns:xlink="http://www.w3.org/1999/xlink" x="0px" y="0px"
	 viewBox="15.167 -16.333 1000.636 1000.678" enable-background="new 15.167 -16.333 1000.636 1000.678" xml:space="preserve">
<path display="none" fill="#D8D8D8" d="M515.485,783.982c-80.126,0-155.457-31.203-212.115-87.86
	c-56.658-56.658-87.861-131.989-87.861-212.116s31.203-155.457,87.861-212.115c56.658-56.658,131.989-87.861,212.115-87.861
	c80.126,0,155.457,31.203,212.115,87.861c56.657,56.658,87.86,131.988,87.86,212.115s-31.203,155.457-87.86,212.116
	C670.942,752.779,595.611,783.982,515.485,783.982z M515.485,205.03c-153.828,0-278.976,125.148-278.976,278.976
	s125.148,278.976,278.976,278.976S794.46,637.833,794.46,484.006S669.313,205.03,515.485,205.03z"/>
<g>
	
		<circle fill-rule="evenodd" clip-rule="evenodd" fill="#00B2EB" stroke="#000000" stroke-width="2" cx="327.903" cy="299.26" r="189.236"/>
	<g>
		<path fill="#FFFFFF" d="M374.152,365.69c-10.763,5.287-24.806,7.929-42.129,7.929c-22.291,0-39.979-6.67-53.067-20.013
			c-13.087-13.342-19.631-31.126-19.631-53.354c0-23.372,7.308-42.494,21.924-57.366c14.616-14.87,33.483-22.306,56.602-22.306
			c14.457,0,26.557,1.879,36.301,5.636v30.474c-9.999-5.859-21.336-8.789-34.009-8.789c-14.458,0-26.017,4.619-34.677,13.852
			c-8.662,9.235-12.992,21.303-12.992,36.206c0,14.521,4.108,26.208,12.323,35.06c8.216,8.853,19.329,13.279,33.34,13.279
			c13.183,0,25.187-3.184,36.015-9.553V365.69z"/>
	</g>
</g>
<g>
	
		<circle fill-rule="evenodd" clip-rule="evenodd" fill="#E2007F" stroke="#000000" stroke-width="2" cx="698.576" cy="708.054" r="150.242"/>
	<g>
		<path fill="#FFFFFF" d="M740.635,765.043v-71.294c0-6.573,0.329-14.84,0.986-24.802h-0.606c-1.518,7.535-2.73,12.565-3.641,15.093
			l-28.973,81.003h-19.947l-29.353-80.244c-0.708-1.921-1.947-7.205-3.716-15.852h-0.683c0.656,9.86,0.985,19.746,0.985,29.655
			v66.44h-22.602V647.559h36.405l25.333,70.991c2.123,5.866,3.564,11.377,4.323,16.534h0.53c1.566-6.421,3.186-11.983,4.854-16.686
			l25.408-70.84h35.419v117.484H740.635z"/>
	</g>
</g>
<g>
	
		<circle fill-rule="evenodd" clip-rule="evenodd" fill="#F9F400" stroke="#000000" stroke-width="2" cx="704.577" cy="339.765" r="144.241"/>
	<g>
		<path fill="#333333" d="M759.323,293.98l-36.845,72.524v40.267h-24.029v-39.83l-35.825-72.961h27.451l18.933,43.107
			c0.388,0.874,1.285,3.835,2.694,8.884h0.291c0.582-3.397,1.384-6.286,2.403-8.665l19.441-43.326H759.323z"/>
	</g>
</g>
<g>
	<circle fill-rule="evenodd" clip-rule="evenodd" cx="360.996" cy="737.335" r="109.505"/>
	<g>
		<path fill="#FFFFFF" d="M398.842,781.201h-23.107l-25.927-37.425c-0.663-0.958-1.419-2.45-2.266-4.478h-0.276v41.902h-18.243
			v-85.629h18.243v40.465h0.276c0.81-1.769,1.621-3.298,2.432-4.588l24.544-35.877h21.78l-30.625,40.853L398.842,781.201z"/>
	</g>
</g>
</svg>
