<?xml version="1.0" encoding="utf-8"?>
<!-- Generator: Adobe Illustrator 19.0.0, SVG Export Plug-In . SVG Version: 6.00 Build 0)  -->
<svg version="1.1" id="图形" xmlns="http://www.w3.org/2000/svg" xmlns:xlink="http://www.w3.org/1999/xlink" x="0px" y="0px"
	 viewBox="15.167 -16.333 1000.636 1000.678" enable-background="new 15.167 -16.333 1000.636 1000.678" xml:space="preserve">
<g>
	<polyline fill-rule="evenodd" clip-rule="evenodd" fill="#DAB766" points="218.382,850.839 163.777,850.839 163.777,363.57 
		516.672,112.241 868.527,360.844 868.527,850.819 813.92,850.819 813.92,389.122 516.795,179.192 218.382,391.722 218.382,850.839 
			"/>
	<polyline fill-rule="evenodd" clip-rule="evenodd" fill="#DAB766" points="734,200.245 788.604,200.245 788.604,330.699 
		734,330.699 734,200.245 734,200.245 	"/>
	<polyline fill-rule="evenodd" clip-rule="evenodd" fill="#DAB766" points="542.467,850.839 489.836,850.839 489.836,538.908 
		542.467,538.908 542.467,850.839 	"/>
	<polyline fill-rule="evenodd" clip-rule="evenodd" fill="#DAB766" points="552.859,537.569 515.648,574.784 366.384,425.523 
		403.6,388.306 552.859,537.569 	"/>
	<polyline fill-rule="evenodd" clip-rule="evenodd" fill="#DAB766" points="628.684,388.296 665.899,425.512 516.636,574.774 
		479.421,537.559 628.684,388.296 	"/>
	<polyline fill-rule="evenodd" clip-rule="evenodd" fill="#DAB766" points="690.641,656.105 690.641,714.633 341.661,714.633 
		341.661,656.105 690.641,656.105 	"/>
	<polyline fill-rule="evenodd" clip-rule="evenodd" fill="#DAB766" points="690.641,538.908 690.641,597.991 341.661,597.991 
		341.661,538.908 690.641,538.908 	"/>
</g>
</svg>
