<?xml version="1.0" standalone="no"?><!DOCTYPE svg PUBLIC "-//W3C//DTD SVG 1.1//EN" "http://www.w3.org/Graphics/SVG/1.1/DTD/svg11.dtd"><svg t="1520267192801" class="icon" style="" viewBox="0 0 1024 1024" version="1.1" xmlns="http://www.w3.org/2000/svg" p-id="1504" xmlns:xlink="http://www.w3.org/1999/xlink" width="1024" height="1024"><defs><style type="text/css"></style></defs><path d="M287.95172823 257.39969116h448.09654354v570.3046918H287.95172823z" fill="#CFAA93" p-id="1505"></path><path d="M338.87179 338.87179v427.72851884h244.41629647l101.84012353-101.84012353V338.87179z" fill="#EDF2F9" p-id="1506"></path><path d="M583.28808647 664.76018531v101.84012353l101.84012353-101.84012353z" fill="#D0D6DF" p-id="1507"></path><path d="M349.05580234 776.78432119h234.23228413l0.20368025-0.0814721a9.86830797 9.86830797 0 0 0 6.57887198-2.82097142l102.33914014-102.33914014a9.81738792 9.81738792 0 0 0 2.84133945-6.67052809L695.31222237 664.76018531V349.05580234a20.36802471 20.36802471 0 0 0-20.36802471-20.36802471H349.05580234a20.36802471 20.36802471 0 0 0-20.36802471 20.36802471v407.36049414a20.36802471 20.36802471 0 0 0 20.36802471 20.36802471z m244.41629649-34.43214577V674.94419766h67.40797777L593.47209883 742.35217542zM349.05580234 349.05580234h325.88839532v305.5203706H573.10407412v101.84012354H349.05580234V349.05580234z m50.92006177 91.65611119h224.04827178a10.18401235 10.18401235 0 1 0 0-20.36802471H399.97586411a10.18401235 10.18401235 0 1 0 0 20.36802471z m0 61.10407412h224.04827178a10.18401235 10.18401235 0 1 0 0-20.36802471H399.97586411a10.18401235 10.18401235 0 1 0 0 20.36802471z m0 61.10407412h224.04827178a10.18401235 10.18401235 0 1 0 0-20.36802471H399.97586411a10.18401235 10.18401235 0 1 0 0 20.36802471z m112.02413589 40.73604941H399.97586411a10.18401235 10.18401235 0 1 0 0 20.36802471h112.02413589a10.18401235 10.18401235 0 1 0 0-20.36802471zM725.86425943 247.21567881H298.13574057a20.36802471 20.36802471 0 0 0-20.3680247 20.36802472v549.93666707a20.36802471 20.36802471 0 0 0 20.36802471 20.36802471h427.72851884a20.36802471 20.36802471 0 0 0 20.36802471-20.36802471V267.58370352a20.36802471 20.36802471 0 0 0-20.3680247-20.36802472z m-1e-8 570.30469179H298.13574057V267.58370352h427.72851886v549.93666708z" fill="#2B3139" p-id="1508"></path><path d="M613.84012354 298.13574057h-50.92006177V247.21567881c0-28.12824213-22.79181964-50.92006177-50.92006177-50.92006177s-50.92006177 22.79181964-50.92006177 50.92006177v50.92006177h-50.92006177a30.55203706 30.55203706 0 0 0-30.55203706 30.55203705v40.73604943h264.7843212v-40.73604943a30.55203706 30.55203706 0 0 0-30.55203706-30.55203705z" fill="#C8E8FA" p-id="1509"></path><path d="M613.84012354 287.95172823h-40.73604942V247.21567881a61.10407412 61.10407412 0 0 0-122.20814824 0v40.73604942h-40.73604942a40.7360494 40.7360494 0 0 0-40.7360494 40.7360494v50.92006177h285.15234588v-50.92006177a40.7360494 40.7360494 0 0 0-40.7360494-40.7360494z m20.3680247 50.92006177v20.36802469H389.79185176v-30.55203706a20.36802471 20.36802471 0 0 1 20.3680247-20.36802469h61.10407414V247.21567881a40.7360494 40.7360494 0 0 1 81.47209881 0v61.10407413h61.10407413a20.36802471 20.36802471 0 0 1 20.3680247 20.36802469v10.18401237zM512 226.8476541a20.36802471 20.36802471 0 1 0 0.01018401 40.74623343A20.36802471 20.36802471 0 0 0 512 226.8476541z" fill="#2B3139" p-id="1510"></path></svg>