<?xml version="1.0" encoding="utf-8"?>
<!-- Generator: Adobe Illustrator 19.0.0, SVG Export Plug-In . SVG Version: 6.00 Build 0)  -->
<svg version="1.1" id="Layer_1" xmlns="http://www.w3.org/2000/svg" xmlns:xlink="http://www.w3.org/1999/xlink" x="0px" y="0px"
	 viewBox="0 0 500 500" style="enable-background:new 0 0 500 500;" xml:space="preserve">
<style type="text/css">
	.st0{display:none;}
	.st1{display:inline;fill:none;stroke:#EDEDED;stroke-width:0.5;stroke-miterlimit:10;}
	.st2{display:inline;fill:none;stroke:#BDBDBD;stroke-miterlimit:10;}
	.st3{fill:#34A853;}
	.st4{fill:#FFFFFF;}
	.st5{font-family:'Roboto-Medium';}
	.st6{font-size:120px;}
	.st7{font-size:80px;}
</style>
<g class="st0">
	<rect x="250" y="350" class="st1" width="25" height="25"/>
	<rect x="175" y="350" class="st1" width="25" height="25"/>
	<rect x="225" y="350" class="st1" width="25" height="25"/>
	<rect x="200" y="350" class="st1" width="25" height="25"/>
	<rect x="125" y="325" class="st1" width="25" height="25"/>
	<rect x="125" y="350" class="st1" width="25" height="25"/>
	<rect x="150" y="350" class="st1" width="25" height="25"/>
	<rect x="275" y="350" class="st1" width="25" height="25"/>
	<rect x="350" y="300" class="st1" width="25" height="25"/>
	<rect x="125" y="300" class="st1" width="25" height="25"/>
	<rect x="350" y="325" class="st1" width="25" height="25"/>
	<rect x="350" y="275" class="st1" width="25" height="25"/>
	<rect x="300" y="350" class="st1" width="25" height="25"/>
	<rect x="350" y="350" class="st1" width="25" height="25"/>
	<rect x="350" y="250" class="st1" width="25" height="25"/>
	<rect x="325" y="350" class="st1" width="25" height="25"/>
	<rect x="250" y="125" class="st1" width="25" height="25"/>
	<rect x="225" y="125" class="st1" width="25" height="25"/>
	<rect x="200" y="125" class="st1" width="25" height="25"/>
	<rect x="300" y="125" class="st1" width="25" height="25"/>
	<rect x="325" y="125" class="st1" width="25" height="25"/>
	<rect x="175" y="125" class="st1" width="25" height="25"/>
	<rect x="275" y="125" class="st1" width="25" height="25"/>
	<rect x="125" y="175" class="st1" width="25" height="25"/>
	<rect x="125" y="200" class="st1" width="25" height="25"/>
	<rect x="125" y="225" class="st1" width="25" height="25"/>
	<rect x="125" y="250" class="st1" width="25" height="25"/>
	<rect x="125" y="275" class="st1" width="25" height="25"/>
	<rect x="150" y="125" class="st1" width="25" height="25"/>
	<rect x="125" y="125" class="st1" width="25" height="25"/>
	<rect x="125" y="150" class="st1" width="25" height="25"/>
	<rect x="350" y="150" class="st1" width="25" height="25"/>
	<rect x="100" y="275" class="st1" width="25" height="25"/>
	<rect x="100" y="300" class="st1" width="25" height="25"/>
	<rect x="100" y="250" class="st1" width="25" height="25"/>
	<rect x="100" y="175" class="st1" width="25" height="25"/>
	<rect x="100" y="150" class="st1" width="25" height="25"/>
	<rect x="100" y="200" class="st1" width="25" height="25"/>
	<rect x="100" y="225" class="st1" width="25" height="25"/>
	<rect x="100" y="325" class="st1" width="25" height="25"/>
	<rect x="200" y="375" class="st1" width="25" height="25"/>
	<rect x="225" y="375" class="st1" width="25" height="25"/>
	<rect x="175" y="375" class="st1" width="25" height="25"/>
	<rect x="150" y="375" class="st1" width="25" height="25"/>
	<rect x="100" y="375" class="st1" width="25" height="25"/>
	<rect x="125" y="375" class="st1" width="25" height="25"/>
	<rect x="100" y="350" class="st1" width="25" height="25"/>
	<rect x="100" y="125" class="st1" width="25" height="25"/>
	<rect x="350" y="100" class="st1" width="25" height="25"/>
	<rect x="300" y="100" class="st1" width="25" height="25"/>
	<rect x="275" y="100" class="st1" width="25" height="25"/>
	<rect x="350" y="125" class="st1" width="25" height="25"/>
	<rect x="325" y="150" class="st1" width="25" height="25"/>
	<rect x="350" y="200" class="st1" width="25" height="25"/>
	<rect x="350" y="175" class="st1" width="25" height="25"/>
	<rect x="100" y="100" class="st1" width="25" height="25"/>
	<rect x="125" y="100" class="st1" width="25" height="25"/>
	<rect x="350" y="225" class="st1" width="25" height="25"/>
	<rect x="150" y="100" class="st1" width="25" height="25"/>
	<rect x="250" y="100" class="st1" width="25" height="25"/>
	<rect x="225" y="100" class="st1" width="25" height="25"/>
	<rect x="200" y="100" class="st1" width="25" height="25"/>
	<rect x="175" y="100" class="st1" width="25" height="25"/>
	<rect x="275" y="175" class="st1" width="25" height="25"/>
	<rect x="175" y="175" class="st1" width="25" height="25"/>
	<rect x="175" y="225" class="st1" width="25" height="25"/>
	<rect x="175" y="200" class="st1" width="25" height="25"/>
	<rect x="200" y="175" class="st1" width="25" height="25"/>
	<rect x="250" y="375" class="st1" width="25" height="25"/>
	<rect x="250" y="175" class="st1" width="25" height="25"/>
	<rect x="275" y="200" class="st1" width="25" height="25"/>
	<rect x="225" y="175" class="st1" width="25" height="25"/>
	<rect x="250" y="300" class="st1" width="25" height="25"/>
	<rect x="300" y="300" class="st1" width="25" height="25"/>
	<rect x="275" y="300" class="st1" width="25" height="25"/>
	<rect x="225" y="300" class="st1" width="25" height="25"/>
	<rect x="175" y="275" class="st1" width="25" height="25"/>
	<rect x="175" y="300" class="st1" width="25" height="25"/>
	<rect x="200" y="300" class="st1" width="25" height="25"/>
	<rect x="175" y="250" class="st1" width="25" height="25"/>
	<rect x="200" y="200" class="st1" width="25" height="25"/>
	<rect x="225" y="200" class="st1" width="25" height="25"/>
	<rect x="250" y="225" class="st1" width="25" height="25"/>
	<rect x="250" y="200" class="st1" width="25" height="25"/>
	<rect x="275" y="225" class="st1" width="25" height="25"/>
	<rect x="225" y="250" class="st1" width="25" height="25"/>
	<rect x="250" y="250" class="st1" width="25" height="25"/>
	<rect x="225" y="225" class="st1" width="25" height="25"/>
	<rect x="275" y="275" class="st1" width="25" height="25"/>
	<rect x="250" y="275" class="st1" width="25" height="25"/>
	<rect x="275" y="250" class="st1" width="25" height="25"/>
	<rect x="200" y="225" class="st1" width="25" height="25"/>
	<rect x="200" y="250" class="st1" width="25" height="25"/>
	<rect x="200" y="275" class="st1" width="25" height="25"/>
	<rect x="225" y="275" class="st1" width="25" height="25"/>
	<rect x="325" y="175" class="st1" width="25" height="25"/>
	<rect x="225" y="325" class="st1" width="25" height="25"/>
	<rect x="200" y="325" class="st1" width="25" height="25"/>
	<rect x="250" y="325" class="st1" width="25" height="25"/>
	<rect x="175" y="325" class="st1" width="25" height="25"/>
	<rect x="150" y="300" class="st1" width="25" height="25"/>
	<rect x="150" y="325" class="st1" width="25" height="25"/>
	<rect x="275" y="325" class="st1" width="25" height="25"/>
	<rect x="325" y="300" class="st1" width="25" height="25"/>
	<rect x="325" y="250" class="st1" width="25" height="25"/>
	<rect x="325" y="225" class="st1" width="25" height="25"/>
	<rect x="300" y="325" class="st1" width="25" height="25"/>
	<rect x="325" y="200" class="st1" width="25" height="25"/>
	<rect x="325" y="325" class="st1" width="25" height="25"/>
	<rect x="150" y="275" class="st1" width="25" height="25"/>
	<rect x="325" y="275" class="st1" width="25" height="25"/>
	<rect x="300" y="225" class="st1" width="25" height="25"/>
	<rect x="150" y="250" class="st1" width="25" height="25"/>
	<rect x="275" y="150" class="st1" width="25" height="25"/>
	<rect x="300" y="175" class="st1" width="25" height="25"/>
	<rect x="300" y="200" class="st1" width="25" height="25"/>
	<rect x="300" y="250" class="st1" width="25" height="25"/>
	<rect x="300" y="275" class="st1" width="25" height="25"/>
	<rect x="250" y="150" class="st1" width="25" height="25"/>
	<rect x="300" y="150" class="st1" width="25" height="25"/>
	<rect x="150" y="200" class="st1" width="25" height="25"/>
	<rect x="150" y="225" class="st1" width="25" height="25"/>
	<rect x="150" y="175" class="st1" width="25" height="25"/>
	<rect x="175" y="150" class="st1" width="25" height="25"/>
	<rect x="200" y="150" class="st1" width="25" height="25"/>
	<rect x="150" y="150" class="st1" width="25" height="25"/>
	<rect x="225" y="150" class="st1" width="25" height="25"/>
	<rect x="325" y="100" class="st1" width="25" height="25"/>
	<rect x="50" y="125" class="st1" width="25" height="25"/>
	<rect x="50" y="150" class="st1" width="25" height="25"/>
	<rect x="50" y="100" class="st1" width="25" height="25"/>
	<rect x="50" y="175" class="st1" width="25" height="25"/>
	<rect x="50" y="50" class="st1" width="25" height="25"/>
	<rect x="75" y="50" class="st1" width="25" height="25"/>
	<rect x="50" y="200" class="st1" width="25" height="25"/>
	<rect x="50" y="75" class="st1" width="25" height="25"/>
	<rect x="50" y="325" class="st1" width="25" height="25"/>
	<rect x="100" y="50" class="st1" width="25" height="25"/>
	<rect x="50" y="350" class="st1" width="25" height="25"/>
	<rect x="50" y="225" class="st1" width="25" height="25"/>
	<rect x="50" y="375" class="st1" width="25" height="25"/>
	<rect x="50" y="250" class="st1" width="25" height="25"/>
	<rect x="50" y="300" class="st1" width="25" height="25"/>
	<rect x="50" y="275" class="st1" width="25" height="25"/>
	<rect x="300" y="50" class="st1" width="25" height="25"/>
	<rect x="375" y="50" class="st1" width="25" height="25"/>
	<rect x="350" y="50" class="st1" width="25" height="25"/>
	<rect x="400" y="50" class="st1" width="25" height="25"/>
	<rect x="400" y="75" class="st1" width="25" height="25"/>
	<rect x="400" y="125" class="st1" width="25" height="25"/>
	<rect x="400" y="100" class="st1" width="25" height="25"/>
	<rect x="125" y="50" class="st1" width="25" height="25"/>
	<rect x="325" y="50" class="st1" width="25" height="25"/>
	<rect x="175" y="50" class="st1" width="25" height="25"/>
	<rect x="150" y="50" class="st1" width="25" height="25"/>
	<rect x="400" y="150" class="st1" width="25" height="25"/>
	<rect x="275" y="50" class="st1" width="25" height="25"/>
	<rect x="225" y="50" class="st1" width="25" height="25"/>
	<rect x="50" y="400" class="st1" width="25" height="25"/>
	<rect x="250" y="50" class="st1" width="25" height="25"/>
	<rect x="200" y="50" class="st1" width="25" height="25"/>
	<rect x="425" y="275" class="st1" width="25" height="25"/>
	<rect x="425" y="300" class="st1" width="25" height="25"/>
	<rect x="425" y="250" class="st1" width="25" height="25"/>
	<rect x="425" y="350" class="st1" width="25" height="25"/>
	<rect x="425" y="375" class="st1" width="25" height="25"/>
	<rect x="425" y="225" class="st1" width="25" height="25"/>
	<rect x="425" y="325" class="st1" width="25" height="25"/>
	<rect x="425" y="400" class="st1" width="25" height="25"/>
	<rect x="425" y="100" class="st1" width="25" height="25"/>
	<rect x="425" y="75" class="st1" width="25" height="25"/>
	<rect x="425" y="50" class="st1" width="25" height="25"/>
	<rect x="425" y="150" class="st1" width="25" height="25"/>
	<rect x="425" y="175" class="st1" width="25" height="25"/>
	<rect x="425" y="125" class="st1" width="25" height="25"/>
	<rect x="425" y="200" class="st1" width="25" height="25"/>
	<rect x="325" y="425" class="st1" width="25" height="25"/>
	<rect x="225" y="425" class="st1" width="25" height="25"/>
	<rect x="150" y="425" class="st1" width="25" height="25"/>
	<rect x="425" y="425" class="st1" width="25" height="25"/>
	<rect x="175" y="425" class="st1" width="25" height="25"/>
	<rect x="125" y="425" class="st1" width="25" height="25"/>
	<rect x="75" y="425" class="st1" width="25" height="25"/>
	<rect x="100" y="425" class="st1" width="25" height="25"/>
	<rect x="200" y="425" class="st1" width="25" height="25"/>
	<rect x="375" y="425" class="st1" width="25" height="25"/>
	<rect x="250" y="425" class="st1" width="25" height="25"/>
	<rect x="400" y="425" class="st1" width="25" height="25"/>
	<rect x="350" y="425" class="st1" width="25" height="25"/>
	<rect x="275" y="425" class="st1" width="25" height="25"/>
	<rect x="300" y="425" class="st1" width="25" height="25"/>
	<rect x="50" y="425" class="st1" width="25" height="25"/>
	<rect x="200" y="75" class="st1" width="25" height="25"/>
	<rect x="275" y="75" class="st1" width="25" height="25"/>
	<rect x="250" y="75" class="st1" width="25" height="25"/>
	<rect x="225" y="75" class="st1" width="25" height="25"/>
	<rect x="325" y="75" class="st1" width="25" height="25"/>
	<rect x="350" y="75" class="st1" width="25" height="25"/>
	<rect x="300" y="75" class="st1" width="25" height="25"/>
	<rect x="275" y="375" class="st1" width="25" height="25"/>
	<rect x="75" y="75" class="st1" width="25" height="25"/>
	<rect x="375" y="75" class="st1" width="25" height="25"/>
	<rect x="175" y="75" class="st1" width="25" height="25"/>
	<rect x="75" y="125" class="st1" width="25" height="25"/>
	<rect x="75" y="100" class="st1" width="25" height="25"/>
	<rect x="100" y="75" class="st1" width="25" height="25"/>
	<rect x="150" y="75" class="st1" width="25" height="25"/>
	<rect x="125" y="75" class="st1" width="25" height="25"/>
	<rect x="300" y="375" class="st1" width="25" height="25"/>
	<rect x="375" y="300" class="st1" width="25" height="25"/>
	<rect x="375" y="325" class="st1" width="25" height="25"/>
	<rect x="375" y="375" class="st1" width="25" height="25"/>
	<rect x="375" y="100" class="st1" width="25" height="25"/>
	<rect x="75" y="150" class="st1" width="25" height="25"/>
	<rect x="325" y="375" class="st1" width="25" height="25"/>
	<rect x="350" y="375" class="st1" width="25" height="25"/>
	<rect x="375" y="350" class="st1" width="25" height="25"/>
	<rect x="375" y="175" class="st1" width="25" height="25"/>
	<rect x="375" y="150" class="st1" width="25" height="25"/>
	<rect x="375" y="125" class="st1" width="25" height="25"/>
	<rect x="375" y="275" class="st1" width="25" height="25"/>
	<rect x="375" y="250" class="st1" width="25" height="25"/>
	<rect x="375" y="200" class="st1" width="25" height="25"/>
	<rect x="375" y="225" class="st1" width="25" height="25"/>
	<rect x="400" y="200" class="st1" width="25" height="25"/>
	<rect x="75" y="175" class="st1" width="25" height="25"/>
	<rect x="350" y="400" class="st1" width="25" height="25"/>
	<rect x="250" y="400" class="st1" width="25" height="25"/>
	<rect x="400" y="375" class="st1" width="25" height="25"/>
	<rect x="275" y="400" class="st1" width="25" height="25"/>
	<rect x="300" y="400" class="st1" width="25" height="25"/>
	<rect x="325" y="400" class="st1" width="25" height="25"/>
	<rect x="400" y="400" class="st1" width="25" height="25"/>
	<rect x="400" y="225" class="st1" width="25" height="25"/>
	<rect x="400" y="175" class="st1" width="25" height="25"/>
	<rect x="400" y="250" class="st1" width="25" height="25"/>
	<rect x="400" y="350" class="st1" width="25" height="25"/>
	<rect x="400" y="325" class="st1" width="25" height="25"/>
	<rect x="400" y="300" class="st1" width="25" height="25"/>
	<rect x="400" y="275" class="st1" width="25" height="25"/>
	<rect x="375" y="400" class="st1" width="25" height="25"/>
	<rect x="75" y="300" class="st1" width="25" height="25"/>
	<rect x="75" y="325" class="st1" width="25" height="25"/>
	<rect x="75" y="275" class="st1" width="25" height="25"/>
	<rect x="75" y="225" class="st1" width="25" height="25"/>
	<rect x="75" y="200" class="st1" width="25" height="25"/>
	<rect x="75" y="350" class="st1" width="25" height="25"/>
	<rect x="75" y="250" class="st1" width="25" height="25"/>
	<rect x="200" y="400" class="st1" width="25" height="25"/>
	<rect x="150" y="400" class="st1" width="25" height="25"/>
	<rect x="175" y="400" class="st1" width="25" height="25"/>
	<rect x="225" y="400" class="st1" width="25" height="25"/>
	<rect x="125" y="400" class="st1" width="25" height="25"/>
	<rect x="75" y="375" class="st1" width="25" height="25"/>
	<rect x="75" y="400" class="st1" width="25" height="25"/>
	<rect x="100" y="400" class="st1" width="25" height="25"/>
</g>
<g class="st0">
	<rect x="50" y="50" class="st2" width="400" height="400"/>
	<rect x="50" y="50" class="st2" width="50" height="50"/>
	<rect x="400" y="50" class="st2" width="50" height="50"/>
	<rect x="50" y="400" class="st2" width="50" height="50"/>
	<rect x="400" y="400" class="st2" width="50" height="50"/>
	<rect x="100" y="100" class="st2" width="150" height="150"/>
	<rect x="250" y="100" class="st2" width="150" height="150"/>
	<rect x="100" y="250" class="st2" width="150" height="150"/>
	<rect x="250" y="250" class="st2" width="150" height="150"/>
	<line class="st2" x1="50" y1="50" x2="450" y2="450"/>
	<line class="st2" x1="450" y1="50" x2="50" y2="450"/>
	<circle class="st2" cx="250" cy="250" r="150"/>
	<circle class="st2" cx="250" cy="250" r="200"/>
</g>
<path class="st3" d="M366.7,50.2L133.3,50C115,50,100,65,100,83.4v333.3c0,18.4,14.9,33.3,33.3,33.3h233.3
	c18.4,0,33.3-14.9,33.3-33.3V83.4C400,65,385,50.2,366.7,50.2z M350,124.8c-13.8,0-25-11.2-25-25s11.2-25,25-25s25,11.2,25,25
	S363.8,124.8,350,124.8z"/>
<text transform="matrix(1 0 0 1 212.9998 227.0002)" class="st4 st5 st6">3</text>
<text transform="matrix(1 0 0 1 292.1665 364.667)" class="st4 st5 st7">2</text>
<text transform="matrix(1 0 0 1 144.6665 364.6668)" class="st4 st5 st7">1</text>
<path class="st4" d="M168.4,292.5L168.4,292.5c-2.2-2.2-2.2-5.8,0-8l45.5-45c2.2-2.2,5.8-2.2,8,0v0c2.2,2.2,2.2,5.8,0,8l-45.5,45
	C174.2,294.7,170.6,294.7,168.4,292.5z"/>
<path class="st4" d="M318.4,292.5L318.4,292.5c2.2-2.2,2.2-5.8,0-8l-45.5-45c-2.2-2.2-5.8-2.2-8,0l0,0c-2.2,2.2-2.2,5.8,0,8l45.5,45
	C312.6,294.7,316.2,294.7,318.4,292.5z"/>
</svg>
