<?xml version="1.0" encoding="utf-8"?>
<!-- Generator: Adobe Illustrator 19.0.0, SVG Export Plug-In . SVG Version: 6.00 Build 0)  -->
<svg version="1.1" id="图形" xmlns="http://www.w3.org/2000/svg" xmlns:xlink="http://www.w3.org/1999/xlink" x="0px" y="0px"
	 viewBox="15.167 -16.333 1000.636 1000.678" enable-background="new 15.167 -16.333 1000.636 1000.678" xml:space="preserve">
<g>
	<path fill-rule="evenodd" clip-rule="evenodd" fill="#BC5EAF" d="M284.321,350.438c0,0,25.996-121.296,164.614-129.936
		c138.618-8.64,173.27,86.618,173.27,86.618s77.978-25.995,138.619,34.652c43.318,43.317,34.651,103.965,34.651,103.965
		s95.342,17.331,95.342,112.631c0,95.3-86.659,112.639-86.659,112.639H258.334c0,0-142.955-28.164-121.279-181.936
		C154.369,359.136,284.321,350.438,284.321,350.438L284.321,350.438z"/>
</g>
<g>
	<path fill-rule="evenodd" clip-rule="evenodd" fill="#FFFFFF" d="M472.092,438.646l0.961,0.72h111.488l0.858-0.516
		c1.638-0.984,6.623-3.979,6.623-8.949c0-4.971-4.984-7.965-6.623-8.949l-0.858-0.516H473.054l-0.961,0.72
		c-3.555,2.661-5.358,5.604-5.358,8.745C466.735,433.043,468.537,435.986,472.092,438.646L472.092,438.646z M414.753,394.981
		c11.577,9.014,17.388,13.539,27.679,23.815l0.601,0.601l0.806,0.269c2.345,0.783,4.355,1.164,6.146,1.164
		c3.493,0,5.499-1.501,6.566-2.761c1.941-2.289,2.514-5.634,1.752-10.226l-0.171-1.028l-0.693-0.779
		c-10.372-11.663-17.031-17.112-30.589-26.617l-0.708-0.496l-0.856-0.122c-1.462-0.208-2.811-0.313-4.011-0.313
		c-4.145,0-7.033,1.272-8.581,3.778c-1.746,2.824-1.403,6.581,1.048,11.482l0.366,0.732L414.753,394.981L414.753,394.981z
		 M423.809,466.682v107.631c0,16.984,4.669,25.594,13.876,25.594c1.38,0,2.854-0.22,4.382-0.655l0.281-0.092
		c11.127-4.176,23.768-15.403,38.648-34.323l0.772-0.983v-1.249c0-9.812-6.583-10.575-8.6-10.575c-1.805,0-3.802,0.447-6.106,1.366
		l-0.849,0.339l-0.586,0.703c-15.215,18.258-20.998,21.458-22.697,22.007c-0.094-0.401-0.191-1.072-0.191-2.133V463.252
		c0.679-7.152-0.807-12.798-4.414-16.783c-3.916-4.325-10.21-6.518-18.71-6.518h-21.303l-0.857,0.514
		c-1.641,0.985-6.637,3.979-6.636,8.951c0,4.972,4.995,7.967,6.636,8.951l0.857,0.514h17.4c3.683,0,6.238,0.717,7.389,2.075
		c0.921,1.086,1.176,2.914,0.758,5.432L423.809,466.682L423.809,466.682z"/>
	<path fill-rule="evenodd" clip-rule="evenodd" fill="#FFFFFF" d="M526.27,592.744l1.241,0.516
		c16.005,6.658,32.23,10.034,48.224,10.034h0.107l0.107-0.006c11.789-0.699,21.027-3.772,27.46-9.132
		c6.61-5.508,10.33-13.41,11.055-23.485l0.009-0.129V404.707c0.679-7.152-0.807-12.797-4.414-16.783
		c-3.916-4.325-10.21-6.518-18.71-6.518H473.469l-0.962,0.72c-3.555,2.661-5.358,5.603-5.358,8.745c0,3.142,1.802,6.084,5.358,8.745
		l0.962,0.72h113.976c3.684,0,6.239,0.718,7.389,2.075c0.921,1.086,1.176,2.914,0.758,5.432l-0.049,0.294v160.322
		c0,6.828-2.458,15.904-23.711,15.904c-11.075,0-23.007-3.155-35.466-9.377l-0.761-0.38h-0.851c-5.004,0-8.441,1.454-10.213,4.322
		c-1.926,3.116-1.557,7.241,1.128,12.613L526.27,592.744L526.27,592.744z"/>
	<path fill-rule="evenodd" clip-rule="evenodd" fill="#FFFFFF" d="M568.755,478.321c0.59-6.268-0.727-11.231-3.918-14.754
		c-3.457-3.819-8.981-5.755-16.417-5.755h-45.156c-14.191,0-22.007,7.222-22.007,20.335v40.138
		c0.001,17.815,11.058,20.475,17.648,20.475c0.915,0,1.878-0.048,2.863-0.141h46.49c1.073,0.094,2.116,0.141,3.102,0.141
		c5.877,0,10.389-1.675,13.407-4.98c3.235-3.543,4.577-8.809,3.987-15.654V478.321z M551.535,515.448
		c0.354,2.491,0.146,4.392-0.57,5.218c-0.653,0.752-2.078,0.91-3.158,0.91c-0.664,0-1.41-0.059-2.216-0.175l-0.256-0.037h-40.698
		l-0.297,0.05c-0.64,0.108-1.234,0.163-1.767,0.163c-1.518,0-4.059,0-4.059-6.636v-33.448c0-4.684,1.741-6.424,6.424-6.424h40.137
		c2.958,0,5.067,0.567,5.939,1.596c0.855,1.008,0.762,2.86,0.534,4.237l-0.048,0.294v34.001L551.535,515.448z"/>
</g>
</svg>
