<?xml version="1.0" encoding="utf-8"?>
<!-- Generator: Adobe Illustrator 19.0.0, SVG Export Plug-In . SVG Version: 6.00 Build 0)  -->
<svg version="1.1" id="Layer_1" xmlns="http://www.w3.org/2000/svg" xmlns:xlink="http://www.w3.org/1999/xlink" x="0px" y="0px"
	 viewBox="0 0 500 500" style="enable-background:new 0 0 500 500;" xml:space="preserve">
<style type="text/css">
	.st0{fill:#EA4335;}
	.st1{fill:#FBBC05;}
	.st2{fill:#4285F4;}
	.st3{fill:#FFFFFF;}
	.st4{fill:#34A853;}
</style>
<path class="st0" d="M250,50C139.6,50,50,139.6,50,250s89.6,200,200,200s200-89.6,200-200S360.4,50,250,50z"/>
<path class="st1" d="M240.4,336.5c0,10.6-8.6,19.2-19.2,19.2h-57.7c-10.6,0-19.2-8.6-19.2-19.2v-57.7c0-10.6,8.6-19.2,19.2-19.2
	h57.7c10.6,0,19.2,8.6,19.2,19.2C240.4,278.8,240.4,336.5,240.4,336.5z"/>
<path class="st2" d="M240.4,221.2c0,10.6-8.6,19.2-19.2,19.2h-57.7c-10.6,0-19.2-8.6-19.2-19.2v-57.7c0-10.6,8.6-19.2,19.2-19.2
	h57.7c10.6,0,19.2,8.6,19.2,19.2C240.4,163.5,240.4,221.2,240.4,221.2z"/>
<path class="st3" d="M355.8,336.5c0,10.6-8.6,19.2-19.2,19.2h-57.7c-10.6,0-19.2-8.6-19.2-19.2v-57.7c0-10.6,8.6-19.2,19.2-19.2
	h57.7c10.6,0,19.2,8.6,19.2,19.2V336.5z"/>
<path class="st4" d="M355.8,221.2c0,10.6-8.6,19.2-19.2,19.2h-57.7c-10.6,0-19.2-8.6-19.2-19.2v-57.7c0-10.6,8.6-19.2,19.2-19.2
	h57.7c10.6,0,19.2,8.6,19.2,19.2C355.8,163.5,355.8,221.2,355.8,221.2z"/>
</svg>
