<?xml version="1.0" encoding="utf-8"?>
<!-- Generator: Adobe Illustrator 19.0.0, SVG Export Plug-In . SVG Version: 6.00 Build 0)  -->
<svg version="1.1" id="Layer_1" xmlns="http://www.w3.org/2000/svg" xmlns:xlink="http://www.w3.org/1999/xlink" x="0px" y="0px"
	 viewBox="0 0 500 500" style="enable-background:new 0 0 500 500;" xml:space="preserve">
<style type="text/css">
	.st0{fill:#4285F4;}
	.st1{fill:#FFFFFF;}
</style>
<rect class="st0" width="500" height="500"/>
<g>
	<path class="st1" d="M231.7,158v119.9c0,10-1.6,18.6-4.9,26.1c-3.3,7.4-7.7,13.6-13.4,18.5c-5.6,4.9-12.2,8.6-19.8,11.1
		c-7.6,2.5-15.7,3.7-24.2,3.7c-8.8,0-17-1.2-24.6-3.7c-7.6-2.5-14.2-6.2-19.7-11.1c-5.6-4.9-10-11.1-13.1-18.5
		c-3.2-7.4-4.7-16.1-4.7-26.1V158H122v119.9c0,7.8,1.2,14.6,3.5,20.4c2.3,5.8,5.6,10.7,9.8,14.6c4.2,3.9,9.2,6.8,15,8.8
		c5.8,2,12.1,3,19,3c6.9,0,13.2-1,19-3c5.8-2,10.8-4.9,14.9-8.8c4.2-3.9,7.4-8.7,9.8-14.6c2.3-5.8,3.5-12.6,3.5-20.4V158H231.7z"/>
	<path class="st1" d="M366.2,285.3h-80.3l-18.2,49.6H252L318.9,158h14.2L400,334.8h-15.5L366.2,285.3z M290.5,272.5h70.9l-35.5-96.3
		L290.5,272.5z"/>
</g>
</svg>
