<?xml version="1.0" encoding="utf-8"?>
<!-- Generator: Adobe Illustrator 19.0.0, SVG Export Plug-In . SVG Version: 6.00 Build 0)  -->
<svg version="1.1" id="Layer_1" xmlns="http://www.w3.org/2000/svg" xmlns:xlink="http://www.w3.org/1999/xlink" x="0px" y="0px"
	 viewBox="0 0 500 500" style="enable-background:new 0 0 500 500;" xml:space="preserve">
<style type="text/css">
	.st0{display:none;fill:none;}
	.st1{fill:#34A853;}
	.st2{fill:#4285F4;}
</style>
<g>
	<rect x="50" y="50" class="st0" width="400" height="400"/>
	<g>
		<path class="st1" d="M247.2,326.8c39.8,0,72.1-32.2,72.1-72.1V135.3c0-39.8-32.2-72.1-72.1-72.1s-72.1,32.2-72.1,72.1v119.5
			C176,294.6,207.3,326.8,247.2,326.8z"/>
		<path class="st2" d="M359,202.6c-7.6,0-14.2,6.6-14.2,14.2v38.9c0,54-43.6,97.7-97.7,97.7s-97.7-43.6-97.7-97.7V213
			c0-7.6-6.6-14.2-14.2-14.2c-7.6,0-14.2,6.6-14.2,14.2v42.7c0,64.5,49.3,118.5,111.9,125.2v30.3h-47.4c-7.6,0-14.2,6.6-14.2,14.2
			s6.6,14.2,14.2,14.2h123.3c7.6,0,14.2-6.6,14.2-14.2s-6.6-14.2-14.2-14.2h-47.4v-30.3c62.6-6.6,111.9-60.7,111.9-125.2v-38.9
			C373.3,208.3,366.6,202.6,359,202.6z"/>
	</g>
</g>
</svg>
