<?xml version="1.0" encoding="utf-8"?>
<!-- Generator: Adobe Illustrator 19.0.0, SVG Export Plug-In . SVG Version: 6.00 Build 0)  -->
<svg version="1.1" id="图形" xmlns="http://www.w3.org/2000/svg" xmlns:xlink="http://www.w3.org/1999/xlink" x="0px" y="0px"
	 viewBox="15.167 -16.333 1000.636 1000.678" enable-background="new 15.167 -16.333 1000.636 1000.678" xml:space="preserve">
<g>
	<rect x="15.163" y="-16.333" fill="#849AA5" width="500.339" height="500.339"/>
	<rect x="515.502" y="-16.333" fill="#4C6067" width="500.339" height="500.339"/>
	<rect x="515.502" y="484.006" fill="#E7763E" width="500.297" height="500.339"/>
	<rect x="15.163" y="484.006" fill="#6A8692" width="500.339" height="500.339"/>
	<path fill-rule="evenodd" clip-rule="evenodd" fill="#FFFFFF" d="M357.488,718.344H281.16v-76.319
		c0-8.697-7.125-15.822-15.822-15.822c-8.697,0-15.822,7.125-15.822,15.822v76.319h-76.329c-8.687,0-15.822,7.135-15.822,15.831
		c0,8.697,7.135,15.822,15.822,15.822h76.329v76.329c0,8.697,7.125,15.822,15.822,15.822c8.697,0,15.822-7.125,15.822-15.822
		v-76.319h76.328c8.697,0,15.822-7.125,15.822-15.822C373.31,725.488,366.185,718.344,357.488,718.344L357.488,718.344z"/>
	<g>
		<path fill-rule="evenodd" clip-rule="evenodd" fill="#FFFFFF" d="M857.827,768.898H673.526c-8.697,0-15.831,7.135-15.831,15.832
			c0,8.687,7.134,15.822,15.831,15.822h184.301c8.688,0,15.822-7.135,15.822-15.822
			C873.649,776.033,866.515,768.898,857.827,768.898L857.827,768.898z"/>
		<path fill-rule="evenodd" clip-rule="evenodd" fill="#FFFFFF" d="M857.827,682.082H673.526c-8.697,0-15.831,7.125-15.831,15.822
			c0,8.697,7.134,15.822,15.831,15.822h184.301c8.688,0,15.822-7.125,15.822-15.822
			C873.649,689.207,866.515,682.082,857.827,682.082L857.827,682.082z"/>
	</g>
	<path fill-rule="evenodd" clip-rule="evenodd" fill="#FFFFFF" d="M842.028,169.905c-6.163-6.153-16.241-6.153-22.395,0
		l-53.962,53.953l-53.962-53.953c-6.144-6.153-16.232-6.153-22.386,0c-6.144,6.154-6.144,16.222,0,22.385l53.963,53.963
		l-53.963,53.962c-6.144,6.154-6.144,16.241,0,22.404c6.154,6.154,16.242,6.154,22.386,0l53.962-53.972l53.962,53.972
		c6.154,6.154,16.232,6.154,22.395,0c6.134-6.153,6.134-16.241,0-22.404l-53.972-53.962l53.972-53.963
		C848.162,186.127,848.162,176.059,842.028,169.905L842.028,169.905z"/>
	<g>
		<path fill-rule="evenodd" clip-rule="evenodd" fill="#F9F9F9" d="M357.479,230.421H173.187c-8.697,0-15.831,7.135-15.831,15.841
			c0,8.688,7.134,15.822,15.831,15.822h184.292c8.697,0,15.831-7.134,15.831-15.822C373.31,237.556,366.176,230.421,357.479,230.421
			L357.479,230.421z"/>
		<path display="none" fill-rule="evenodd" clip-rule="evenodd" fill="#F9F9F9" d="M265.338,314.037 M247.992,314.037
			c0,9.58,7.766,17.346,17.346,17.346c9.58,0,17.346-7.766,17.346-17.346s-7.766-17.346-17.346-17.346
			C255.758,296.691,247.992,304.457,247.992,314.037"/>
		<path display="none" fill-rule="evenodd" clip-rule="evenodd" fill="#F9F9F9" d="M265.338,178.488 M247.992,178.488
			c0,9.58,7.766,17.346,17.346,17.346c9.58,0,17.346-7.766,17.346-17.346c0-9.58-7.766-17.346-17.346-17.346
			C255.758,161.142,247.992,168.908,247.992,178.488"/>
	</g>
</g>
</svg>
