<?xml version="1.0" encoding="utf-8"?>
<!-- Generator: Adobe Illustrator 19.0.0, SVG Export Plug-In . SVG Version: 6.00 Build 0)  -->
<svg version="1.1" id="Layer_1" xmlns="http://www.w3.org/2000/svg" xmlns:xlink="http://www.w3.org/1999/xlink" x="0px" y="0px"
	 viewBox="0 0 500 500" style="enable-background:new 0 0 500 500;" xml:space="preserve">
<style type="text/css">
	.st0{fill-rule:evenodd;clip-rule:evenodd;fill:#B9A66D;}
</style>
<g>
	<path class="st0" d="M250.1,50C139.7,50,50.2,139.5,50.2,249.9s89.5,199.9,199.9,199.9S450,360.3,450,249.9S360.5,50,250.1,50
		L250.1,50z M199.3,346.9c0,7.1-5.8,12.8-12.9,12.9H158c-7.1,0-12.8-5.8-12.9-12.9v-28.4c0-7.1,5.8-12.9,12.9-12.9h28.4
		c7.1,0,12.9,5.8,12.9,12.9V346.9L199.3,346.9z M199.3,269.7c0,7.1-5.8,12.8-12.9,12.9H158c-7.1,0-12.8-5.8-12.9-12.9v-28.4
		c0-7.1,5.8-12.9,12.9-12.9h28.4c7.1,0,12.9,5.8,12.9,12.9V269.7L199.3,269.7z M277.2,346.9c0,7.1-5.8,12.8-12.9,12.9h-28.4
		c-7.1,0-12.8-5.8-12.9-12.9v-28.4c0-7.1,5.8-12.9,12.9-12.9h28.4c7.1,0,12.9,5.8,12.9,12.9V346.9L277.2,346.9z M277.2,269.7
		c0,7.1-5.8,12.8-12.9,12.9h-28.4c-7.1,0-12.8-5.8-12.9-12.9v-28.4c0-7.1,5.8-12.9,12.9-12.9h28.4c7.1,0,12.9,5.8,12.9,12.9V269.7
		L277.2,269.7z M355.1,346.9c0,7.1-5.8,12.8-12.9,12.9h-28.4c-7.1,0-12.8-5.8-12.9-12.9v-28.4c0-7.1,5.8-12.9,12.9-12.9h28.4
		c7.1,0,12.9,5.8,12.9,12.9V346.9L355.1,346.9z M355.1,269c0,7.1-5.8,12.8-12.9,12.9h-28.4c-7.1,0-12.8-5.8-12.9-12.9v-28.4
		c0-7.1,5.8-12.9,12.9-12.9h28.4c7.1,0,12.9,5.8,12.9,12.9V269L355.1,269z M355.1,191.2c0,7.1-5.8,12.9-12.9,12.9H158.1
		c-7.1,0-12.9-5.8-12.9-12.9v-28.4c0-7.1,5.8-12.9,12.9-12.9h184.1c7.1,0,12.9,5.8,12.9,12.9L355.1,191.2L355.1,191.2L355.1,191.2z"
		/>
</g>
</svg>
