<?xml version="1.0" encoding="utf-8"?>
<!-- Generator: Adobe Illustrator 19.0.0, SVG Export Plug-In . SVG Version: 6.00 Build 0)  -->
<svg version="1.1" id="Layer_1" xmlns="http://www.w3.org/2000/svg" xmlns:xlink="http://www.w3.org/1999/xlink" x="0px" y="0px"
	 viewBox="0 0 500 500" style="enable-background:new 0 0 500 500;" xml:space="preserve">
<style type="text/css">
	.st0{fill:#4285F4;}
	.st1{fill:#FCFCFC;}
</style>
<rect class="st0" width="500" height="500"/>
<path class="st1" d="M88,249.5c0-34.2,27.8-62,62-62h80v-38h-80c-55.2,0-100,44.8-100,100s44.8,100,100,100h80v-38h-80
	C115.8,311.5,88,283.7,88,249.5z M170,269.5h160v-40H170V269.5z M350,149.5h-80v38h80c34.2,0,62,27.8,62,62s-27.8,62-62,62h-80v38
	h80c55.2,0,100-44.8,100-100S405.2,149.5,350,149.5z"/>
</svg>
