<?xml version="1.0" encoding="utf-8"?>
<!-- Generator: Adobe Illustrator 19.0.0, SVG Export Plug-In . SVG Version: 6.00 Build 0)  -->
<svg version="1.1" id="Layer_1" xmlns="http://www.w3.org/2000/svg" xmlns:xlink="http://www.w3.org/1999/xlink" x="0px" y="0px"
	 viewBox="0 0 500 500" style="enable-background:new 0 0 500 500;" xml:space="preserve">
<style type="text/css">
	.st0{fill-rule:evenodd;clip-rule:evenodd;fill:#009DE0;}
</style>
<g>
	<g>
		<path class="st0" d="M250.4,49.7c-110.6,0-200.2,89.6-200.2,200.2c0,110.5,89.6,200.2,200.2,200.2c110.5,0,200.2-89.6,200.2-200.2
			C450.6,139.3,361,49.7,250.4,49.7L250.4,49.7z M344.5,240.3h-84.6v-84.5c26,0.6,51.2,3.8,75.2,9.3
			C340.7,189.1,343.9,214.3,344.5,240.3L344.5,240.3z M259.9,259.4h84.6c-0.6,26.6-4,52.3-9.7,76.8c-23.9,5.2-49,8.2-74.9,8.8V259.4
			L259.9,259.4L259.9,259.4z M431.7,240.3h-67c-0.6-23.9-3.2-47.2-7.7-69.6c24,7,46.7,16.4,67.6,27.7
			C428.5,211.8,431,225.8,431.7,240.3L431.7,240.3z M413.9,170.9c-19.6-9.1-40.4-16.7-62.1-22.4c-5.7-21.8-13.3-42.6-22.4-62.1
			C366.2,104.2,396.1,134,413.9,170.9L413.9,170.9z M301.8,75.7c11.3,20.9,20.7,43.6,27.7,67.6c-22.4-4.5-45.7-7.2-69.6-7.7V68.7
			c0-0.1,0-0.1,0-0.2C274.4,69.3,288.4,71.7,301.8,75.7L301.8,75.7z M240.9,68.6c0,0.1,0,0.1,0,0.2v66.8
			c-24.6,0.6-48.5,3.3-71.4,8.1c6.6-23.7,15.3-46.2,25.9-66.9C209.8,72.2,225.1,69.4,240.9,68.6L240.9,68.6z M169.2,87.4
			c-8.5,19.3-15.5,39.8-20.9,61.2c-21.5,5.7-42.1,13.2-61.5,22.2C104.4,134.8,133.4,105.4,169.2,87.4L169.2,87.4z M76.2,198.5
			c20.8-11.3,43.3-20.6,67.2-27.6c-4.3,22.4-6.8,45.6-7.3,69.5h-67C69.9,225.8,72.3,211.8,76.2,198.5L76.2,198.5z M69.1,259.4h67
			c0.5,24.5,3.2,48.4,7.7,71.3c-23.6-6.6-45.9-15.3-66.4-25.8C72.8,290.4,69.9,275.2,69.1,259.4L69.1,259.4z M88,331
			c19.1,8.4,39.4,15.4,60.5,20.7c5.3,21.2,12.3,41.4,20.7,60.5C134.2,394.7,105.6,366.1,88,331L88,331z M240.9,431.1
			c-15.8-0.8-31-3.7-45.5-8.3c-10.5-20.6-19.2-42.9-25.8-66.4c22.9,4.5,46.8,7.1,71.3,7.7L240.9,431.1L240.9,431.1L240.9,431.1z
			 M240.9,344.9c-26.4-0.6-52-3.7-76.4-9.1c-5.4-24.4-8.5-50-9.1-76.4h85.5V344.9L240.9,344.9z M155.3,240.3
			c0.6-25.9,3.6-51,8.8-74.9c24.5-5.7,50.2-9,76.8-9.7v84.5H155.3L155.3,240.3z M259.9,431.1v-67c23.9-0.5,47.1-3,69.5-7.3
			c-7,23.9-16.3,46.4-27.6,67.2C288.4,427.9,274.4,430.4,259.9,431.1L259.9,431.1z M329.4,413.3c9-19.4,16.5-39.9,22.2-61.4
			c21.4-5.4,41.9-12.4,61.2-20.9C394.9,366.8,365.5,395.9,329.4,413.3L329.4,413.3z M423.5,304.9c-20.7,10.6-43.1,19.3-66.9,25.9
			c4.7-23,7.5-46.8,8.1-71.4h67C430.9,275.2,428.1,290.4,423.5,304.9L423.5,304.9z"/>
	</g>
</g>
</svg>
