<?xml version="1.0" encoding="utf-8"?>
<!-- Generator: Adobe Illustrator 19.0.0, SVG Export Plug-In . SVG Version: 6.00 Build 0)  -->
<svg version="1.1" id="Layer_1" xmlns="http://www.w3.org/2000/svg" xmlns:xlink="http://www.w3.org/1999/xlink" x="0px" y="0px"
	 viewBox="0 0 500 500" style="enable-background:new 0 0 500 500;" xml:space="preserve">
<style type="text/css">
	.st0{fill:#4285F4;}
	.st1{fill:#FFFFFF;}
</style>
<rect class="st0" width="500" height="500"/>
<path class="st1" d="M173.1,166.7c39.8,0,60,17.1,60,51.7s-20.2,51.9-60.2,51.9h-57.5v76.4H100V166.7H173.1z M115.4,256.6h56.7
	c15.6,0,27-3.3,34.5-9.6c7.1-6.3,10.8-15.9,10.8-28.7s-3.8-22.2-10.8-28.2c-7.6-6.6-19.2-9.8-34.5-9.8h-56.7
	C115.4,180.3,115.4,256.6,115.4,256.6z M259.8,166.7L320,330.2h0.8L381,166.7h17.1l-67.8,179.9h-19.7l-68-179.9H259.8z"/>
</svg>
