<?xml version="1.0" encoding="utf-8"?>
<!-- Generator: Adobe Illustrator 19.0.0, SVG Export Plug-In . SVG Version: 6.00 Build 0)  -->
<svg version="1.1" id="Layer_1" xmlns="http://www.w3.org/2000/svg" xmlns:xlink="http://www.w3.org/1999/xlink" x="0px" y="0px"
	 viewBox="0 0 500 500" style="enable-background:new 0 0 500 500;" xml:space="preserve">
<style type="text/css">
	.st0{fill-rule:evenodd;clip-rule:evenodd;fill:#FF9900;}
	.st1{fill-rule:evenodd;clip-rule:evenodd;fill:#FFFFFF;}
</style>
<g>
	<rect x="0" y="0" class="st0" width="500" height="500"/>
	<g>
		<path class="st1" d="M402.4,215.1c-10.4,0-19.7,4.5-26.2,11.7h-69.5l49.1-49.1c9.6,0.5,19.4-2.9,26.8-10.2
			c13.7-13.7,13.7-36,0-49.7c-13.7-13.7-36-13.7-49.7,0c-7.4,7.4-10.8,17.2-10.2,26.8l-49.1,49.1v-69.5c7.2-6.4,11.7-15.8,11.7-26.2
			c0-19.4-15.7-35.1-35.1-35.1c-19.4,0-35.1,15.7-35.1,35.1c0,10.4,4.5,19.7,11.7,26.2v69.5l-49.1-49.1c0.5-9.6-2.9-19.4-10.2-26.8
			c-13.7-13.7-36-13.7-49.7,0c-13.7,13.7-13.7,36,0,49.7c7.4,7.4,17.2,10.8,26.8,10.2l49.1,49.1h-69.5c-6.4-7.2-15.8-11.7-26.2-11.7
			c-19.4,0-35.1,15.7-35.1,35.1c0,19.4,15.7,35.1,35.1,35.1c10.4,0,19.7-4.5,26.2-11.7h69.5l-49.1,49.1c-9.6-0.5-19.4,2.9-26.8,10.2
			c-13.7,13.7-13.7,36,0,49.7c13.7,13.7,36,13.7,49.7,0c7.4-7.4,10.8-17.2,10.2-26.8l49.1-49.1v69.5c-7.2,6.4-11.7,15.8-11.7,26.2
			c0,19.4,15.7,35.1,35.1,35.1s35.1-15.7,35.1-35.1c0-10.4-4.5-19.7-11.7-26.2v-69.5l49.1,49.1c-0.5,9.6,2.9,19.4,10.2,26.8
			c13.7,13.7,36,13.7,49.7,0c13.7-13.7,13.7-36,0-49.7c-7.4-7.4-17.2-10.8-26.8-10.2l-49.1-49.1h69.5c6.4,7.2,15.8,11.7,26.2,11.7
			c19.4,0,35.1-15.7,35.1-35.1S421.8,215.1,402.4,215.1L402.4,215.1L402.4,215.1z"/>
	</g>
</g>
</svg>
