<?xml version="1.0" encoding="utf-8"?>
<!-- Generator: Adobe Illustrator 19.0.0, SVG Export Plug-In . SVG Version: 6.00 Build 0)  -->
<svg version="1.1" id="Layer_1" xmlns="http://www.w3.org/2000/svg" xmlns:xlink="http://www.w3.org/1999/xlink" x="0px" y="0px"
	 viewBox="0 0 500 500" style="enable-background:new 0 0 500 500;" xml:space="preserve">
<style type="text/css">
	.st0{fill-rule:evenodd;clip-rule:evenodd;fill:#8BC34A;}
</style>
<g>
	<path class="st0" d="M449.9,178.2C449.5,117.8,400.8,68.8,341,68.8c-38,0-71.5,19.8-91,49.7c-19.5-29.9-53-49.7-91-49.7
		c-59.8,0-108.5,49-108.9,109.4c-0.4,6.1-0.7,33.1,17.1,72.9l174.7,0l19.6-73.1l-0.2-1.1l0.5-0.1l0.4-1.4l3.4,0.9l8.9-1.2
		l24.7,138.8l29.7-103l4.9,1.3l11.9-1.6l7.9,46.1l15.3-45.8l4.9,1.3l11.9-1.6l10.8,62.7l22.3,0l-2.4,8.9
		C450.8,225.7,450.4,185.8,449.9,178.2L449.9,178.2z M385.2,287.1l-9.5-54.9l-17.5,52.3l0.1,0.8l-0.4,0.1l-0.5,1.4l-3.4-0.9
		l-8.9,1.2l-9.2-53.2l-31.6,109.8l0.7,3.7l-13.2,1.8L267,209L251,269l-12.9-3.4l0.3-1.1l-164.7,0c23.8,45.8,71.1,105.5,165,169
		c3.2,2.6,7.3,4.1,11.6,4.1c4.9,0,9.4-1.9,12.7-5.2c78.4-53.2,124.1-103.8,150.6-145.7l-24.7,0L385.2,287.1L385.2,287.1z M67,251.1
		l5.2,13.3h1.4c-2.4-4.6-4.5-9-6.4-13.3H67L67,251.1z M415.1,286.6l1.2-4.4c-0.9,1.5-1.8,2.9-2.7,4.4L415.1,286.6L415.1,286.6z"/>
</g>
</svg>
