<?xml version="1.0" encoding="utf-8"?>
<!-- Generator: Adobe Illustrator 19.0.0, SVG Export Plug-In . SVG Version: 6.00 Build 0)  -->
<svg version="1.1" id="图形" xmlns="http://www.w3.org/2000/svg" xmlns:xlink="http://www.w3.org/1999/xlink" x="0px" y="0px"
	 viewBox="15.167 -16.333 1000.636 1000.678" enable-background="new 15.167 -16.333 1000.636 1000.678" xml:space="preserve">
<g>
	<path fill-rule="evenodd" clip-rule="evenodd" fill="#67B7F6" d="M797.01,813.862H593.677c-29.225,0-52.917-23.692-52.917-52.917
		V217.675c0-29.225,23.692-52.917,52.917-52.917H797.01c25.049,0,45.354,20.306,45.354,45.354v558.395
		C842.364,793.556,822.058,813.862,797.01,813.862z"/>
	<path fill-rule="evenodd" clip-rule="evenodd" fill="#279BF4" d="M495.684,809.628H231.238c-25.049,0-45.354-20.306-45.354-45.354
		V205.878c0-25.049,20.306-45.354,45.354-45.354h264.445V809.628z"/>
	<path fill-rule="evenodd" clip-rule="evenodd" fill="#279BF4" d="M730.381,856.363l-234.697-44.96V162.3l237.873-48.711
		c16.11-3.299,30.948,10.584,30.948,28.958v681.514C764.504,844.363,748.218,859.78,730.381,856.363z"/>
	<g>
		<path fill-rule="evenodd" clip-rule="evenodd" fill="#FFFFFF" d="M370.145,561.84c-40.8,0-54.924,15.27-54.924,38.175
			c0,22.905,14.123,38.174,54.924,38.174c40.799,0,54.922-15.269,54.922-38.174C425.067,577.11,410.944,561.84,370.145,561.84
			L370.145,561.84z M668.299,363.337h-31.385c-4.709,0-7.845,3.054-7.845,7.634v38.174h-15.694v-53.444
			c0-4.581-3.136-7.634-7.844-7.634h-31.385c-4.708,0-7.847,3.052-7.847,7.634v38.175h-15.692v-38.175
			c0-4.581-3.138-7.634-7.847-7.634h-31.383c-4.708,0-7.848,3.052-7.848,7.634v38.175h-15.691v-22.905
			c0-4.58-3.139-7.634-7.847-7.634h-31.384c-4.708,0-7.846,3.054-7.846,7.634v38.174h-15.694v-30.54
			c0-22.904-14.123-38.173-54.922-38.173c-40.8,0-54.924,15.269-54.924,38.173V561.84c12.554-10.688,29.815-15.269,54.924-15.269
			c25.107,0,42.37,4.581,54.922,15.269v-15.269h15.693v38.173c0,4.582,3.137,7.636,7.846,7.636h31.385
			c4.707,0,7.846-3.054,7.846-7.636v-53.442h15.692v38.174c0,4.58,3.139,7.634,7.847,7.634h31.383c4.708,0,7.847-3.054,7.847-7.634
			v-38.174h15.692v38.174c0,4.58,3.138,7.634,7.847,7.634h31.385c4.708,0,7.844-3.054,7.844-7.634v-22.905h15.694v38.173
			c0,4.582,3.136,7.636,7.845,7.636h31.385c4.708,0,7.847-3.055,7.847-7.636V370.971
			C676.146,366.391,673.007,363.337,668.299,363.337L668.299,363.337z M440.76,531.302h-15.692V424.416h15.692V531.302
			L440.76,531.302 M503.528,516.032h-15.691V409.145h15.692L503.528,516.032L503.528,516.032 M566.298,516.032h-15.692V409.145
			h15.692V516.032 M629.069,531.302h-15.692V424.416h15.692V531.302L629.069,531.302"/>
	</g>
	<path opacity="0.28" fill-rule="evenodd" clip-rule="evenodd" fill="#0B5282" d="M730.381,855.786l-234.697-44.96V161.722
		l237.873-48.711c16.11-3.299,30.948,10.584,30.948,28.958v681.515C764.504,843.786,748.218,859.202,730.381,855.786z"/>
</g>
</svg>
