<?xml version="1.0" encoding="utf-8"?>
<!-- Generator: Adobe Illustrator 19.0.0, SVG Export Plug-In . SVG Version: 6.00 Build 0)  -->
<svg version="1.1" id="Layer_1" xmlns="http://www.w3.org/2000/svg" xmlns:xlink="http://www.w3.org/1999/xlink" x="0px" y="0px"
	 viewBox="0 0 500 500" style="enable-background:new 0 0 500 500;" xml:space="preserve">
<style type="text/css">
	.st0{fill:#4285F4;}
	.st1{fill:#FFFFFF;}
</style>
<rect class="st0" width="500" height="500"/>
<path class="st1" d="M384.5,177.7h-45L353,119c1.9-8.4-3.3-16.7-11.6-18.6c-8.4-1.9-16.7,3.3-18.6,11.6l0,0l-15.1,65.6h-82
	l13.5-58.6c1.9-8.4-3.3-16.7-11.6-18.6c-8.4-1.9-16.7,3.3-18.6,11.6l0,0l-15.1,65.6h-47.4c-8.6,0-15.5,7-15.5,15.5
	c0,8.6,7,15.5,15.5,15.5l0,0h40.2l-19.1,82.9h-52.2c-8.6,0-15.5,7-15.5,15.5s7,15.5,15.5,15.5h45l-13.5,58.6
	c-1.8,8.4,3.5,16.7,11.9,18.5c8.2,1.8,16.4-3.3,18.4-11.5l15.1-65.6h82l-13.5,58.6c-1.9,8.4,3.3,16.7,11.6,18.6
	c8.4,1.9,16.7-3.3,18.6-11.6l15.1-65.6h47.4c8.6,0,15.5-7,15.5-15.5s-7-15.5-15.5-15.5h-40.2l19.1-82.9h52.2c8.6,0,15.5-7,15.5-15.5
	C400,184.6,393,177.7,384.5,177.7L384.5,177.7z M281.3,291.6h-82l19.1-82.9h82L281.3,291.6z"/>
</svg>
