<?xml version="1.0" encoding="utf-8"?>
<!-- Generator: Adobe Illustrator 19.0.0, SVG Export Plug-In . SVG Version: 6.00 Build 0)  -->
<svg version="1.1" id="图形" xmlns="http://www.w3.org/2000/svg" xmlns:xlink="http://www.w3.org/1999/xlink" x="0px" y="0px"
	 viewBox="15.167 -16.333 1000.636 1000.678" enable-background="new 15.167 -16.333 1000.636 1000.678" xml:space="preserve">
<g id="XMLID_1_">
	<g>
		<path fill="#037DD0" d="M778.498,220.989c66.68,67.54,107.84,160.35,107.84,262.76c0,206.61-167.48,374.09-374.08,374.09
			c-102.41,0-195.22-41.15-262.76-107.83L778.498,220.989z"/>
		<path fill="#037DD0" d="M512.258,109.669c104.19,0,198.42,42.59,266.24,111.32l-529,529.02
			c-68.73-67.82-111.33-162.06-111.33-266.26C138.168,277.149,305.648,109.669,512.258,109.669z"/>
	</g>
	<g>
	</g>
</g>
<path opacity="0.1" d="M886.338,509.481L679.696,302.839l-20,236l-238-236l-26,366l235.985,169.82
	C772.398,791.678,875.885,663.352,886.338,509.481z"/>
<g>
	<path fill="#FFFFFF" d="M680.316,544.901c0,117.46-53.279,176.189-159.831,176.189c-102.085,0-153.126-56.673-153.126-170.021
		v-252.35h53.635v249.937c0,83.133,34.862,124.7,104.586,124.7c67.4,0,101.102-40.227,101.102-120.678V298.719h53.635V544.901z"/>
</g>
</svg>
