<?xml version="1.0" encoding="utf-8"?>
<!-- Generator: Adobe Illustrator 19.0.0, SVG Export Plug-In . SVG Version: 6.00 Build 0)  -->
<svg version="1.1" id="Layer_1" xmlns="http://www.w3.org/2000/svg" xmlns:xlink="http://www.w3.org/1999/xlink" x="0px" y="0px"
	 viewBox="0 0 500 500" style="enable-background:new 0 0 500 500;" xml:space="preserve">
<style type="text/css">
	.st0{fill:#4285F4;}
	.st1{fill:#FFFFFF;}
</style>
<rect class="st0" width="500" height="500"/>
<g>
	<path class="st1" d="M150.1,274.3h-45.4l-10.3,28h-8.9l37.8-100h8l37.8,100h-8.8L150.1,274.3z M107.3,267.1h40.1l-20.1-54.5
		L107.3,267.1z"/>
	<path class="st1" d="M240.6,277.7c0-2.7-0.4-5.2-1.3-7.3s-2.4-4.1-4.5-5.8c-2.1-1.8-4.9-3.4-8.4-4.8c-3.5-1.5-7.8-2.9-13-4.4
		c-5-1.4-9.6-3-13.6-4.6c-4-1.7-7.5-3.6-10.3-5.9c-2.8-2.2-5-4.8-6.5-7.8c-1.5-2.9-2.3-6.4-2.3-10.3c0-3.8,0.8-7.3,2.5-10.5
		c1.6-3.2,4-5.9,6.9-8.1c3-2.3,6.5-4,10.6-5.3c4.1-1.3,8.6-1.9,13.5-1.9c5.3,0,10,0.8,14.3,2.3c4.2,1.6,7.8,3.7,10.8,6.4
		c3,2.7,5.3,5.9,6.9,9.5c1.6,3.6,2.4,7.5,2.4,11.7h-8.5c0-3.3-0.6-6.3-1.7-9c-1.1-2.8-2.8-5.2-5-7.2c-2.2-2-4.9-3.6-8.1-4.7
		c-3.2-1.1-6.9-1.7-11-1.7c-4.1,0-7.7,0.5-10.9,1.5c-3.1,1-5.7,2.3-7.8,4c-2.1,1.7-3.7,3.6-4.7,5.9c-1.1,2.2-1.6,4.6-1.6,7.1
		c0,2.4,0.4,4.6,1.3,6.6c0.9,2,2.4,3.9,4.5,5.6c2.1,1.7,4.9,3.3,8.3,4.8c3.4,1.5,7.7,2.9,12.7,4.2c5.3,1.5,10,3.1,14.1,4.8
		c4.1,1.7,7.6,3.8,10.4,6.1c2.8,2.4,5,5.1,6.5,8.1c1.5,3.1,2.2,6.6,2.2,10.6c0,4.1-0.9,7.7-2.6,11c-1.7,3.2-4.1,6-7.1,8.2
		c-3,2.2-6.7,4-10.9,5.2c-4.2,1.2-8.8,1.8-13.7,1.8c-3,0-6-0.3-9-0.8c-3-0.5-5.9-1.3-8.7-2.3c-2.8-1-5.4-2.3-7.8-3.9
		c-2.4-1.6-4.5-3.5-6.2-5.7c-1.8-2.2-3.2-4.8-4.2-7.6c-1-2.9-1.5-6.1-1.5-9.6h8.4c0,4.2,0.9,7.8,2.6,10.7c1.7,2.9,4,5.3,6.7,7
		c2.7,1.8,5.8,3.1,9.3,3.9c3.4,0.8,6.9,1.2,10.3,1.2c3.9,0,7.4-0.4,10.6-1.3c3.2-0.9,5.9-2.2,8.2-3.8c2.3-1.6,4-3.6,5.2-5.9
		C240,283.2,240.6,280.6,240.6,277.7z"/>
	<path class="st1" d="M338.1,271.2c-0.5,5.1-1.7,9.6-3.6,13.7c-1.8,4-4.3,7.4-7.4,10.2c-3.1,2.8-6.8,4.9-11.1,6.4
		c-4.3,1.5-9.2,2.2-14.7,2.2c-5.7,0-10.8-1.1-15.5-3.2c-4.6-2.2-8.6-5.2-11.9-9.2s-5.8-8.7-7.6-14.3c-1.8-5.5-2.7-11.7-2.7-18.4
		v-12.6c0-6.7,0.9-12.9,2.7-18.4c1.8-5.6,4.3-10.3,7.7-14.3c3.3-3.9,7.3-7,12.1-9.2c4.7-2.2,10-3.3,15.9-3.3
		c5.3,0,10.1,0.7,14.4,2.2c4.3,1.5,7.9,3.6,11,6.4c3,2.8,5.5,6.2,7.3,10.3c1.9,4.1,3,8.6,3.5,13.8h-8.5c-0.5-4-1.4-7.6-2.7-10.8
		c-1.3-3.2-3.1-5.8-5.4-8c-2.3-2.2-5-3.8-8.2-4.9c-3.2-1.1-7-1.7-11.3-1.7c-4.7,0-8.8,0.9-12.5,2.7c-3.7,1.8-6.8,4.4-9.3,7.7
		c-2.6,3.3-4.5,7.3-5.9,11.9c-1.4,4.6-2,9.8-2,15.5v12.7c0,5.5,0.6,10.6,1.9,15.2c1.3,4.6,3.2,8.7,5.6,12c2.5,3.4,5.5,6,9.1,7.9
		c3.6,1.9,7.8,2.8,12.4,2.8c8.8,0,15.5-2.1,20-6.4c4.5-4.2,7.3-10.6,8.3-19.1H338.1z"/>
	<path class="st1" d="M368.9,302.3h-8.4v-100h8.4V302.3z"/>
	<path class="st1" d="M406.3,302.3h-8.4v-100h8.4V302.3z"/>
</g>
</svg>
