<?xml version="1.0" encoding="utf-8"?>
<!-- Generator: Adobe Illustrator 19.0.0, SVG Export Plug-In . SVG Version: 6.00 Build 0)  -->
<svg version="1.1" id="图形" xmlns="http://www.w3.org/2000/svg" xmlns:xlink="http://www.w3.org/1999/xlink" x="0px" y="0px"
	 viewBox="15.167 -16.333 1000.636 1000.678" enable-background="new 15.167 -16.333 1000.636 1000.678" xml:space="preserve">
<rect x="15.167" y="-16.333" fill-rule="evenodd" clip-rule="evenodd" fill="#FFFFFF" width="1000.636" height="1000.678"/>
<g>
	<path fill-rule="evenodd" clip-rule="evenodd" fill="#03A9F4" d="M847.088,105.406h-83.46c-25.038,0-41.73,16.692-41.73,41.73
		h-20.865c-108.498,0-208.65,33.384-292.11,91.807c-4.173-4.174-12.519-8.347-20.865-8.347h-83.461
		c-25.037,0-41.73,16.692-41.73,41.73v83.461c0,8.346,4.173,16.692,8.347,20.865c-58.422,83.46-91.806,183.612-91.806,292.11v20.865
		c-25.038,0-41.73,16.692-41.73,41.73v83.46c0,25.038,16.692,41.73,41.73,41.73h83.46c25.038,0,41.73-16.692,41.73-41.73v-83.46
		c0-25.038-16.692-41.73-41.73-41.73h-41.73c-4.173-104.325,25.038-208.65,83.46-292.11h83.461c25.037,0,41.73-16.692,41.73-41.73
		v-83.461c25.037-16.692,54.249-33.383,83.46-45.903c66.768-29.211,137.709-41.73,208.65-37.557v41.73
		c0,25.038,16.692,41.73,41.73,41.73h83.46c25.038,0,41.73-16.692,41.73-41.73v-83.46
		C888.818,122.097,872.126,105.406,847.088,105.406L847.088,105.406z M262.868,731.356v83.46h-83.46v-83.46H262.868L262.868,731.356
		z M388.058,355.786h-83.461v-83.461h83.461V355.786L388.058,355.786z M847.088,230.596h-83.46v-83.46h83.46V230.596
		L847.088,230.596z"/>
</g>
</svg>
