<?xml version="1.0" encoding="utf-8"?>
<!-- Generator: Adobe Illustrator 19.0.0, SVG Export Plug-In . SVG Version: 6.00 Build 0)  -->
<svg version="1.1" id="图形" xmlns="http://www.w3.org/2000/svg" xmlns:xlink="http://www.w3.org/1999/xlink" x="0px" y="0px"
	 viewBox="15.167 -16.333 1000.636 1000.678" enable-background="new 15.167 -16.333 1000.636 1000.678" xml:space="preserve">
<rect x="15.167" y="-16.333" display="none" fill-rule="evenodd" clip-rule="evenodd" fill="#03C7DF" width="1000.636" height="1000.678"/>
<image display="none" overflow="visible" width="144" height="144" xlink:href="AE018653.png"  transform="matrix(6.9489 0 0 6.9492 15.1667 -16.3331)">
</image>
<circle display="none" fill="none" stroke="#000000" cx="515.506" cy="484.006" r="500.339"/>
<g>
	<path fill-rule="evenodd" clip-rule="evenodd" fill="#5B5144" d="M857.941,377.842V269.146c0-0.629-0.157-1.211-0.185-1.832v-4.252
		h-0.428c-2.979-20.766-20.664-36.784-42.252-36.784h-596.31c-21.591,0-39.276,16.018-42.255,36.784h-0.613v154.249h0.185v30.748
		c-0.028,0.621-0.185,1.207-0.185,1.832v234.571c0,0.628,0.157,1.21,0.185,1.832v4.248h0.428
		c2.979,20.767,20.664,36.785,42.251,36.785h596.305c21.592,0,39.277-16.018,42.256-36.785h0.613V410.426h-0.185v-30.748
		C857.783,379.057,857.941,378.47,857.941,377.842L857.941,377.842z"/>
	<path fill-rule="evenodd" clip-rule="evenodd" fill="#3ACDAD" d="M815.315,401.446v-95.111c0-0.55-0.137-1.061-0.16-1.603v-3.718
		h-0.374c-2.605-18.172-18.081-32.187-36.974-32.187H256.035c-18.892,0-34.368,14.014-36.973,32.187h-0.535v134.969h0.161v26.905
		c-0.023,0.543-0.161,1.054-0.161,1.604V669.74c0,0.551,0.138,1.061,0.161,1.603v3.718h0.374
		c2.605,18.172,18.081,32.188,36.973,32.188h521.772c18.892,0,34.369-14.015,36.974-32.188h0.539V429.954h-0.161v-26.905
		C815.178,402.506,815.315,401.996,815.315,401.446L815.315,401.446z"/>
	<path fill-rule="evenodd" clip-rule="evenodd" fill="#FBE289" d="M888.386,708.274c-0.064-18.057-14.719-32.661-32.776-32.663
		H169.759c-18.066,0-32.706,14.616-32.776,32.663H888.386L888.386,708.274z"/>
	<path fill-rule="evenodd" clip-rule="evenodd" fill="#FFFFFF" d="M381.37,676.917c-0.012-18.051-2.228-32.663-4.96-32.663H272.599
		c-2.735,0-4.952,14.616-4.96,32.663H381.37L381.37,676.917z"/>
	<path fill-rule="evenodd" clip-rule="evenodd" fill="#EDDBC3" d="M888.386,707.358c-0.064,18.056-14.719,32.661-32.776,32.663
		H169.759c-18.066,0-32.706-14.616-32.776-32.663H888.386L888.386,707.358z"/>
	<path fill-rule="evenodd" clip-rule="evenodd" fill="#FFFFFF" d="M442.621,543.85H413v-99.528h-11.432v-19.56
		c3.737,0,7.251-1.804,10.536-5.415c3.285-3.62,4.928-7.294,4.928-11.044h25.593V543.85H442.621L442.621,543.85z M551.25,475.511
		h-26.335v26.335h-15.497v-26.335h-26.327v-15.484h26.327v-26.336h15.497v26.336h26.335V475.511L551.25,475.511z M631.018,543.85
		h-29.621v-99.528h-11.432v-19.56c3.737,0,7.251-1.804,10.536-5.415c3.285-3.62,4.929-7.294,4.929-11.044h25.592V543.85H631.018
		L631.018,543.85z"/>
</g>
</svg>
