<?xml version="1.0" encoding="utf-8"?>
<!-- Generator: Adobe Illustrator 19.0.0, SVG Export Plug-In . SVG Version: 6.00 Build 0)  -->
<svg version="1.1" id="图形" xmlns="http://www.w3.org/2000/svg" xmlns:xlink="http://www.w3.org/1999/xlink" x="0px" y="0px"
	 viewBox="15.167 -16.333 1000.636 1000.678" enable-background="new 15.167 -16.333 1000.636 1000.678" xml:space="preserve">
<linearGradient id="SVGID_1_" gradientUnits="userSpaceOnUse" x1="515.4848" y1="-11.1609" x2="515.4848" y2="982.8472">
	<stop  offset="0" style="stop-color:#A95DFE"/>
	<stop  offset="1" style="stop-color:#8B48DD"/>
</linearGradient>
<rect x="15.167" y="-16.333" fill-rule="evenodd" clip-rule="evenodd" fill="url(#SVGID_1_)" width="1000.636" height="1000.678"/>
<g>
	<path fill-rule="evenodd" clip-rule="evenodd" fill="#FFFFFF" stroke="#5215A0" stroke-miterlimit="10" d="M471.867,707.206
		c-3.723,3.723-11.168,7.446-18.614,11.168c-7.445,3.723-14.891,3.723-22.337,3.723c-18.614,0-33.505-7.445-40.95-18.614
		c-11.169-11.168-14.892-26.059-14.892-44.673H341.57c0,14.891,0,26.059,7.446,37.228c3.723,11.168,11.168,22.336,18.614,29.782
		c7.445,7.446,18.614,14.891,29.782,18.614c11.169,3.723,22.337,7.446,37.228,7.446c11.169,0,26.06,0,37.228-3.723
		c11.169-3.723,22.337-7.446,29.783-14.891c7.445-7.446,14.891-14.892,18.614-26.06c3.722-11.168,7.445-22.337,7.445-37.228
		s-3.723-29.782-11.168-44.674c-7.446-11.168-18.614-18.614-37.228-22.336l0,0c11.168-3.723,18.614-11.169,26.059-22.337
		c7.446-11.169,11.169-22.337,11.169-33.505c0-11.169-3.723-22.337-7.446-33.506c-3.723-11.168-11.168-18.614-18.614-22.336
		c-7.445-7.446-14.891-11.169-26.059-14.892c-11.169-3.722-22.337-3.722-33.506-3.722c-14.891,0-26.059,3.722-33.505,7.445
		c-11.168,3.723-18.614,11.169-26.059,18.614c-7.446,7.446-11.169,18.614-14.892,29.783c-7.445,3.722-11.168,14.891-11.168,29.782
		h33.505c0-7.446,0-14.891,3.723-22.337c0-7.445,3.723-14.891,7.446-18.614c3.722-3.723,11.168-11.168,14.891-11.168
		c7.445-3.723,14.891-3.723,22.337-3.723c14.891,0,26.059,3.723,33.505,11.168c7.445,7.446,14.891,18.614,14.891,33.506
		c0,7.445,0,14.891-3.723,18.614c-3.723,7.445-7.445,11.168-11.168,14.891c-3.723,3.723-11.169,7.445-14.891,7.445
		c-7.446,3.723-11.169,3.723-18.614,3.723h-7.446h-3.723h-3.723v29.783c7.446,0,11.169,0,18.614,0c7.446,0,14.892,0,22.337,3.722
		c7.446,3.723,11.169,3.723,18.614,11.169c3.723,3.723,7.446,11.168,11.169,14.891c3.722,7.446,3.722,14.891,3.722,22.337
		c0,7.445,0,14.891-3.722,22.337C479.313,696.038,475.59,699.76,471.867,707.206L471.867,707.206z"/>
	<path fill-rule="evenodd" clip-rule="evenodd" fill="#FFFFFF" stroke="#5215A0" stroke-miterlimit="10" d="M821.807,178.572
		h-67.009v-52.119c0-11.168-7.446-18.614-18.614-18.614c-11.168,0-18.614,11.169-18.614,18.614v52.119H308.065v-52.119
		c0-7.445-7.446-14.891-18.614-14.891c-7.446,0-14.891,7.446-14.891,14.891v52.119h-70.732c-37.228,0-67.01,29.783-67.01,67.011
		v104.237v33.505v409.505c0,37.228,29.783,67.01,67.01,67.01h617.979c37.228,0,67.011-29.783,67.011-67.01V383.324v-33.505V249.305
		C888.818,208.354,859.035,178.572,821.807,178.572L821.807,178.572z M855.313,796.552c0,18.614-14.892,33.505-33.506,33.505
		H203.828c-18.614,0-33.506-14.891-33.506-33.505V387.047h684.991V796.552L855.313,796.552z M855.313,349.819H170.322V249.305
		c0-18.614,14.892-33.506,33.506-33.506h67.009v52.12c0,11.168,7.446,18.614,18.614,18.614
		c11.168-3.723,18.614-11.169,18.614-22.337v-52.119H717.57v52.119c0,11.168,7.446,18.614,18.614,18.614
		c11.168,0,18.614-7.446,18.614-18.614v-52.119h67.009c18.614,0,33.506,14.891,33.506,33.505V349.819L855.313,349.819z"/>
	<path fill-rule="evenodd" clip-rule="evenodd" fill="#FFFFFF" stroke="#5215A0" stroke-miterlimit="10" d="M631.947,744.433h33.505
		V468.948h-26.06c0,11.168-3.723,18.614-11.168,26.059c-3.723,7.446-11.169,11.169-18.614,14.892
		c-7.446,3.722-14.891,7.445-22.337,7.445c-7.446,0-18.614,3.723-26.06,3.723v26.06h70.734V744.433L631.947,744.433z"/>
</g>
</svg>
