<?xml version="1.0" encoding="utf-8"?>
<!-- Generator: Adobe Illustrator 19.0.0, SVG Export Plug-In . SVG Version: 6.00 Build 0)  -->
<svg version="1.1" id="Layer_1" xmlns="http://www.w3.org/2000/svg" xmlns:xlink="http://www.w3.org/1999/xlink" x="0px" y="0px"
	 viewBox="0 0 500 500" style="enable-background:new 0 0 500 500;" xml:space="preserve">
<style type="text/css">
	.st0{fill:#4285F4;}
	.st1{fill:#34A853;}
	.st2{fill:#EA4335;}
</style>
<path class="st0" d="M413.6,50H86.4C66.3,50,50,62,50,76.8v133.9c0,14.8,16.3,26.8,36.4,26.8h327.3c20.1,0,36.4-12,36.4-26.8V76.8
	C450,62,433.7,50,413.6,50z M198.6,177.7c15.6,0,15.8-12.1,16-14.5h16.7c-0.5,5.7-3.5,28.2-32.7,28.2c-9.9,0-33.5-4.9-33.5-39v-5.4
	c0-13.4,5.4-39.1,33.8-39.1c29.4,0,32.2,24.6,32.6,28.7h-16.7c-0.2-2.4,0.2-15-15.8-15c-15.7,0-16.8,16.6-16.8,25.3v5.5
	C182,178,194.2,177.7,198.6,177.7z M271.5,190c-1.4,0.4-4.8,1.5-9.8,1.5c-17.9,0-17.3-15.2-17.3-17.8v-31.9h-8.8v-11.8h8.8v-14.8
	h16.1v14.9h10.4v11.8h-10.4v30.1c0,4.1,1,6.2,6.3,6.2c0.9,0,4.1-0.3,4.7-0.4V190z M313.8,145c-1.9-0.2-3.9-0.4-5.8-0.4
	c-8.8,0-11.1,4.2-12,6.2v39.5h-16.1v-60.4h15.2l0.5,7.2c1.5-2.6,5.5-8.3,13.4-8.3c1.4,0,4.5,0.6,5,0.7L313.8,145z M338.5,190.3
	h-16.2v-85.7h16.2V190.3z"/>
<path class="st1" d="M210.6,262.5H77.1c-18.1,0-27.1,9-27.1,26.9v133.6C50,441,59,450,77.1,450h133.6c17.9,0,26.9-9,26.9-27.1V289.4
	C237.5,271.5,228.5,262.5,210.6,262.5z M172.5,402.5c-8.6,7.6-19.7,11.5-33.3,11.5c-15.7,0-28.1-4.9-37.3-14.8
	c-9.6-10.5-14.4-25.3-14.4-44.4c0-19,5-33.9,15-44.6c9.3-10,21.6-15,36.9-15c15.4,0,27.7,4.6,36.9,13.7c7.9,7.8,11.9,16.5,11.9,26.2
	h-23.5c-1.5-5.7-3.5-9.8-5.8-12.3c-4.3-4.9-10.7-7.3-19.2-7.3c-7.2,0-13.3,2.6-18.3,7.7c-6.5,6.8-9.8,17.4-9.8,31.7
	c0,11.1,2.2,20.1,6.5,26.9c5,7.8,12.2,11.7,21.7,11.7c6.5,0,11.9-1.8,16.3-5.4c4.3-3.6,7.2-8.8,8.7-15.6h23.5
	C185.6,385.3,180.4,395.3,172.5,402.5z"/>
<path class="st2" d="M422.3,261.5H288.7c-18.1,0-27.1,9-27.1,26.9v133.6c0,18.1,9,27.1,27.1,27.1h133.6c17.9,0,26.9-9,26.9-27.1
	V288.4C449.2,270.5,440.2,261.5,422.3,261.5z M370.4,413.9h-26.6l-44.1-111.6h27l31.2,82.6l30.2-82.6h26.4L370.4,413.9z"/>
</svg>
