<?xml version="1.0" encoding="utf-8"?>
<!-- Generator: Adobe Illustrator 19.0.0, SVG Export Plug-In . SVG Version: 6.00 Build 0)  -->
<svg version="1.1" id="Layer_1" xmlns="http://www.w3.org/2000/svg" xmlns:xlink="http://www.w3.org/1999/xlink" x="0px" y="0px"
	 viewBox="0 0 500 500" style="enable-background:new 0 0 500 500;" xml:space="preserve">
<style type="text/css">
	.st0{fill:#335DC8;}
</style>
<path class="st0" d="M250,50C139.5,50,50,139.5,50,250s89.5,200,200,200s200-89.5,200-200S360.5,50,250,50z M247.8,140.9
	c29.5,0,53.4,23.9,53.4,53.4c0,29.6-23.9,53.4-53.4,53.4s-53.4-23.9-53.4-53.4C194.3,164.9,218.3,140.9,247.8,140.9z M354.6,354.6
	H140.9v-17.8c0-35.6,71.2-55.2,106.8-55.2s106.8,19.6,106.8,55.2V354.6z"/>
</svg>
