<?xml version="1.0" encoding="utf-8"?>
<!-- Generator: Adobe Illustrator 19.0.0, SVG Export Plug-In . SVG Version: 6.00 Build 0)  -->
<svg version="1.1" id="Layer_1" xmlns="http://www.w3.org/2000/svg" xmlns:xlink="http://www.w3.org/1999/xlink" x="0px" y="0px"
	 viewBox="0 0 500 500" style="enable-background:new 0 0 500 500;" xml:space="preserve">
<style type="text/css">
	.st0{fill-rule:evenodd;clip-rule:evenodd;fill:#42BD41;}
	.st1{opacity:0.1;fill-rule:evenodd;clip-rule:evenodd;}
	.st2{fill:#FCFCFC;}
</style>
<g>
	<ellipse class="st0" cx="249.7" cy="250.2" rx="200.3" ry="199.2"/>
	<path class="st1" d="M385.8,392.1L251.6,258.3h-84.8l152.8,176.3C323,436.4,373.3,414.4,385.8,392.1z"/>
	<path class="st1" d="M320.7,173.9l-35.3,26.7l39.5,49.7l-4.3,61.4l74.8,78c26.1-30.4,38.3-57.8,52.3-97.6L320.7,173.9z"/>
	<g>
		<path class="st2" d="M248.6,256h-38.6v38.4h-13.4V256h-38.4v-13.6h38.4V204h13.4v38.4h38.6V256z"/>
		<path class="st2" d="M321.2,306.3V188.8c-2.7,2.7-7.3,5.8-13.8,9.1c-6.5,3.4-12.5,5.7-18,7.1v-17c7.3-2,15-5.2,23.3-9.6
			c8.3-4.4,14.6-8.6,19.1-12.5h6.6v140.4H321.2z"/>
	</g>
</g>
</svg>
