<?xml version="1.0" encoding="utf-8"?>
<!-- Generator: Adobe Illustrator 19.0.0, SVG Export Plug-In . SVG Version: 6.00 Build 0)  -->
<svg version="1.1" id="Layer_1" xmlns="http://www.w3.org/2000/svg" xmlns:xlink="http://www.w3.org/1999/xlink" x="0px" y="0px"
	 viewBox="0 0 500 500" style="enable-background:new 0 0 500 500;" xml:space="preserve">
<style type="text/css">
	.st0{fill:#4285F4;}
</style>
<path class="st0" d="M307.3,50H193v38.1h114.3V50z M231.1,297.6h38.1V183.3h-38.1V297.6z M383.9,171.6l27.1-27.1
	c-8.2-9.8-17.1-18.8-27-27L357,144.7c-29.2-23.4-66.5-37.5-107-37.5c-94.8,0-171.3,76.8-171.3,171.4S155.3,450,250,450
	s171.5-76.8,171.5-171.4C421.5,238.1,407.5,201,383.9,171.6z M250.1,411.9c-73.6,0-133.3-59.7-133.3-133.3s59.7-133.3,133.3-133.3
	S383.5,205,383.5,278.6S323.7,411.9,250.1,411.9z"/>
</svg>
