<?xml version="1.0" encoding="utf-8"?>
<!-- Generator: Adobe Illustrator 19.0.0, SVG Export Plug-In . SVG Version: 6.00 Build 0)  -->
<svg version="1.1" id="Layer_1" xmlns="http://www.w3.org/2000/svg" xmlns:xlink="http://www.w3.org/1999/xlink" x="0px" y="0px"
	 viewBox="0 0 500 500" style="enable-background:new 0 0 500 500;" xml:space="preserve">
<style type="text/css">
	.st0{fill:#FBBC05;}
</style>
<path class="st0" d="M389.4,123.1H262v-11.6c0-6.4-5.2-11.6-11.6-11.6c-6.4,0-11.6,5.2-11.6,11.6v11.6l-127.3,0
	c-6.4,0-11.6,5.2-11.6,11.6v11.6v173.6v11.6c0,6.4,5.2,11.6,11.6,11.6h53.1L115,392.7c-4.5,4.5-4.5,11.8,0,16.4
	c2.3,2.3,5.2,3.4,8.2,3.4s5.9-1.1,8.2-3.4l66.1-66.1h106.2l66.1,66.1c2.3,2.3,5.2,3.4,8.2,3.4c3,0,5.9-1.1,8.2-3.4
	c4.5-4.5,4.5-11.8,0-16.4l-49.7-49.7h53.1c6.4,0,11.6-5.2,11.6-11.6v-11.6V146.3v-11.6C400.9,128.3,395.7,123.1,389.4,123.1z
	 M123.1,319.9V146.3h254.6v173.6H123.1z"/>
<g>
	<rect x="202.7" y="212.7" class="st0" width="20.4" height="71.5"/>
	<rect x="243.6" y="182" class="st0" width="20.4" height="102.2"/>
	<rect x="284.5" y="243.3" class="st0" width="20.4" height="40.9"/>
</g>
</svg>
