<?xml version="1.0" encoding="utf-8"?>
<!-- Generator: Adobe Illustrator 19.0.0, SVG Export Plug-In . SVG Version: 6.00 Build 0)  -->
<svg version="1.1" id="Layer_1" xmlns="http://www.w3.org/2000/svg" xmlns:xlink="http://www.w3.org/1999/xlink" x="0px" y="0px"
	 viewBox="0 0 500 500" style="enable-background:new 0 0 500 500;" xml:space="preserve">
<style type="text/css">
	.st0{fill:#34A853;}
	.st1{fill:#4285F4;}
</style>
<path class="st0" d="M382.4,266.1H116.6c-9.1,0-16.6,7.5-16.6,16.6v99.7c0,9.1,7.5,16.6,16.6,16.6h265.8c9.1,0,16.6-7.5,16.6-16.6
	v-99.7C399,273.6,391.5,266.1,382.4,266.1z M166.4,365.8c-18.4,0-33.2-14.9-33.2-33.2s14.9-33.2,33.2-33.2s33.2,14.9,33.2,33.2
	S184.8,365.8,166.4,365.8z"/>
<path class="st1" d="M382.4,100H116.6c-9.1,0-16.6,7.5-16.6,16.6v99.7c0,9.1,7.5,16.6,16.6,16.6h265.8c9.1,0,16.6-7.5,16.6-16.6
	v-99.7C399,107.5,391.5,100,382.4,100z M166.4,199.7c-18.4,0-33.2-14.9-33.2-33.2c0-18.4,14.9-33.2,33.2-33.2s33.2,14.9,33.2,33.2
	C199.7,184.8,184.8,199.7,166.4,199.7z"/>
</svg>
