<?xml version="1.0" encoding="utf-8"?>
<!-- Generator: Adobe Illustrator 19.0.0, SVG Export Plug-In . SVG Version: 6.00 Build 0)  -->
<svg version="1.1" id="Layer_1" xmlns="http://www.w3.org/2000/svg" xmlns:xlink="http://www.w3.org/1999/xlink" x="0px" y="0px"
	 viewBox="0 0 500 500" style="enable-background:new 0 0 500 500;" xml:space="preserve">
<style type="text/css">
	.st0{fill:#3C8CEA;}
	.st1{fill:#2D6FE4;}
	.st2{fill:#FFFFFF;}
	.st3{fill:none;}
</style>
<path class="st0" d="M298.8,50H127.3c-15,0-27.3,12.3-27.3,27.3v201.3v87v57.1c0,15,12.3,27.3,27.3,27.3h245.4
	c15,0,27.3-12.3,27.3-27.3v-57.1v-79.9V158.8L298.8,50z"/>
<path class="st1" d="M400,159.3v5.4h-68.6c0,0-34.3-7-33.2-35.9c0,0,1.1,30.5,32.1,30.5H400z"/>
<path class="st2" d="M298.8,50v78.2c0,8.6,5.9,31.1,32.7,31.1H400L298.8,50z"/>
<line class="st3" x1="63" y1="204.3" x2="441" y2="204.3"/>
<g>
	<path class="st2" d="M307.5,254.2h-111c-2,0-4-2-4-4l0,0c0-4,2-5.9,4-5.9h109c4,0,5.9,2,5.9,5.9l0,0
		C311.4,252.2,309.5,254.2,307.5,254.2z"/>
	<path class="st2" d="M307.5,299.8h-111c-2,0-4-4-4-5.9l0,0c0-2,2-4,4-4h109c2,0,4,2,4,4l0,0C311.4,295.8,309.5,299.8,307.5,299.8z"
		/>
	<path class="st2" d="M248,343.4h-51.5c-2,0-4-2-4-5.9l0,0c0-2,2-4,4-4h49.5c2,0,4,2,4,4l0,0C252,341.4,250,343.4,248,343.4z"/>
</g>
</svg>
