<?xml version="1.0" encoding="utf-8"?>
<!-- Generator: Adobe Illustrator 19.0.0, SVG Export Plug-In . SVG Version: 6.00 Build 0)  -->
<svg version="1.1" id="图形" xmlns="http://www.w3.org/2000/svg" xmlns:xlink="http://www.w3.org/1999/xlink" x="0px" y="0px"
	 viewBox="15.167 -16.333 1000.636 1000.678" enable-background="new 15.167 -16.333 1000.636 1000.678" xml:space="preserve">
<image display="none" overflow="visible" width="144" height="144" xlink:href="C42217C5.png"  transform="matrix(6.9489 0 0 6.9492 15.1667 -16.3331)">
</image>
<circle display="none" fill="none" stroke="#000000" cx="515.506" cy="484.006" r="500.339"/>
<rect x="15.167" y="-16.333" fill="#3EC4D2" width="1000.636" height="1000.678"/>
<rect x="15.167" y="-16.333" fill="#3BBCCB" width="1000.636" height="500.339"/>
<g>
	<path fill="#FFFFFF" d="M411.671,166.438l-58.079,87.432l57.294,86.176h-35.789l-33.121-55.253
		c-1.781-2.928-4.292-7.429-7.535-13.499h-0.628c-0.105,0.628-2.722,5.128-7.848,13.499l-33.749,55.253h-35.318l59.021-85.234
		l-56.352-88.374h35.789l32.493,58.079c1.987,3.559,4.395,8.162,7.221,13.813h0.628l42.225-71.892H411.671z"/>
</g>
<g>
	<path fill="#FFFFFF" d="M636.35,247.429H471.846v-33.278H636.35V247.429z M636.35,320.891H471.846v-33.277H636.35V320.891z"/>
</g>
<g>
	<path fill="#FFFFFF" d="M643.327,652.464H483.374v-23.703h159.952V652.464z M643.327,724.984H483.374v-23.702h159.952V724.984z"/>
</g>
<g>
	<path fill="#FFFFFF" d="M768.95,359.054V168.435c-4.58,4.413-12.321,9.351-23.225,14.818c-10.902,5.467-20.984,9.304-30.244,11.509
		V167.14c12.247-3.259,25.339-8.463,39.28-15.609c13.939-7.144,24.644-13.883,32.111-20.213h11.053v227.736H768.95z"/>
</g>
<g>
	<path fill="#FFFFFF" d="M421.56,559.315L342.762,725.77c-14.652,30.858-35.318,46.288-62.003,46.288
		c-7.64,0-14.181-0.699-19.621-2.093v-22.49c5.965,1.917,11.719,2.877,17.267,2.877c13.917,0,24.331-6.8,31.237-20.398
		l13.343-26.282l-68.125-144.356h34.063l45.364,108.66l3.767,11.898h0.785c0.627-2.701,1.883-6.581,3.767-11.638l47.405-108.921
		H421.56z"/>
</g>
<g>
	<path fill="#FFFFFF" d="M808.241,607.542c0-11.042-3.534-19.721-10.598-26.038c-7.065-6.314-16.679-9.474-28.84-9.474
		c-8.585,0-17.261,2.166-26.023,6.492c-8.766,4.33-16.948,10.514-24.548,18.551v-25.176c6.795-6.977,14.508-12.323,23.14-16.033
		c8.629-3.71,18.756-5.564,30.383-5.564c18.779,0,33.892,4.969,45.34,14.906c11.446,9.938,17.17,23.388,17.17,40.348
		c0,15.105-3.511,28.181-10.53,39.222c-7.021,11.044-19.027,22.351-36.017,33.922c-17.351,11.838-28.954,20.318-34.81,25.44
		c-5.858,5.124-9.95,10.027-12.274,14.708c-2.326,4.684-3.487,10.381-3.487,17.094h103.289v23.056H709.781v-10.203
		c0-11.836,1.631-21.884,4.896-30.145c3.263-8.259,8.651-16.299,16.164-24.116c7.512-7.817,19.226-17.203,35.145-28.157
		c16.275-11.307,27.386-21.222,33.335-29.747C805.266,628.103,808.241,618.407,808.241,607.542z"/>
</g>
</svg>
