<?xml version="1.0" standalone="no"?><!DOCTYPE svg PUBLIC "-//W3C//DTD SVG 1.1//EN" "http://www.w3.org/Graphics/SVG/1.1/DTD/svg11.dtd"><svg t="1520266938488" class="icon" style="" viewBox="0 0 1024 1024" version="1.1" xmlns="http://www.w3.org/2000/svg" p-id="1467" xmlns:xlink="http://www.w3.org/1999/xlink" width="1024" height="1024"><defs><style type="text/css"></style></defs><path d="M740.16170825 528.13393711L566.1625557 528.13393711l0 78.83256215 83.94004876 0-1e-8-15.79452506c0-36.76026965 15.78118537-32.98819911 39.41628108-11.90091845l87.80845915 68.76802701c7.53154224 6.08200009 9.39534505 14.50134995 9.39534506 17.6108988s-1.86380281 10.59069862-9.39534507 16.23027696l-87.80845914 63.77614751c-23.63509569 19.56066662-39.41628109 25.54706843-39.41628108-11.03534365l0-15.97386508L566.1625557 718.64719802l0 69.43054725c0 26.85432411-25.12984294 48.82200097-55.84071944 48.82200097-30.71532308 0-55.8399786-21.96767759-55.8399786-48.82200097l1e-8-69.43054725-167.43100663 0c-27.1477895 0-49.36150342-25.12910208-49.36150341-55.84071944s22.2137139-55.84071944 49.36150341-55.84071945l167.43100662 0L454.48185767 528.13393711 370.75301502 528.13393711c-0.07114289-0.03927679-0.14525063-0.09633985-0.21491182-0.13561664l0 15.93014171c0 36.76026965-15.78192695 32.98819911-39.41331693 11.90017758l-87.8092-68.76654457c-7.52857812-6.07903596-9.25009443-12.55676956-9.25009443-17.51900623s1.72225789-10.68629689 9.25009443-16.32291111l87.8092-63.77911163c23.63138999-19.55844334 39.41331694-25.54262186 39.41331693 11.03756692l0 15.98423992c0.06966118 0 0.1437682-0.00963398 0.21491182-0.00963399l76.51966847 0L310.36357866 272.35126391c-20.11869619-21.55934523-18.48240331-54.64017847 3.63126576-73.52128017 22.11737407-18.8766544 56.67368801-16.68900254 76.79312505 4.86663771l119.53386679 128.06882447L629.85422134 203.69662145c20.11795461-21.55489866 54.6787144-23.7432921 76.79312505-4.86663771 22.11366908 18.88110097 23.74996195 51.96267578 3.63126577 73.52128017l-136.91355069 144.10123431 166.79590593 0c27.15075364 0 49.36076256 25.12613795 49.36076256 55.84071945C789.52247081 503.00335332 767.31172103 528.13393711 740.16170825 528.13393711z" fill="#1296db" p-id="1468"></path></svg>