<?xml version="1.0" encoding="utf-8"?>
<!-- Generator: Adobe Illustrator 19.0.0, SVG Export Plug-In . SVG Version: 6.00 Build 0)  -->
<svg version="1.1" id="图形" xmlns="http://www.w3.org/2000/svg" xmlns:xlink="http://www.w3.org/1999/xlink" x="0px" y="0px"
	 viewBox="15.167 -16.333 1000.636 1000.678" enable-background="new 15.167 -16.333 1000.636 1000.678" xml:space="preserve">
<linearGradient id="SVGID_1_" gradientUnits="userSpaceOnUse" x1="15.1563" y1="-16.3227" x2="1015.8133" y2="984.3344">
	<stop  offset="0" style="stop-color:#FFFFFF"/>
	<stop  offset="1" style="stop-color:#8C8C8C"/>
</linearGradient>
<rect x="15.167" y="-16.333" fill-rule="evenodd" clip-rule="evenodd" fill="url(#SVGID_1_)" width="1000.636" height="1000.678"/>
<g>
	
		<rect x="15.167" y="-16.333" display="none" fill-rule="evenodd" clip-rule="evenodd" fill="#03C7DF" width="1000.636" height="1000.678"/>
	<g id="bg2">
	</g>
	<g id="hairBack2">
	</g>
	<g id="face2">
		<path id="SvgjsPath1004" fill="#FEDCB7" d="M232.227,608.126c-47.514,0-86.169-38.656-86.169-86.169s38.655-86.167,86.169-86.167
			s86.167,38.655,86.167,86.167S279.739,608.126,232.227,608.126z M794.61,608.126c-47.514,0-86.167-38.656-86.167-86.169
			s38.655-86.167,86.167-86.167s86.167,38.655,86.167,86.167S842.124,608.126,794.61,608.126z"/>
		<path id="SvgjsPath1005" d="M232.227,445.829c42.043,0,76.126,34.083,76.126,76.126c0,42.045-34.083,76.128-76.126,76.128
			c-42.045,0-76.128-34.083-76.128-76.128C156.099,479.912,190.182,445.829,232.227,445.829 M232.227,425.748
			c-53.05,0-96.209,43.158-96.209,96.207s43.16,96.209,96.209,96.209s96.208-43.16,96.208-96.209S285.275,425.748,232.227,425.748
			L232.227,425.748z M794.61,445.829c42.043,0,76.126,34.083,76.126,76.126c0,42.045-34.083,76.128-76.126,76.128
			s-76.126-34.083-76.126-76.128C718.484,479.912,752.567,445.829,794.61,445.829 M794.61,425.748
			c-53.05,0-96.208,43.158-96.208,96.207s43.158,96.209,96.208,96.209c53.05,0,96.208-43.16,96.208-96.209
			S847.66,425.748,794.61,425.748L794.61,425.748z"/>
		<path id="SvgjsPath1006" fill="#FEDCB7" stroke="#000000" stroke-width="12" stroke-linecap="round" stroke-linejoin="round" d="
			M795.864,473.491c-0.393-7.92,0.231-29.22-2.174-57.275c-1.6-9.462-2.745-14.75-2.745-14.75
			c-5.459-77.003-37.604-128.583-82.149-173.609c-0.929-0.937-1.889-1.883-2.87-2.835c-0.315-0.305-0.638-0.609-0.956-0.914
			c-0.688-0.658-1.386-1.317-2.099-1.978c-0.383-0.356-0.77-0.713-1.16-1.069c-0.698-0.639-1.411-1.28-2.13-1.921
			c-0.392-0.348-0.778-0.696-1.176-1.046c-0.956-0.838-1.933-1.68-2.93-2.522c-0.442-0.375-0.895-0.75-1.345-1.125
			c-0.822-0.684-1.65-1.369-2.498-2.055c-0.564-0.457-1.143-0.912-1.717-1.369c-0.634-0.504-1.272-1.006-1.919-1.509
			c-0.648-0.504-1.304-1.007-1.966-1.509c-0.589-0.445-1.185-0.89-1.782-1.335c-0.725-0.541-1.446-1.081-2.189-1.62
			c-0.42-0.305-0.853-0.609-1.279-0.914c-1.702-1.22-3.446-2.437-5.228-3.646c-0.368-0.249-0.728-0.499-1.098-0.748
			c-0.964-0.646-1.948-1.29-2.935-1.933c-0.412-0.268-0.825-0.536-1.242-0.803c-1.033-0.664-2.077-1.325-3.136-1.985
			c-0.303-0.187-0.611-0.375-0.915-0.562c-5.111-3.149-10.509-6.223-16.201-9.191c-0.127-0.067-0.253-0.132-0.382-0.199
			c-34.739-18.043-80.196-31.896-136.154-31.896c-54.037,0-99.322,12.914-134.499,30.047c-0.002,0.002-0.005,0.002-0.008,0.003
			c-0.003,0.002-0.008,0.003-0.012,0.005c-1.543,0.751-3.059,1.514-4.563,2.281c-0.283,0.144-0.569,0.288-0.85,0.432
			c-1.407,0.725-2.793,1.456-4.165,2.192c-0.355,0.191-0.711,0.382-1.066,0.572c-1.33,0.721-2.642,1.448-3.939,2.179
			c-0.366,0.206-0.73,0.413-1.093,0.621c-1.287,0.733-2.56,1.469-3.814,2.212c-0.326,0.194-0.649,0.388-0.974,0.584
			c-1.279,0.765-2.547,1.531-3.79,2.303c-0.214,0.134-0.423,0.268-0.636,0.402c-5.407,3.382-10.471,6.829-15.185,10.292
			c-0.417,0.306-0.838,0.609-1.25,0.915c-0.832,0.619-1.638,1.237-2.448,1.856c-0.534,0.41-1.071,0.818-1.595,1.227
			c-0.728,0.567-1.437,1.133-2.147,1.7c-0.584,0.467-1.165,0.934-1.737,1.401c-0.641,0.524-1.275,1.048-1.899,1.57
			c-0.616,0.515-1.222,1.029-1.822,1.543c-0.562,0.484-1.125,0.964-1.673,1.446c-0.648,0.566-1.277,1.13-1.904,1.693
			c-0.479,0.43-0.964,0.862-1.431,1.29c-0.703,0.646-1.382,1.287-2.06,1.928c-0.368,0.348-0.748,0.699-1.109,1.046
			c-1.026,0.987-2.023,1.968-2.987,2.94c-2.278,2.301-4.503,4.625-6.697,6.965c-0.273,0.291-0.551,0.581-0.822,0.872
			c-2.11,2.262-4.174,4.547-6.205,6.849c-0.295,0.335-0.591,0.669-0.884,1.006c-2.042,2.334-4.043,4.691-5.999,7.07
			c-0.204,0.248-0.407,0.499-0.609,0.748c-32.436,39.699-53.192,86.12-57.725,150.097c0,0-0.087,0.283-0.249,0.83
			c-1.832,16.718-1.797,27.662-1.958,29.18c-8.625,81.29-2.902,190.492,39.03,253.196c45.75,68.417,153.794,92.795,239.653,92.797
			c0.008,0,0.005,0,0.013,0c62.578,0,122.169-11.743,167.782-33.062C761.58,706.353,802.673,610.141,795.864,473.491z"/>
	</g>
	<g id="eyebrow2">
		<path id="SvgjsPath1009" d="M427.897,439.423c-0.423-0.674-1.036-1.128-1.65-1.494c-0.619-0.365-1.26-0.644-1.792-0.897
			c-4.764-2.268-9.534-4.568-14.42-6.632c-30.17-12.735-61.161-22.528-94.214-24.233c-1.695-0.182-3.339-0.268-4.94-0.268
			c-6.623,0.002-12.569,1.402-19.096,2.865c-1.491,0.338-3.705,0.726-5.621,1.568c-0.959,0.425-1.858,0.967-2.547,1.732
			c-0.693,0.76-1.148,1.776-1.141,2.95v0.044c0.003,0.989,0.382,1.859,0.957,2.512c0.867,0.984,2.098,1.551,3.359,1.961
			c1.263,0.408,2.58,0.644,3.641,0.838c10.149,1.851,20.369,3.2,30.523,4.803c25.299,3.994,49.299,13.056,73.855,20.327
			c3.946,1.168,7.807,1.64,11.605,1.638c5.959,0,11.768-1.153,17.603-2.575c0.797-0.197,1.762-0.388,2.632-0.848
			c0.433-0.233,0.853-0.544,1.173-0.987c0.32-0.44,0.515-1.007,0.529-1.627v-0.005v-0.084
			C428.354,440.421,428.178,439.87,427.897,439.423z M590.841,439.423c0.423-0.674,1.036-1.128,1.65-1.494
			c0.617-0.365,1.258-0.644,1.791-0.897c4.766-2.268,9.534-4.568,14.42-6.632c30.17-12.735,61.161-22.528,94.216-24.233
			c1.695-0.182,3.337-0.268,4.938-0.268c6.625,0.002,12.571,1.402,19.097,2.865c1.491,0.338,3.703,0.726,5.619,1.568
			c0.959,0.425,1.857,0.967,2.547,1.732c0.693,0.76,1.148,1.776,1.141,2.95v0.044c-0.003,0.989-0.382,1.859-0.957,2.512
			c-0.867,0.984-2.099,1.551-3.359,1.961c-1.263,0.408-2.58,0.644-3.641,0.838c-10.149,1.851-20.371,3.2-30.522,4.803
			c-25.299,3.994-49.301,13.056-73.857,20.327c-3.944,1.168-7.805,1.64-11.604,1.638c-5.959,0-11.768-1.153-17.605-2.575
			c-0.798-0.197-1.762-0.388-2.632-0.848c-0.433-0.233-0.854-0.544-1.171-0.987c-0.32-0.44-0.517-1.007-0.529-1.627v-0.005v-0.084
			C590.383,440.421,590.56,439.87,590.841,439.423z"/>
	</g>
	<g id="eye2">
		<ellipse id="SvgjsEllipse1012" cx="358.068" cy="502.925" rx="40.402" ry="65.55"/>
		<ellipse id="SvgjsEllipse1013" cx="658.279" cy="502.925" rx="40.402" ry="65.55"/>
	</g>
	<g id="feature2">
	</g>
	<g id="mouth2">
		<path id="SvgjsPath1015" d="M592.161,643.308c-0.166-2.788-0.204-6.049-1.335-8.831c-0.567-1.387-1.432-2.662-2.736-3.613
			c-1.302-0.952-3.01-1.563-5.189-1.727c-0.383-0.032-0.756-0.045-1.115-0.045c-1.873-0.002-3.397,0.408-4.6,1.168
			c-1.812,1.146-2.791,3.002-3.369,5.044c-0.579,2.053-0.788,4.349-1.011,6.598c-0.607,6.208-2.425,11.107-5.383,14.785
			c-2.962,3.677-7.08,6.177-12.447,7.525c-3.173,0.798-6.232,1.188-9.169,1.188c-9.502-0.008-17.777-4.05-24.69-11.86
			c-2.273-2.572-4.15-4.522-5.891-5.865c-1.732-1.339-3.377-2.095-5.104-2.095c-1.757,0.002-3.441,0.781-5.243,2.164
			c-1.809,1.389-3.787,3.41-6.198,6.083c-6.851,7.577-14.862,11.42-23.851,11.426c-3.712,0-7.597-0.661-11.642-2.01
			c-5.634-1.886-9.371-5.06-11.881-9.15c-2.505-4.088-3.759-9.129-4.239-14.676c-0.241-2.739-0.838-5.268-2.249-7.204
			c-1.404-1.943-3.685-3.163-6.818-3.181l-0.162-0.002c-3.255-0.017-5.648,1.223-7.169,3.218c-1.53,1.985-2.247,4.604-2.607,7.433
			c-0.151,1.196-0.223,2.405-0.223,3.616c0.002,6.71,2.219,13.585,5.911,19.576c3.693,5.989,8.864,11.103,14.843,14.259
			c8.176,4.314,16.196,6.274,24.039,6.272c11.06,0,21.738-3.882,32.083-10.38c2.201-1.384,3.802-1.998,5.306-1.995
			c1.518-0.003,3.109,0.619,5.298,2.033c10.062,6.5,20.719,10.251,31.983,10.251c5.606,0,11.358-0.93,17.248-2.897
			c15.627-5.233,27.408-20.491,27.608-37.052v-0.032L592.161,643.308z"/>
	</g>
	<g id="nose2">
	</g>
	<g id="hair2">
		<path id="SvgjsPath1021" fill="#282828" d="M813.696,426.766c-1.406-81.788-19.626-147.803-54.149-196.212
			c-47.425-66.492-125.724-100.209-232.723-100.209c-112.194,0-196.025,27.623-249.163,82.104
			c-48.565,49.793-72.006,122.497-69.672,216.096l0.05,2.027l1.991,0.376c10.993,2.082,15.595,10.759,20.466,19.946
			c1.946,3.67,3.959,7.467,6.414,10.852l3.645,5.029l0.872-6.15c0.914-6.439,1.635-13.168,2.333-19.675
			c2.114-19.732,4.299-40.124,12.092-54.146c1.938-1.133,3.839-2.301,5.742-3.469c9.344-5.738,18.172-11.158,31.168-12.596
			l2.202-0.243l0.032-2.216c0.671-47.206,11.244-78.297,30.574-89.912c7.296-4.384,27.608-10.61,42.616-13.059
			c30.686-5.012,72.319-7.659,120.402-7.659c49.402,0,101.01,2.796,141.591,7.674c7.865,0.945,16.216,1.6,24.292,2.231
			c16.579,1.297,32.24,2.522,43.884,6.044c27.404,8.294,27.063,40.723,26.7,75.06c-0.062,5.912-0.127,12.025-0.037,17.951
			l0.033,2.125l2.1,0.318c42.932,6.516,51.692,47.777,54.763,91.395l0.959,13.622l3.946-13.073
			c4.604-15.24,12.941-25.691,25.488-31.943l1.417-0.706L813.696,426.766z"/>
		<path id="SvgjsPath1022" d="M526.822,132.855c238.185,0,282.171,166.432,284.364,293.954
			c-13.401,6.679-22.114,18.043-26.772,33.464c-3.302-46.895-13.307-87.086-56.888-93.701c-0.607-39.94,5.818-85.007-28.445-95.374
			c-17.819-5.392-45.066-5.537-68.602-8.366c-38.994-4.687-91.022-7.693-141.891-7.693c-44.251,0-87.623,2.272-120.807,7.693
			c-14.38,2.348-35.402,8.518-43.504,13.386c-25.249,15.17-31.293,57.019-31.792,92.027c-16.574,1.831-26.825,9.985-38.484,16.733
			c-10.984,19.134-11.317,48.92-15.059,75.295c-8.437-11.64-11.562-28.596-28.445-31.792
			C205.824,241.177,303.681,132.855,526.822,132.855 M526.822,112.774c-117.109,0-205.172,29.407-261.742,87.407
			c-51.997,53.311-77.117,130.29-74.659,228.802c0.236,9.458,7.042,17.469,16.339,19.229c2.192,0.415,3.727,2.455,8.21,10.912
			c2.127,4.01,4.535,8.553,7.711,12.934c3.834,5.286,9.92,8.297,16.257,8.297c1.606,0,3.23-0.194,4.836-0.592
			c7.944-1.971,13.898-8.566,15.048-16.671c0.956-6.736,1.694-13.617,2.406-20.27c1.717-16.023,3.486-32.527,8.13-43.637
			c0.48-0.294,0.956-0.587,1.429-0.877c8.278-5.084,14.817-9.1,23.902-10.104c10.067-1.113,17.73-9.547,17.874-19.675
			c0.564-39.644,8.603-67.016,22.054-75.099c4.871-2.928,22.985-8.59,36.397-10.78c29.767-4.861,70.422-7.43,117.571-7.43
			c48.019,0,100.167,2.823,139.494,7.549c8.228,0.989,16.763,1.657,25.016,2.303c14.919,1.168,30.344,2.375,40.166,5.347
			c12.73,3.852,14.617,20.269,14.217,58.055c-0.064,6.024-0.129,12.253-0.035,18.404c0.151,9.81,7.366,18.076,17.066,19.549
			c21.576,3.275,35.77,17.005,39.87,75.256c0.681,9.666,8.168,17.467,17.799,18.547c0.753,0.084,1.503,0.126,2.247,0.126
			c8.757,0,16.629-5.727,19.209-14.276c3.171-10.497,8.416-17.265,16.505-21.298c6.928-3.452,11.256-10.579,11.122-18.317
			c-1.468-85.409-20.784-154.756-57.414-206.114C722.939,148.969,639.828,112.774,526.822,112.774L526.822,112.774z"/>
	</g>
	<g id="express2">
	</g>
	<g id="glass2">
	</g>
	<g id="hat2">
	</g>
	<g id="hobby2">
	</g>
	<g id="bdBubble2">
	</g>
	<g id="bubble2">
	</g>
	<g id="bubbleFont2">
	</g>
</g>
</svg>
