<?xml version="1.0" encoding="utf-8"?>
<!-- Generator: Adobe Illustrator 19.0.0, SVG Export Plug-In . SVG Version: 6.00 Build 0)  -->
<svg version="1.1" id="Layer_1" xmlns="http://www.w3.org/2000/svg" xmlns:xlink="http://www.w3.org/1999/xlink" x="0px" y="0px"
	 viewBox="0 0 500 500" style="enable-background:new 0 0 500 500;" xml:space="preserve">
<style type="text/css">
	.st0{fill:#3C8CEA;}
	.st1{fill:#2D6FE4;}
	.st2{fill:#FFFFFF;}
	.st3{fill:none;}
	.st4{fill:#FCFCFC;}
</style>
<g>
	<path class="st0" d="M297.8,50H126.3C111.3,50,99,62.3,99,77.3v201.3v87v57.1c0,15,12.3,27.3,27.3,27.3h245.4
		c15,0,27.3-12.3,27.3-27.3v-57.1v-79.9V158.8L297.8,50z"/>
	<path class="st1" d="M399,159.3v5.4h-68.6c0,0-34.3-7-33.2-35.9c0,0,1.1,30.5,32.1,30.5L399,159.3L399,159.3z"/>
	<path class="st2" d="M297.8,50v78.2c0,8.6,5.9,31.1,32.7,31.1H399L297.8,50z"/>
	<line class="st3" x1="62" y1="204.3" x2="440" y2="204.3"/>
</g>
<path class="st4" d="M274.9,249.3h-62.2v34.2h0.1l-0.1,0.1l27.9,27.9l-27.9,27.9l0.1,0.1h-0.1v34.2h74.6v-34.2h-0.1l0.1-0.1
	l-27.9-27.9l27.9-27.9l-0.1-0.1h0.1v-34.2H274.9z"/>
</svg>
