<?xml version="1.0" encoding="utf-8"?>
<!-- Generator: Adobe Illustrator 19.0.0, SVG Export Plug-In . SVG Version: 6.00 Build 0)  -->
<svg version="1.1" id="图形" xmlns="http://www.w3.org/2000/svg" xmlns:xlink="http://www.w3.org/1999/xlink" x="0px" y="0px"
	 viewBox="15.167 -16.333 1000.636 1000.678" enable-background="new 15.167 -16.333 1000.636 1000.678" xml:space="preserve">
<rect x="15.167" y="-16.333" fill-rule="evenodd" clip-rule="evenodd" fill="#3B95D8" width="1000.636" height="1000.678"/>
<image display="none" overflow="visible" width="144" height="144" xlink:href="5774AF83.png"  transform="matrix(6.9489 0 0 6.9492 15.1667 -16.3331)">
</image>
<circle display="none" fill="none" stroke="#000000" cx="515.506" cy="484.006" r="500.339"/>
<g>
	<path fill-rule="evenodd" clip-rule="evenodd" fill="#FFFFFF" d="M412.167,141.054c33.403-22.902,74.347-35.33,114.885-32.497
		c22.831,1.723,46.17,10.775,61.031,28.769c10.039,12.248,12.637,30.806,3.972,44.495c-10.185,16.116-27.175,25.904-42.918,35.815
		c-4.903-1.772-9.635-3.948-14.376-6.099c-3.341-12.014-7.718-24.334-16.552-33.468c-14.789-13.615-38.363-13.615-55.295-4.07
		c-18.081,9.489-30.063,27.036-39.641,44.503c-27.271,52.989-34.616,112.912-47.004,170.455c43.622-0.025,87.252-0.04,130.881,0.009
		c30.507-1.48,61.354-1.902,91.359-8.697c3.357,4.684,7.637,8.672,10.63,13.624c-9.198,20.831-23.306,43.418-46.873,49.364
		c-24.464,5.687-49.68,4.854-74.533,6.383c-41.201-0.056-82.413-0.008-123.614-0.025c-17.402,86.038-34.456,172.156-51.727,258.224
		c-5.404,27.183-11.398,54.446-12.596,82.203c-1.748,14.934-0.194,30.847,7.314,44.147c-3.051,5.242-2.386,14.538-9.806,15.548
		c-18.284,5.363-37.011,11.244-56.291,9.927c-9.417-1.221-18.905-5.517-24.415-13.535c-7.176-10.897-7.937-24.521-6.91-37.149
		c3.213-39.416,12.224-78.061,19.764-116.811c15.985-80.892,32.756-161.647,48.095-242.644c-27.118,1.197-54.446,8.196-77.13,23.534
		c-5.364-2.476-10.226-6.537-15.259-9.83c4.928-22.06,9.822-47.091,28.793-61.702c22.716-13.583,50.732-11.342,75.771-13.162
		c10.71-51.201,19.278-103.778,41.824-151.534c16.859-38.929,45.344-72.316,80.617-95.777L412.167,141.054L412.167,141.054z"/>
	<path fill-rule="evenodd" clip-rule="evenodd" fill="#FFFFFF" d="M793.74,509.674c11.52-12.077,32.909-13.923,44.876-1.586
		c11.203,12.572,8.697,32.87-3.196,44.082c-34.617,33.808-67.859,68.877-100.462,104.539
		c39.422,44.317,74.874,92.21,105.995,142.716c6.901,13.098,3.794,31.35-8.56,40.15c-10.541,7.24-25.297,5.606-35.15-2.103
		c-7.41-4.782-10.34-13.429-15.347-20.257c-25.346-40.498-55.166-77.963-85.729-114.579
		c-32.432,39.043-61.775,80.576-89.856,122.831c-6.319,8.414-16.189,15.185-27.15,14.133c-14.749,1.133-27.352-12.443-27.562-26.737
		c-0.744-10.315,4.564-19.666,10.242-27.838c27.505-43.169,58.167-84.25,90.414-123.972c1.716-1.74,4.401-4.094,1.707-6.326
		c-30.523-33.582-62.786-65.594-94.16-98.416c-11.617-10.355-14.901-29.9-4.141-42.004c11.787-13.001,34.059-12.353,45.967,0.201
		c31.236,32.288,63.297,63.806,93.578,96.976c31.68-34.99,64.114-69.445,98.535-101.813L793.74,509.674L793.74,509.674z"/>
</g>
</svg>
