<?xml version="1.0" encoding="utf-8"?>
<!-- Generator: Adobe Illustrator 19.0.0, SVG Export Plug-In . SVG Version: 6.00 Build 0)  -->
<svg version="1.1" id="图形" xmlns="http://www.w3.org/2000/svg" xmlns:xlink="http://www.w3.org/1999/xlink" x="0px" y="0px"
	 viewBox="202 -80.8 1000.6 1000.7" style="enable-background:new 202 -80.8 1000.6 1000.7;" xml:space="preserve">
<style type="text/css">
	.st0{fill:#FDCB01;}
</style>
<path class="st0" d="M968.9,194.2c-44.1,33.3-52.8,96-19.5,140.1c5.6,7.4,12.1,13.9,19.5,19.5c-43.9,33.5-106.7,25-140.1-19
	c-33.5-43.9-25-106.7,19-140.1c17.6-13.4,39.1-20.6,61.2-20.4C930.5,174.2,951.6,181.2,968.9,194.2z"/>
<path class="st0" d="M395,565.7c0,92,74.5,166.5,166.5,166.5S728,657.7,728,565.7s-74.5-166.5-166.5-166.5S395,473.8,395,565.7z"/>
</svg>
