<?xml version="1.0" encoding="utf-8"?>
<!-- Generator: Adobe Illustrator 19.0.0, SVG Export Plug-In . SVG Version: 6.00 Build 0)  -->
<svg version="1.1" id="Layer_1" xmlns="http://www.w3.org/2000/svg" xmlns:xlink="http://www.w3.org/1999/xlink" x="0px" y="0px"
	 viewBox="0 0 500 500" style="enable-background:new 0 0 500 500;" xml:space="preserve">
<g>
	<path d="M176.6,255.4l-18.5-10.7l18.5-10.7c1.9-0.9,2.8-3.7,1.4-5.6c-0.9-1.9-3.7-2.8-5.6-1.4l-18.5,10.7v-21.3
		c0.5-2.3-1.4-4.2-3.7-4.2c-2.3,0-4.2,1.8-4.2,4.1c0,0,0,0,0,0v21.3l-18.5-10.7c-1.4-1.4-4.2-0.5-5.1,1.4c-0.9,1.9-0.5,4.6,1.4,5.6
		l18.5,10.7l-18.5,10.7c-1.9,0.9-2.8,3.7-1.4,5.6c0.9,1.4,2.3,1.9,3.7,1.9c0.5,0,1.4,0,1.9-0.5l18.5-10.7V273
		c-0.5,2.3,1.4,4.2,3.7,4.2s4.2-1.9,4.2-4.2v-21.3l18.5,10.7c0.5,0.5,1.4,0.5,1.9,0.5c1.4,0,2.8-0.9,3.7-1.9
		C178.9,259.1,178.5,256.3,176.6,255.4L176.6,255.4z"/>
	<path d="M275.8,255.4l-18.5-10.7l18.5-10.7c1.9-0.9,2.8-3.7,1.4-5.6c-0.9-1.9-3.7-2.8-5.6-1.4l-18.5,10.7v-21.3
		c0.5-2.3-1.4-4.2-3.7-4.2c-2.3,0-4.2,1.8-4.2,4.1c0,0,0,0,0,0v21.3l-18.5-10.7c-1.4-1.4-4.2-0.5-5.1,1.4c-0.9,1.9-0.5,4.6,1.4,5.6
		l18.5,10.7l-18.5,10.7c-1.9,0.9-2.8,3.7-1.4,5.6c0.9,1.4,2.3,1.9,3.7,1.9c0.5,0,1.4,0,1.9-0.5l18.5-10.7V273
		c-0.5,2.3,1.4,4.2,3.7,4.2s4.2-1.9,4.2-4.2v-21.3l18.5,10.7c0.5,0.5,1.4,0.5,1.9,0.5c1.4,0,2.8-0.9,3.7-1.9
		C278.1,259.1,277.6,256.3,275.8,255.4L275.8,255.4z"/>
	<path d="M358.3,255.4l-18.5-10.7l18.5-10.7c1.9-0.9,2.8-3.7,1.4-5.6c-0.9-1.9-3.7-2.8-5.6-1.4l-18.5,10.7v-21.3
		c0.5-2.3-1.4-4.2-3.7-4.2c-2.3,0-4.2,1.8-4.2,4.1c0,0,0,0,0,0v21.3l-18.5-10.7c-1.4-1.4-4.2-0.5-5.1,1.4c-0.9,1.9-0.5,4.6,1.4,5.6
		l18.5,10.7l-18.5,10.7c-1.9,0.9-2.8,3.7-1.4,5.6c0.9,1.4,2.3,1.9,3.7,1.9c0.5,0,1.4,0,1.9-0.5l18.5-10.7V273
		c-0.5,2.3,1.4,4.2,3.7,4.2s4.2-1.9,4.2-4.2v-21.3l18.5,10.7c0.5,0.5,1.4,0.5,1.9,0.5c1.4,0,2.8-0.9,3.7-1.9
		C360.6,259.1,360.1,256.3,358.3,255.4L358.3,255.4z"/>
</g>
<path d="M50,140.5V349h400V140.5H50z M434.3,334.1H64.5V155.4h369.8V334.1z"/>
</svg>
