<?xml version="1.0" encoding="utf-8"?>
<!-- Generator: Adobe Illustrator 19.0.0, SVG Export Plug-In . SVG Version: 6.00 Build 0)  -->
<svg version="1.1" id="Layer_1" xmlns="http://www.w3.org/2000/svg" xmlns:xlink="http://www.w3.org/1999/xlink" x="0px" y="0px"
	 viewBox="0 0 500 500" style="enable-background:new 0 0 500 500;" xml:space="preserve">
<style type="text/css">
	.st0{fill-rule:evenodd;clip-rule:evenodd;fill:#27AE60;}
</style>
<g>
	<g>
		<path class="st0" d="M306,163.3c-3.2-0.4-10-0.8-20-0.8h-13.6v38.7h15.2c10.8,0,18.4-0.8,22-2.4c3.6-1.6,6.4-3.6,8.8-6.8
			c2-3.2,3.2-6.8,3.2-10.8c0-5.2-1.6-8.8-4.4-12.4C314.4,166.1,310.8,164.1,306,163.3L306,163.3z"/>
		<path class="st0" d="M397.4,149c-8-19.2-20-36.7-34.7-51.1c-14.4-14.4-31.9-26.3-51.1-34.7c-19.2-8-40.7-12.8-62.7-12.8
			c-22.4,0-43.5,4.4-62.7,12.8c-19.2,8-36.7,20-51.1,34.7c-14.4,14.4-26.3,31.9-34.7,51.1c-8.4,19.2-12.8,40.3-12.8,62.7
			c0,22.4,4.4,43.5,12.8,62.7c4.8,11.6,10.8,22,18.4,32.3c0,0,115,135.3,116.6,137.3c1.6,1.6,4,3.2,6,4.4c2.4,1.2,5.2,1.6,7.6,1.6
			c2.8,0,5.2-0.4,7.6-1.6c2.4-1.2,4.4-2.4,6-4.4c1.6-1.6,116.6-137.3,116.6-137.3c7.2-10,13.6-20.8,18.4-32.3
			c8-19.2,12.8-40.7,12.8-62.7C410.2,189.7,405.4,168.1,397.4,149L397.4,149z M218.9,275.9h-27.5V139h27.5V275.9L218.9,275.9z
			 M345.5,202.4c-3.2,5.6-7.2,10.4-11.6,13.6c-4.8,3.2-9.6,5.2-14.4,6.4c-6.8,1.6-16.4,2-28.7,2h-18v51.9h-27.5V139.4h44.3
			c16.8,0,27.5,0.4,32.7,2c8,2,14.4,6.4,19.6,13.6c5.2,7.2,8,15.6,8,26.7C350.3,189.7,348.7,196.9,345.5,202.4L345.5,202.4z"/>
	</g>
</g>
</svg>
