<?xml version="1.0" encoding="utf-8"?>
<!-- Generator: Adobe Illustrator 19.0.0, SVG Export Plug-In . SVG Version: 6.00 Build 0)  -->
<svg version="1.1" id="Layer_1" xmlns="http://www.w3.org/2000/svg" xmlns:xlink="http://www.w3.org/1999/xlink" x="0px" y="0px"
	 viewBox="0 0 500 500" style="enable-background:new 0 0 500 500;" xml:space="preserve">
<style type="text/css">
	.st0{fill:#34A853;}
	.st1{fill:#FFFFFF;}
</style>
<path class="st0" d="M100,83.3v333.3c0,18.4,14.9,33.3,33.3,33.3h233.3c18.4,0,33.3-14.9,33.3-33.3V83.3c0-18.4-14.9-33.2-33.3-33.2
	L133.3,50C114.9,50,100,64.9,100,83.3z"/>
<g>
	<path class="st1" d="M188.7,257.6l-12.9,39h-16.6l42.1-124.1h19.3l42.3,124.1H246l-13.3-39H188.7z M229.4,245.1l-12.1-35.7
		c-2.8-8.1-4.6-15.5-6.4-22.6h-0.4c-1.8,7.4-3.9,14.9-6.3,22.5L192,245.1H229.4z"/>
	<path class="st1" d="M330.8,296.6l-1.3-11.2H329c-5,7-14.5,13.3-27.2,13.3c-18,0-27.2-12.7-27.2-25.6c0-21.5,19.1-33.3,53.6-33.1
		v-1.8c0-7.4-2-20.6-20.2-20.6c-8.3,0-16.9,2.6-23.2,6.6l-3.7-10.7c7.4-4.8,18-7.9,29.3-7.9c27.2,0,33.9,18.6,33.9,36.4v33.3
		c0,7.7,0.4,15.3,1.5,21.3H330.8z M328.4,251.2c-17.7-0.4-37.7,2.8-37.7,20.1c0,10.5,7,15.5,15.3,15.5c11.6,0,19-7.4,21.5-14.9
		c0.6-1.7,0.9-3.5,0.9-5.2V251.2z"/>
</g>
</svg>
