<?xml version="1.0" encoding="utf-8"?>
<!-- Generator: Adobe Illustrator 19.0.0, SVG Export Plug-In . SVG Version: 6.00 Build 0)  -->
<svg version="1.1" id="Layer_1" xmlns="http://www.w3.org/2000/svg" xmlns:xlink="http://www.w3.org/1999/xlink" x="0px" y="0px"
	 viewBox="0 0 500 500" style="enable-background:new 0 0 500 500;" xml:space="preserve">
<style type="text/css">
	.st0{fill:#FFFFFF;}
	.st1{fill:#34A853;}
</style>
<path class="st0" d="M178,368.7V400h30.1l88.7-92.2l-30.1-31.3L178,368.7z M319.9,283.7c3.1-3.3,3.1-8.5,0-11.8l-18.7-19.5
	c-3.1-3.3-8.2-3.3-11.3,0l-14.7,15.3l30.1,31.3C305.2,298.9,319.9,283.7,319.9,283.7z"/>
<path class="st1" d="M100.1,82.4v333.3c0,18.4,14.9,33.3,33.3,33.3h233.3c18.4,0,33.3-14.9,33.3-33.3V82.4
	c0-18.4-14.9-33.2-33.3-33.2l-233.3-0.1C115,49.1,100.1,64,100.1,82.4z"/>
<g>
	<path class="st0" d="M188.8,206.7l-12.9,39h-16.6l42.1-124.1h19.3L263,245.7h-16.9l-13.3-39H188.8z M229.4,194.2l-12.1-35.7
		c-2.8-8.1-4.6-15.5-6.4-22.6h-0.4c-1.8,7.4-3.9,14.9-6.3,22.5l-12.2,35.8H229.4z"/>
	<path class="st0" d="M330.8,245.7l-1.3-11.2H329c-5,7-14.5,13.3-27.2,13.3c-18,0-27.2-12.7-27.2-25.6c0-21.5,19.1-33.3,53.6-33.1
		v-1.8c0-7.4-2-20.6-20.2-20.6c-8.3,0-16.9,2.6-23.2,6.6l-3.7-10.7c7.4-4.8,18-7.9,29.3-7.9c27.2,0,33.9,18.6,33.9,36.4v33.3
		c0,7.7,0.4,15.3,1.5,21.3L330.8,245.7L330.8,245.7z M328.5,200.3c-17.7-0.4-37.7,2.8-37.7,20.1c0,10.5,7,15.5,15.3,15.5
		c11.6,0,19-7.4,21.5-14.9c0.6-1.7,0.9-3.5,0.9-5.2L328.5,200.3L328.5,200.3z"/>
</g>
<path class="st0" d="M327.6,351.1v16c0,0.7-0.3,1.3-0.8,1.9c-0.5,0.5-1.2,0.8-1.9,0.8H210.1v16c0,0.7-0.3,1.3-0.8,1.9
	c-0.5,0.5-1.2,0.8-1.9,0.8s-1.3-0.3-2-0.8L178.8,361c-0.5-0.5-0.8-1.1-0.8-1.8c0-0.8,0.3-1.4,0.8-1.9l26.7-26.7
	c0.5-0.5,1.1-0.8,1.9-0.8c0.7,0,1.3,0.3,1.9,0.8c0.5,0.5,0.8,1.2,0.8,1.9v16h114.8c0.7,0,1.3,0.3,1.9,0.8
	C327.3,349.9,327.6,350.5,327.6,351.1L327.6,351.1z M327.6,305.9c0,0.8-0.3,1.4-0.8,1.9l-26.7,26.7c-0.5,0.5-1.1,0.8-1.9,0.8
	c-0.7,0-1.3-0.3-1.9-0.8c-0.5-0.5-0.8-1.2-0.8-1.9v-16H180.8c-0.7,0-1.3-0.3-1.9-0.8c-0.5-0.5-0.8-1.2-0.8-1.9v-16
	c0-0.7,0.3-1.3,0.8-1.9c0.5-0.5,1.2-0.8,1.9-0.8h114.8v-16c0-0.8,0.3-1.4,0.8-1.9s1.1-0.8,1.9-0.8c0.7,0,1.3,0.3,2,0.8l26.6,26.6
	C327.3,304.4,327.6,305,327.6,305.9L327.6,305.9z"/>
</svg>
