<?xml version="1.0" encoding="utf-8"?>
<!-- Generator: Adobe Illustrator 16.0.0, SVG Export Plug-In . SVG Version: 6.00 Build 0)  -->
<!DOCTYPE svg PUBLIC "-//W3C//DTD SVG 1.1//EN" "http://www.w3.org/Graphics/SVG/1.1/DTD/svg11.dtd">
<svg version="1.1" id="图层_3" xmlns="http://www.w3.org/2000/svg" xmlns:xlink="http://www.w3.org/1999/xlink" x="0px" y="0px"
	 width="192px" height="192px" viewBox="0 0 192 192" enable-background="new 0 0 192 192" xml:space="preserve">
<rect x="67" y="73" fill="none" width="67.667" height="41.333"/>
<path fill="none" d="M108.001,81h24v24h-24V81z"/>
<path fill="none" d="M56.501,64.5h75.5V140h-75.5V64.5z"/>
<rect x="20.648" y="161.21" fill="#4E4E4E" width="151.352" height="10.79"/>
<polygon fill="#4285F4" points="40.695,161.21 103.035,161.21 56.256,161.045 56.027,139.123 74.169,138.974 74.08,127.742 
	20.688,128.093 20.514,138.89 40.701,138.781 "/>
<path fill="#34A853" d="M133.25,161.21v-0.206l-0.621,0.002l-3.201-44.202l2.53,0.088l7.516,3.598
	c0.138,0.066,5.23,2.349,11.967,2.31c6.735-0.042,19.778-6.791,20.229-22.813c0.458-16.027-13.4-23.651-13.4-23.651
	s8.047-7.693,4.487-20.578c-3.563-12.886-17.119-13.203-17.119-13.203c7.798-27.93-42.223-32.163-37.722,0.253
	c0,0-4.517-0.472-9.452,2.144c-4.937,2.616-8.729,6.498-10.393,14.394c-1.871,8.87,4.929,15.159,5.217,16.643
	c0.486,2.467-16.071,9.331-13.753,27.116c0.804,6.154,3.852,13.169,12.146,16.691c16.597,7.048,26.594-3.026,26.594-3.026
	l3.057,0.381l-4.134,44.061H133.25z"/>
</svg>
