<?xml version="1.0" encoding="utf-8"?>
<!-- Generator: Adobe Illustrator 19.0.0, SVG Export Plug-In . SVG Version: 6.00 Build 0)  -->
<svg version="1.1" id="Layer_1" xmlns="http://www.w3.org/2000/svg" xmlns:xlink="http://www.w3.org/1999/xlink" x="0px" y="0px"
	 viewBox="0 0 500 500" style="enable-background:new 0 0 500 500;" xml:space="preserve">
<style type="text/css">
	.st0{fill:#4285F4;}
</style>
<g>
	<path class="st0" d="M366.7,450c-45.9,0-83.3-37.4-83.3-83.3c0-46,37.4-83.3,83.3-83.3c9.3,0,18.4,1.5,27.1,4.5
		c8.7,3,13.3,12.5,10.3,21.2c-3,8.7-12.5,13.3-21.2,10.3c-5.2-1.8-10.7-2.7-16.3-2.7c-27.6,0-50,22.4-50,50c0,27.6,22.4,50,50,50
		c27.6,0,50-22.4,50-50c0-4.6-0.6-9-1.8-13.4c-2.5-8.9,2.7-18,11.6-20.5c8.9-2.4,18,2.7,20.5,11.6c2,7.3,3,14.7,3,22.3
		C450,412.6,412.6,450,366.7,450"/>
	<path class="st0" d="M116.7,316.7C79.9,316.7,50,286.8,50,250c0-36.8,29.9-66.7,66.7-66.7c36.8,0,66.7,29.9,66.7,66.7
		C183.3,286.8,153.4,316.7,116.7,316.7 M116.7,216.7c-18.4,0-33.3,14.9-33.3,33.3c0,18.4,15,33.3,33.3,33.3
		c18.4,0,33.3-15,33.3-33.3C150,231.6,135.1,216.7,116.7,216.7"/>
	<path class="st0" d="M366.7,150c-27.6,0-50-22.4-50-50s22.4-50,50-50c27.6,0,50,22.4,50,50C416.7,127.6,394.2,150,366.7,150
		 M366.7,83.4c-9.2,0-16.7,7.5-16.7,16.7c0,9.2,7.5,16.7,16.7,16.7c9.2,0,16.7-7.5,16.7-16.7C383.3,90.8,375.9,83.4,366.7,83.4"/>
	<path class="st0" d="M160.9,243.3c-5.5,0-11-2.8-14.1-7.8c-4.9-7.8-2.6-18.1,5.2-23l176.3-111c7.8-4.9,18.1-2.6,23,5.2
		c4.9,7.8,2.6,18.1-5.2,23l-176.3,111C167,242.5,163.9,243.3,160.9,243.3"/>
	<path class="st0" d="M308.7,350.7c-2.3,0-4.7-0.5-6.9-1.5l-143.8-66c-8.4-3.8-12.1-13.7-8.2-22.1c3.9-8.4,13.8-12,22.1-8.2
		l143.8,66c8.4,3.8,12,13.7,8.2,22.1C321.1,347.1,315.1,350.7,308.7,350.7"/>
</g>
</svg>
