<?xml version="1.0" encoding="utf-8"?>
<!-- Generator: Adobe Illustrator 19.0.0, SVG Export Plug-In . SVG Version: 6.00 Build 0)  -->
<svg version="1.1" id="图形" xmlns="http://www.w3.org/2000/svg" xmlns:xlink="http://www.w3.org/1999/xlink" x="0px" y="0px"
	 viewBox="15.167 -16.333 1000.636 1000.678" enable-background="new 15.167 -16.333 1000.636 1000.678" xml:space="preserve">
<g>
	<polygon fill-rule="evenodd" clip-rule="evenodd" points="414.912,302.561 438.453,302.561 438.453,726.301 414.912,726.301 
		414.912,302.561 	"/>
	<path fill-rule="evenodd" clip-rule="evenodd" d="M212.458,505.014h423.74v23.541h-423.74V505.014L212.458,505.014z
		 M372.538,302.561l51.79-51.79l56.499,51.79H372.538L372.538,302.561z M636.198,462.64l56.499,51.79l-56.499,51.79V462.64
		L636.198,462.64z M513.784,307.269l28.249-28.249c-4.708-9.416-9.416-9.416-9.416-14.125s-9.416-9.416-9.416-14.125
		c0,0,0-4.708-4.708-4.708c-4.708,0,0-4.708-4.708-4.708l14.125-4.708c9.417,4.708,14.125,9.416,14.125,14.125
		c0,4.708,4.708,9.416,9.416,14.125l28.249-28.249l14.125,9.416c0,4.708-4.708,9.416-9.417,18.833
		c-4.708,9.416-9.416,9.416-14.125,14.125c4.708,0,4.708,4.708,9.416,4.708l9.416,9.416l14.125,9.416l-14.125,18.833
		c-9.416-4.708-14.125-9.416-18.833-14.125l-14.125-14.125l-9.416,9.416c-4.708,4.708-9.416,4.708-9.416,9.416
		c0,0-4.708,0-4.708,4.708c0,0-4.708,0-4.708,4.708L513.784,307.269L513.784,307.269z M800.986,467.349
		c-4.708,14.125-9.416,28.249-14.125,37.666l-14.125,28.249c-4.708,9.416-9.417,14.125-14.125,23.541
		c-4.708,9.416-9.417,9.416-14.125,18.833h-4.708c0,0-4.708,0-4.708-4.708s-4.708,0-4.708-4.708v-4.708
		c4.708-4.708,4.708-9.416,9.416-14.125c0-4.708,4.708-9.416,4.708-14.125l-14.125-14.125c-4.708-4.708-4.708-9.416-9.416-14.125
		c-4.708-4.708-4.708-9.416-4.708-14.125c0-4.708-4.708-9.416-4.708-14.125l-4.708-9.416h4.708c0,0,4.708,0,9.416-4.708
		c4.708,0,4.708-4.708,9.416-4.708l4.708,9.416c0,4.708,4.708,9.416,4.708,14.125c0,4.708,4.708,9.416,4.708,14.125
		c0,4.708,4.708,4.708,4.708,9.416c0,4.708,4.708,9.416,4.708,14.125l14.125-28.249c4.708-9.416,9.416-18.833,14.125-32.958
		c0,0,4.708,0,4.708,4.708h4.708c0,0,4.708,0,4.708,4.708H800.986L800.986,467.349z"/>
	<path fill-rule="evenodd" clip-rule="evenodd" d="M796.278,133.065c37.666,0,70.623,32.958,70.623,70.623v564.987
		c0,37.666-32.958,70.623-70.623,70.623H231.291c-37.666,0-70.623-32.958-70.623-70.623V203.688
		c0-37.666,32.958-70.623,70.623-70.623H796.278L796.278,133.065z M796.278,109.524H231.291c-51.79,0-94.164,42.374-94.164,94.164
		v564.987c0,51.79,42.374,94.164,94.164,94.164h564.987c51.79,0,94.164-42.374,94.164-94.164V203.688
		C890.442,151.898,848.068,109.524,796.278,109.524"/>
	<path fill-rule="evenodd" clip-rule="evenodd" d="M504.368,613.303c-32.958,0-61.207-32.958-89.456-103.581
		c-37.666-80.04-61.207-89.456-65.915-89.456c-37.666,4.708-70.623,112.997-84.748,193.037l-23.541-4.708
		c4.708-32.958,37.666-202.454,103.581-211.87c32.958-4.708,61.207,28.249,89.456,98.873c23.541,56.499,47.082,89.456,70.623,89.456
		c42.374-4.708,80.04-108.289,98.873-174.204l23.541,4.708C622.073,439.099,574.991,608.595,504.368,613.303L504.368,613.303z"/>
</g>
</svg>
