<?xml version="1.0" encoding="utf-8"?>
<!-- Generator: Adobe Illustrator 19.0.0, SVG Export Plug-In . SVG Version: 6.00 Build 0)  -->
<svg version="1.1" id="图形" xmlns="http://www.w3.org/2000/svg" xmlns:xlink="http://www.w3.org/1999/xlink" x="0px" y="0px"
	 viewBox="15.167 -16.333 1000.636 1000.678" enable-background="new 15.167 -16.333 1000.636 1000.678" xml:space="preserve">
<g>
	<path fill="#DCE5F7" d="M433.524,137.653H846.45c14.027,0,25.398,13.433,25.398,30v541.496c0,16.57-11.371,29.996-25.398,29.996
		H267.407c-14.027,0-25.399-13.426-25.399-29.996V167.653c0-16.567,11.375-30,25.399-30H433.524z M433.524,137.653"/>
	<g>
		<defs>
			<rect id="SVGID_1_" x="159.105" y="137.586" width="712.8" height="692.88"/>
		</defs>
		<clipPath id="SVGID_2_">
			<use xlink:href="#SVGID_1_"  overflow="visible"/>
		</clipPath>
		<path clip-path="url(#SVGID_2_)" fill="#4E6DC4" d="M845.633,162.11c0.657,0.707,1.758,2.613,1.758,5.543v541.496
			c0,2.926-1.097,4.832-1.758,5.539h-577.41c-0.656-0.707-1.758-2.613-1.758-5.539V167.653c0-2.93,1.102-4.836,1.758-5.543H845.633
			 M846.45,137.653H267.411c-14.028,0-25.403,13.433-25.403,30v541.496c0,16.57,11.375,29.996,25.403,29.996H846.45
			c14.031,0,25.402-13.426,25.402-29.996V167.653C871.852,151.086,860.477,137.653,846.45,137.653L846.45,137.653z M846.45,137.653"
			/>
		<path clip-path="url(#SVGID_2_)" fill="#FFFFFF" d="M350.501,228.012h412.925c14.028,0,25.403,13.434,25.403,30v541.496
			c0,16.571-11.375,29.996-25.403,29.996H184.387c-14.027,0-25.402-13.425-25.402-29.996V258.012c0-16.566,11.375-30,25.402-30
			H350.501z M350.501,228.012"/>
		<path clip-path="url(#SVGID_2_)" fill="#4E6DC4" d="M762.61,252.469c0.66,0.707,1.762,2.617,1.762,5.543v541.496
			c0,2.926-1.102,4.836-1.758,5.539H185.2c-0.656-0.703-1.758-2.609-1.758-5.539V258.012c0-2.926,1.102-4.836,1.762-5.543H762.61
			 M763.426,228.012H184.387c-14.027,0-25.402,13.434-25.402,30v541.496c0,16.571,11.375,29.996,25.402,29.996h579.039
			c14.028,0,25.403-13.425,25.403-29.996V258.012C788.829,241.446,777.454,228.012,763.426,228.012L763.426,228.012z
			 M763.426,228.012"/>
	</g>
	<path fill="#4E6DC4" d="M699.075,366.75c0,11.161-9.332,20.207-20.844,20.207H262.856c-11.516,0-20.848-9.046-20.848-20.207
		c0-11.16,9.332-20.207,20.848-20.207h415.375C689.743,346.543,699.075,355.59,699.075,366.75L699.075,366.75z M513.563,485.915
		c0,11.16-5.543,20.207-12.383,20.207H254.391c-6.84,0-12.383-9.047-12.383-20.207c0-11.161,5.543-20.208,12.383-20.208H501.18
		C508.02,465.707,513.563,474.754,513.563,485.915L513.563,485.915z M513.563,485.915"/>
	<path fill="#4E6DC4" d="M699.079,594.704c0-32.024-25.949-57.973-57.977-57.973c-14.351,0-27.269,5.461-37.344,14.133
		c-2.191,2.109-3.593,5.043-3.593,8.34c0,6.398,5.195,11.593,11.593,11.593c2.821,0,5.321-1.14,7.317-2.808l0.07,0.058
		c5.973-4.996,13.528-8.129,21.957-8.129c19.199,0,34.785,15.571,34.785,34.786c0,10.617-4.871,20.011-12.382,26.386h0.023
		l-65.598,65.606c-6.39,7.492-15.773,12.359-26.39,12.359c-19.211,0-34.785-15.578-34.785-34.781
		c0-10.602,4.832-19.988,12.32-26.352l33.312-33.285c2.055-1.851,4.707-3.07,7.7-3.07c6.402,0,11.593,5.183,11.593,11.594
		c0,2.48-0.949,4.648-2.285,6.539l-32.199,32.726c-1.828,2.051-3.023,4.688-3.023,7.653c0,6.402,5.191,11.593,11.593,11.593
		c2.965,0,5.61-1.203,7.653-3.039l31.238-31.047l1.25-1.324c5.496-6.152,8.965-14.191,8.965-23.105
		c0-19.211-15.582-34.785-34.785-34.785c-8.719,0-16.59,3.339-22.7,8.64l-1.894,1.723l-32.774,32.754
		c-11.683,10.593-19.152,25.75-19.152,42.781c0,32.023,25.945,57.973,57.973,57.973c16.925,0,32.023-7.411,42.621-18.977
		l65.953-65.949l-0.027-0.016C691.669,626.715,699.079,611.633,699.079,594.704L699.079,594.704z M699.079,594.704"/>
</g>
</svg>
