<?xml version="1.0" standalone="no"?><!DOCTYPE svg PUBLIC "-//W3C//DTD SVG 1.1//EN" "http://www.w3.org/Graphics/SVG/1.1/DTD/svg11.dtd"><svg t="1519396361698" class="icon" style="" viewBox="0 0 1024 1024" version="1.1" xmlns="http://www.w3.org/2000/svg" p-id="1138" xmlns:xlink="http://www.w3.org/1999/xlink" width="1024" height="1024"><defs><style type="text/css"></style></defs><path d="M292.2734375 883.77734375c-31.46484375 0-57.12890625-25.6640625-57.12890625-57.12890625V197.3515625c0-31.46484375 25.6640625-57.12890625 57.12890625-57.12890625h439.453125c31.46484375 0 57.12890625 25.6640625 57.12890625 57.12890625v629.296875c0 31.46484375-25.6640625 57.12890625-57.12890625 57.12890625H292.2734375z" fill="#E5E5E5" p-id="1139"></path><path d="M731.7265625 162.1953125c9.31640625 0 18.10546875 3.69140625 24.78515625 10.37109375 6.6796875 6.6796875 10.37109375 15.46875 10.37109375 24.78515625v629.296875c0 9.31640625-3.69140625 18.10546875-10.37109375 24.78515625-6.6796875 6.6796875-15.46875 10.37109375-24.78515625 10.37109375H292.2734375c-9.31640625 0-18.10546875-3.69140625-24.78515625-10.37109375-6.6796875-6.6796875-10.37109375-15.46875-10.37109375-24.78515625V197.3515625c0-9.31640625 3.69140625-18.10546875 10.37109375-24.78515625 6.6796875-6.6796875 15.46875-10.37109375 24.78515625-10.37109375h439.453125m0-43.9453125H292.2734375c-43.50585938 0-79.1015625 35.59570313-79.1015625 79.1015625v629.296875c0 43.50585938 35.59570313 79.1015625 79.1015625 79.1015625h439.453125c43.50585938 0 79.1015625-35.59570313 79.1015625-79.1015625V197.3515625c0-43.50585938-35.59570313-79.1015625-79.1015625-79.1015625z" fill="#3A3644" p-id="1140"></path><path d="M292.2734375 861.36523438c-11.86523438 0-22.41210938-5.88867188-28.74023438-14.94140626H605.1640625c53.34960938 0 96.6796875-43.33007813 96.6796875-96.67968749v-587.98828125h29.8828125c19.42382813 0 35.15625 15.73242188 35.15625 35.15625v629.296875c0 19.42382813-15.73242188 35.15625-35.15625 35.15625H292.2734375z" fill="#B2C5E4" p-id="1141"></path><path d="M340.61328125 709.31445313c-16.96289063 0-30.76171875-13.79882813-30.76171875-30.76171876v-404.29687499c0-16.96289063 13.79882813-30.76171875 30.76171875-30.76171876h342.7734375c16.96289063 0 30.76171875 13.79882813 30.76171875 30.76171875v404.29687501c0 16.96289063-13.79882813 30.76171875-30.76171875 30.76171874H340.61328125z" fill="#8F8D94" p-id="1142"></path><path d="M683.38671875 256.67773437c9.4921875 0 17.578125 8.0859375 17.578125 17.57812501v404.29687499c0 9.4921875-8.0859375 17.578125-17.578125 17.57812501H340.61328125c-9.4921875 0-17.578125-8.0859375-17.578125-17.578125v-404.29687501c0-9.4921875 8.0859375-17.578125 17.578125-17.57812499h342.7734375m0-26.3671875H340.61328125c-24.16992188 0-43.9453125 19.77539063-43.9453125 43.9453125v404.29687499c0 24.16992188 19.77539063 43.9453125 43.9453125 43.94531251h342.7734375c24.16992188 0 43.9453125-19.77539063 43.9453125-43.9453125v-404.29687501c0-24.16992188-19.77539063-43.9453125-43.9453125-43.94531249zM599.890625 207.72265625H476.84375c-4.83398438 0-8.7890625-3.95507813-8.7890625-8.7890625s3.95507813-8.7890625 8.7890625-8.7890625h123.046875c4.83398438 0 8.7890625 3.95507813 8.7890625 8.7890625s-3.95507813 8.7890625-8.7890625 8.7890625z m-158.203125-8.7890625c0-4.83398438-3.95507813-8.7890625-8.7890625-8.7890625h-8.7890625c-4.83398438 0-8.7890625 3.95507813-8.7890625 8.7890625s3.95507813 8.7890625 8.7890625 8.7890625h8.7890625c4.83398438 0 8.7890625-3.95507813 8.7890625-8.7890625z" fill="#3A3644" p-id="1143"></path><path d="M504.96875 818.29882813c-19.42382813 0-35.15625-15.73242188-35.15625-35.15625001s15.73242188-35.15625 35.15625-35.15625 35.15625 15.73242188 35.15625 35.15625-15.73242188 35.15625-35.15625 35.15625z" fill="#F46070" p-id="1144"></path><path d="M504.96875 761.16992188c12.12890625 0 21.97265625 9.84375 21.97265625 21.97265624s-9.84375 21.97265625-21.97265625 21.97265625-21.97265625-9.84375-21.97265625-21.97265625 9.84375-21.97265625 21.97265625-21.97265625m0-26.3671875c-26.71875 0-48.33984375 21.62109375-48.33984375 48.33984375s21.62109375 48.33984375 48.33984375 48.33984375 48.33984375-21.62109375 48.33984375-48.33984375-21.62109375-48.33984375-48.33984375-48.33984375z" fill="#3A3644" p-id="1145"></path><path d="M424.19726562 256.67773437h50.71289063l153.984375 267.18750001c4.83398438 8.34960938 1.93359375 19.16015625-6.41601563 23.99414062l-7.64648437 4.39453125c-8.34960938 4.83398438-19.16015625 1.93359375-23.99414063-6.41601563l-166.64062499-289.16015624z m41.92382813 245.47851563c4.83398438 8.34960938 15.64453125 11.25 23.99414063 6.41601563l7.64648437-4.39453126c8.34960938-4.83398438 11.25-15.64453125 6.41601563-23.99414062L375.41796875 256.67773437h-35.15625c-6.41601563 0-10.8984375 3.8671875-12.74414063 5.80078126l138.60351563 239.67773437z" fill="#BBBBBC" p-id="1146"></path></svg>