<?xml version="1.0" encoding="utf-8"?>
<!-- Generator: Adobe Illustrator 19.0.0, SVG Export Plug-In . SVG Version: 6.00 Build 0)  -->
<svg version="1.1" id="Layer_1" xmlns="http://www.w3.org/2000/svg" xmlns:xlink="http://www.w3.org/1999/xlink" x="0px" y="0px"
	 viewBox="0 0 500 500" style="enable-background:new 0 0 500 500;" xml:space="preserve">
<style type="text/css">
	.st0{fill-rule:evenodd;clip-rule:evenodd;fill:#FFCC80;}
	.st1{fill-rule:evenodd;clip-rule:evenodd;fill:#FFB74D;}
	.st2{fill-rule:evenodd;clip-rule:evenodd;fill:#FFFFFF;}
	.st3{opacity:0.2;fill-rule:evenodd;clip-rule:evenodd;fill:#FF9800;}
</style>
<g>
	<path class="st0" d="M407,452.2h-87.2c-29.2,0-52.9-23.7-52.9-52.9V106.1c0-29.2,23.7-52.9,52.9-52.9H407c25,0,45.4,20.3,45.4,45.4
		v308.4C452.3,431.9,432,452.2,407,452.2z"/>
	<path class="st1" d="M239.2,449.6H94.1c-25,0-45.4-20.3-45.4-45.4V95.9c0-25,20.3-45.4,45.4-45.4h145.1V449.6z"/>
	<path class="st1" d="M383.5,478.4l-144.3-27.6V51.6l146.2-29.9c9.9-2,19,6.5,19,17.8v419C404.5,471,394.5,480.5,383.5,478.4z"/>
	<g>
		<path class="st2" d="M221.2,286c-10,25.4-20.1,39.9-30.3,43.6c-9.8,3.9-19.2,4.3-28.3,1.4c-5.7-2.5-9.6-6.2-11.9-11.2
			c-2-5.9-1.2-10.7,2.4-14.3c11.8-11.3,24.5-25.9,38.1-43.6c8.6-11.8,16.8-26.3,24.5-43.6c-8.4,0.5-16.8,1.5-25.2,3.1
			c-19.7,3.4-33.4,9.3-40.8,17.7c-5,5.7-8.5,7.7-10.6,6.1c-2.5-1.8-1.9-6.8,1.7-15c9.3-22.2,25.9-37.6,49.7-46
			c8.9-2.9,19.4-4.5,31.7-4.8c17.7-0.5,36.1,0.5,55.1,2.7c17.5,2.3,31,2.6,40.5,1c10.7,0.7,18.8-2.2,24.5-8.5
			c3.4-3.9,6.1-5.3,8.2-4.4c2.5,1.6,2.9,6.1,1.4,13.6c-3.4,12.5-10.3,21.9-20.8,28.3c-6.6,4.5-14.6,7.3-24.2,8.2
			c-3.6,0.5-8.2,0.7-13.6,0.7c-12.9,33.8-20.9,58.9-23.8,75.2c-0.9,4.3-0.6,7.6,1,9.9c1.6,2.7,3.2,4.1,4.8,4.1
			c4.3-0.2,10-2.7,17-7.5c8.2-5.2,14.7-11.2,19.7-18c3.9-4.1,6.6-5.3,8.2-3.7c2.3,2.5,1,7.5-3.7,15c-7.9,12.5-16.8,22.5-26.5,30
			c-8.6,6.4-17.8,9.5-27.6,9.5c-10.9-0.2-18.8-3.5-23.8-9.9c-5.9-7.5-3.6-22.5,6.8-44.9c7-15.7,14.4-35.7,22.1-60.2
			c-6.8-0.7-14.3-1.4-22.5-2c-0.9-0.2-1.7-0.2-2.4,0C235.1,245.1,228,267.6,221.2,286L221.2,286z"/>
	</g>
	<path class="st3" d="M383.5,478l-144.3-27.6V51.3l146.2-29.9c9.9-2,19,6.5,19,17.8v419C404.5,470.6,394.5,480.1,383.5,478z"/>
</g>
</svg>
