<?xml version="1.0" encoding="utf-8"?>
<!-- Generator: Adobe Illustrator 19.0.0, SVG Export Plug-In . SVG Version: 6.00 Build 0)  -->
<svg version="1.1" id="Layer_1" xmlns="http://www.w3.org/2000/svg" xmlns:xlink="http://www.w3.org/1999/xlink" x="0px" y="0px"
	 viewBox="0 0 500 500" style="enable-background:new 0 0 500 500;" xml:space="preserve">
<style type="text/css">
	.st0{fill:#34A853;}
</style>
<path class="st0" d="M250.3,50c27.6,0,53.6,5.2,77.8,15.7c24.3,10.5,45.4,24.7,63.5,42.8s32.3,39.2,42.8,63.5
	c10.5,24.3,15.7,50.2,15.7,77.8c0,27.6-5.2,53.6-15.7,77.8c-10.5,24.3-24.7,45.4-42.8,63.5c-18.1,18.1-39.2,32.3-63.5,42.8
	c-24.3,10.5-50.2,15.7-77.8,15.7c-27.6,0-53.6-5.2-77.8-15.7c-24.3-10.5-45.5-24.7-63.7-42.8c-18.2-18.1-32.5-39.2-43-63.5
	S50,277.4,50,249.8s5.2-53.6,15.7-77.8s24.8-45.4,43-63.5s39.4-32.3,63.7-42.8S222.6,50,250.3,50z M249.8,363.6
	c15.8,0,30.6-3,44.6-9.1c14-6.1,26.2-14.3,36.6-24.6c10.5-10.3,18.7-22.5,24.6-36.4c5.9-14,8.9-28.8,8.9-44.6
	c0-15.8-3-30.6-8.9-44.6c-5.9-14-14.1-26.1-24.6-36.4c-10.5-10.3-22.7-18.5-36.6-24.6c-14-6.1-28.8-9.1-44.6-9.1
	c-15.8,0-30.6,3-44.6,9.1s-26.1,14.3-36.4,24.6s-18.5,22.5-24.6,36.4c-6.1,14-9.1,28.8-9.1,44.6c0,15.8,3,30.6,9.1,44.6
	c6.1,14,14.3,26.1,24.6,36.4c10.3,10.3,22.5,18.5,36.4,24.6C219.2,360.6,234,363.6,249.8,363.6z"/>
</svg>
