<?xml version="1.0" standalone="no"?><!DOCTYPE svg PUBLIC "-//W3C//DTD SVG 1.1//EN" "http://www.w3.org/Graphics/SVG/1.1/DTD/svg11.dtd"><svg t="1520266672798" class="icon" style="" viewBox="0 0 1024 1024" version="1.1" xmlns="http://www.w3.org/2000/svg" p-id="1438" xmlns:xlink="http://www.w3.org/1999/xlink" width="1024" height="1024"><defs><style type="text/css"></style></defs><path d="M602 510.49999971c9 0 15.00000029-6.00000029 15.00000029-15.00000029l0-27c0-9-6.00000029-15.00000029-15.00000029-15.0000003s-15.00000029 6.00000029-15.00000029 15.0000003l0 27C586.99999971 503 593 510.49999971 602 510.49999971z" p-id="1439"></path><path d="M422 510.49999971c9 0 15.00000029-6.00000029 15.00000029-15.00000029l0-27c0-9-6.00000029-15.00000029-15.00000029-15.0000003s-15.00000029 6.00000029-15.00000029 15.0000003l0 27C406.99999971 503 413 510.49999971 422 510.49999971z" p-id="1440"></path><path d="M707.00000029 459.50000029l0-45c0-25.49999971-19.50000029-45-45-45l-88.4999997 0 53.99999999-65.9999997c6.00000029-6.00000029 4.5-16.49999971-1.50000029-20.99999971-6.00000029-6.00000029-16.49999971-4.5-20.99999971 1.50000029l-70.4999997 83.99999971-46.5000003 0-70.4999997-83.99999971c-6.00000029-6.00000029-15.00000029-7.49999971-20.99999971-1.50000029s-7.49999971 15.00000029-1.50000029 20.99999971l54 65.9999997L361.99999971 369.50000029c-25.49999971 0-45 19.50000029-45 45l0 45c-25.49999971 0-45 19.50000029-45 45l0 60.00000029c0 25.49999971 19.50000029 45 45 45l0 29.99999971c0 25.49999971 19.50000029 45 45 45l299.99999971 0c25.49999971 0 45-19.50000029 45-45l0-29.99999971c25.49999971 0 45-19.50000029 45-45l0-60.00000029C752.00000029 478.99999971 732.5 459.50000029 707.00000029 459.50000029zM302.00000029 564.49999971l0-60.00000029c0-9 6.00000029-15.00000029 15.0000003-15.0000003l-1e-8 90C307.99999971 579.5 302.00000029 573.49999971 302.00000029 564.49999971zM676.99999971 639.50000029c0 9-6.00000029 15.00000029-15.0000003 15.0000003L361.99999971 654.49999971c-9 0-15.00000029-6.00000029-15.0000003-15.0000003l1e-8-224.99999999c0-9 6.00000029-15.00000029 15.00000029-15.0000003l299.99999971 0c9 0 15.00000029 6.00000029 15.00000029 15.00000029L676.99999971 639.50000029zM721.99999971 564.49999971c0 9-6.00000029 15.00000029-15.0000003 15.00000029l1e-8-90c9 0 15.00000029 6.00000029 15.00000029 15.00000029L721.99999971 564.49999971z" p-id="1441"></path><path d="M617.00000029 564.49999971L406.99999971 564.49999971c-9 0-15.00000029 6.00000029-15.0000003 15.00000029s6.00000029 15.00000029 15.0000003 15.00000029l209.99999971 0c9 0 15.00000029-6.00000029 15.00000029-15.00000029S626.00000029 564.49999971 617.00000029 564.49999971z" p-id="1442"></path><path d="M512 129.5c-207 0-375.00000029 168.00000029-375.00000029 375.00000029s168.00000029 375.00000029 375.00000029 375.00000029 375.00000029-168.00000029 375.00000029-375.00000029S719 129.5 512 129.5zM512 849.5c-190.50000029 0-344.99999971-154.50000029-344.99999971-344.99999971 0-190.50000029 154.50000029-344.99999971 344.99999971-344.99999971 190.50000029 0 344.99999971 154.50000029 344.99999971 344.99999971C856.99999971 694.99999971 702.50000029 849.5 512 849.5z" p-id="1443"></path></svg>