<?xml version="1.0" encoding="utf-8"?>
<!-- Generator: Adobe Illustrator 19.0.0, SVG Export Plug-In . SVG Version: 6.00 Build 0)  -->
<svg version="1.1" id="图层_1" xmlns="http://www.w3.org/2000/svg" xmlns:xlink="http://www.w3.org/1999/xlink" x="0px" y="0px"
	 viewBox="214 -92.1 1024 1024" style="enable-background:new 214 -92.1 1024 1024;" xml:space="preserve">
<style type="text/css">
	.st0{fill:#E0995E;}
	.st1{fill:#231F20;}
	.st2{fill:#4F5D73;}
	.st3{fill:#FFFFFF;}
	.st4{fill:#E0E0D1;}
</style>
<g>
	<path class="st0" d="M278.2,423.4c0,247,200.2,447.3,447.2,447.4c247,0,447.3-200.2,447.4-447.2c0-0.1,0-0.1,0-0.2
		c0-247-200.2-447.3-447.2-447.4S278.3,176.2,278.2,423.3C278.2,423.3,278.2,423.4,278.2,423.4z"/>
	<path class="st1" d="M893.2,647.1c0,30.9-25,55.9-55.9,55.9H613.7c-30.9,0-55.9-25-55.9-55.9V199.8c0-30.9,25-55.9,55.9-55.9h223.6
		c30.9,0,55.9,25,55.9,55.9V647.1L893.2,647.1z"/>
	<path class="st2" d="M613.7,654.1c-19.3,0-34.9-15.7-34.9-34.9V171.8c0-19.3,15.7-34.9,34.9-34.9h223.6c19.3,0,34.9,15.7,34.9,34.9
		v447.3c0,19.3-15.7,34.9-34.9,34.9L613.7,654.1L613.7,654.1z"/>
	<path class="st3" d="M837.3,157.9c7.7,0,14,6.3,14,14v447.3c0,7.7-6.3,14-14,14H613.7c-7.7,0-14-6.3-14-14V171.8
		c0-7.7,6.3-14,14-14L837.3,157.9 M837.3,115.9H613.7c-30.9,0-55.9,25-55.9,55.9v447.3c0,30.9,25,55.9,55.9,55.9h223.6
		c30.9,0,55.9-25,55.9-55.9V171.8C893.2,141,868.2,115.9,837.3,115.9L837.3,115.9z"/>
	<path class="st3" d="M645.1,136.9l220.2,532.8V136.9H645.1z"/>
	<path class="st3" d="M837.3,675H613.7l-55.9-111.8h335.5L837.3,675z"/>
	<path class="st4" d="M697.6,619.1c0,15.4,12.5,28,27.9,28s28-12.5,28-27.9c0,0,0,0,0,0c0-15.4-12.5-28-27.9-28
		C710.1,591.1,697.6,603.7,697.6,619.1C697.6,619.1,697.6,619.1,697.6,619.1z"/>
</g>
</svg>
