<?xml version="1.0" encoding="utf-8"?>
<!-- Generator: Adobe Illustrator 19.0.0, SVG Export Plug-In . SVG Version: 6.00 Build 0)  -->
<svg version="1.1" id="Layer_1" xmlns="http://www.w3.org/2000/svg" xmlns:xlink="http://www.w3.org/1999/xlink" x="0px" y="0px"
	 viewBox="0 0 500 500" style="enable-background:new 0 0 500 500;" xml:space="preserve">
<style type="text/css">
	.st0{fill:none;stroke:#EDEDED;stroke-width:0.5;stroke-miterlimit:10;}
	.st1{fill:none;stroke:#BDBDBD;stroke-miterlimit:10;}
	.st2{fill:#EA4335;}
	.st3{fill:#FFFFFF;}
</style>
<g>
	<rect x="250" y="350" class="st0" width="25" height="25"/>
	<rect x="175" y="350" class="st0" width="25" height="25"/>
	<rect x="225" y="350" class="st0" width="25" height="25"/>
	<rect x="200" y="350" class="st0" width="25" height="25"/>
	<rect x="125" y="325" class="st0" width="25" height="25"/>
	<rect x="125" y="350" class="st0" width="25" height="25"/>
	<rect x="150" y="350" class="st0" width="25" height="25"/>
	<rect x="275" y="350" class="st0" width="25" height="25"/>
	<rect x="350" y="300" class="st0" width="25" height="25"/>
	<rect x="125" y="300" class="st0" width="25" height="25"/>
	<rect x="350" y="325" class="st0" width="25" height="25"/>
	<rect x="350" y="275" class="st0" width="25" height="25"/>
	<rect x="300" y="350" class="st0" width="25" height="25"/>
	<rect x="350" y="350" class="st0" width="25" height="25"/>
	<rect x="350" y="250" class="st0" width="25" height="25"/>
	<rect x="325" y="350" class="st0" width="25" height="25"/>
	<rect x="250" y="125" class="st0" width="25" height="25"/>
	<rect x="225" y="125" class="st0" width="25" height="25"/>
	<rect x="200" y="125" class="st0" width="25" height="25"/>
	<rect x="300" y="125" class="st0" width="25" height="25"/>
	<rect x="325" y="125" class="st0" width="25" height="25"/>
	<rect x="175" y="125" class="st0" width="25" height="25"/>
	<rect x="275" y="125" class="st0" width="25" height="25"/>
	<rect x="125" y="175" class="st0" width="25" height="25"/>
	<rect x="125" y="200" class="st0" width="25" height="25"/>
	<rect x="125" y="225" class="st0" width="25" height="25"/>
	<rect x="125" y="250" class="st0" width="25" height="25"/>
	<rect x="125" y="275" class="st0" width="25" height="25"/>
	<rect x="150" y="125" class="st0" width="25" height="25"/>
	<rect x="125" y="125" class="st0" width="25" height="25"/>
	<rect x="125" y="150" class="st0" width="25" height="25"/>
	<rect x="350" y="150" class="st0" width="25" height="25"/>
	<rect x="100" y="275" class="st0" width="25" height="25"/>
	<rect x="100" y="300" class="st0" width="25" height="25"/>
	<rect x="100" y="250" class="st0" width="25" height="25"/>
	<rect x="100" y="175" class="st0" width="25" height="25"/>
	<rect x="100" y="150" class="st0" width="25" height="25"/>
	<rect x="100" y="200" class="st0" width="25" height="25"/>
	<rect x="100" y="225" class="st0" width="25" height="25"/>
	<rect x="100" y="325" class="st0" width="25" height="25"/>
	<rect x="200" y="375" class="st0" width="25" height="25"/>
	<rect x="225" y="375" class="st0" width="25" height="25"/>
	<rect x="175" y="375" class="st0" width="25" height="25"/>
	<rect x="150" y="375" class="st0" width="25" height="25"/>
	<rect x="100" y="375" class="st0" width="25" height="25"/>
	<rect x="125" y="375" class="st0" width="25" height="25"/>
	<rect x="100" y="350" class="st0" width="25" height="25"/>
	<rect x="100" y="125" class="st0" width="25" height="25"/>
	<rect x="350" y="100" class="st0" width="25" height="25"/>
	<rect x="300" y="100" class="st0" width="25" height="25"/>
	<rect x="275" y="100" class="st0" width="25" height="25"/>
	<rect x="350" y="125" class="st0" width="25" height="25"/>
	<rect x="325" y="150" class="st0" width="25" height="25"/>
	<rect x="350" y="200" class="st0" width="25" height="25"/>
	<rect x="350" y="175" class="st0" width="25" height="25"/>
	<rect x="100" y="100" class="st0" width="25" height="25"/>
	<rect x="125" y="100" class="st0" width="25" height="25"/>
	<rect x="350" y="225" class="st0" width="25" height="25"/>
	<rect x="150" y="100" class="st0" width="25" height="25"/>
	<rect x="250" y="100" class="st0" width="25" height="25"/>
	<rect x="225" y="100" class="st0" width="25" height="25"/>
	<rect x="200" y="100" class="st0" width="25" height="25"/>
	<rect x="175" y="100" class="st0" width="25" height="25"/>
	<rect x="275" y="175" class="st0" width="25" height="25"/>
	<rect x="175" y="175" class="st0" width="25" height="25"/>
	<rect x="175" y="225" class="st0" width="25" height="25"/>
	<rect x="175" y="200" class="st0" width="25" height="25"/>
	<rect x="200" y="175" class="st0" width="25" height="25"/>
	<rect x="250" y="375" class="st0" width="25" height="25"/>
	<rect x="250" y="175" class="st0" width="25" height="25"/>
	<rect x="275" y="200" class="st0" width="25" height="25"/>
	<rect x="225" y="175" class="st0" width="25" height="25"/>
	<rect x="250" y="300" class="st0" width="25" height="25"/>
	<rect x="300" y="300" class="st0" width="25" height="25"/>
	<rect x="275" y="300" class="st0" width="25" height="25"/>
	<rect x="225" y="300" class="st0" width="25" height="25"/>
	<rect x="175" y="275" class="st0" width="25" height="25"/>
	<rect x="175" y="300" class="st0" width="25" height="25"/>
	<rect x="200" y="300" class="st0" width="25" height="25"/>
	<rect x="175" y="250" class="st0" width="25" height="25"/>
	<rect x="200" y="200" class="st0" width="25" height="25"/>
	<rect x="225" y="200" class="st0" width="25" height="25"/>
	<rect x="250" y="225" class="st0" width="25" height="25"/>
	<rect x="250" y="200" class="st0" width="25" height="25"/>
	<rect x="275" y="225" class="st0" width="25" height="25"/>
	<rect x="225" y="250" class="st0" width="25" height="25"/>
	<rect x="250" y="250" class="st0" width="25" height="25"/>
	<rect x="225" y="225" class="st0" width="25" height="25"/>
	<rect x="275" y="275" class="st0" width="25" height="25"/>
	<rect x="250" y="275" class="st0" width="25" height="25"/>
	<rect x="275" y="250" class="st0" width="25" height="25"/>
	<rect x="200" y="225" class="st0" width="25" height="25"/>
	<rect x="200" y="250" class="st0" width="25" height="25"/>
	<rect x="200" y="275" class="st0" width="25" height="25"/>
	<rect x="225" y="275" class="st0" width="25" height="25"/>
	<rect x="325" y="175" class="st0" width="25" height="25"/>
	<rect x="225" y="325" class="st0" width="25" height="25"/>
	<rect x="200" y="325" class="st0" width="25" height="25"/>
	<rect x="250" y="325" class="st0" width="25" height="25"/>
	<rect x="175" y="325" class="st0" width="25" height="25"/>
	<rect x="150" y="300" class="st0" width="25" height="25"/>
	<rect x="150" y="325" class="st0" width="25" height="25"/>
	<rect x="275" y="325" class="st0" width="25" height="25"/>
	<rect x="325" y="300" class="st0" width="25" height="25"/>
	<rect x="325" y="250" class="st0" width="25" height="25"/>
	<rect x="325" y="225" class="st0" width="25" height="25"/>
	<rect x="300" y="325" class="st0" width="25" height="25"/>
	<rect x="325" y="200" class="st0" width="25" height="25"/>
	<rect x="325" y="325" class="st0" width="25" height="25"/>
	<rect x="150" y="275" class="st0" width="25" height="25"/>
	<rect x="325" y="275" class="st0" width="25" height="25"/>
	<rect x="300" y="225" class="st0" width="25" height="25"/>
	<rect x="150" y="250" class="st0" width="25" height="25"/>
	<rect x="275" y="150" class="st0" width="25" height="25"/>
	<rect x="300" y="175" class="st0" width="25" height="25"/>
	<rect x="300" y="200" class="st0" width="25" height="25"/>
	<rect x="300" y="250" class="st0" width="25" height="25"/>
	<rect x="300" y="275" class="st0" width="25" height="25"/>
	<rect x="250" y="150" class="st0" width="25" height="25"/>
	<rect x="300" y="150" class="st0" width="25" height="25"/>
	<rect x="150" y="200" class="st0" width="25" height="25"/>
	<rect x="150" y="225" class="st0" width="25" height="25"/>
	<rect x="150" y="175" class="st0" width="25" height="25"/>
	<rect x="175" y="150" class="st0" width="25" height="25"/>
	<rect x="200" y="150" class="st0" width="25" height="25"/>
	<rect x="150" y="150" class="st0" width="25" height="25"/>
	<rect x="225" y="150" class="st0" width="25" height="25"/>
	<rect x="325" y="100" class="st0" width="25" height="25"/>
	<rect x="50" y="125" class="st0" width="25" height="25"/>
	<rect x="50" y="150" class="st0" width="25" height="25"/>
	<rect x="50" y="100" class="st0" width="25" height="25"/>
	<rect x="50" y="175" class="st0" width="25" height="25"/>
	<rect x="50" y="50" class="st0" width="25" height="25"/>
	<rect x="75" y="50" class="st0" width="25" height="25"/>
	<rect x="50" y="200" class="st0" width="25" height="25"/>
	<rect x="50" y="75" class="st0" width="25" height="25"/>
	<rect x="50" y="325" class="st0" width="25" height="25"/>
	<rect x="100" y="50" class="st0" width="25" height="25"/>
	<rect x="50" y="350" class="st0" width="25" height="25"/>
	<rect x="50" y="225" class="st0" width="25" height="25"/>
	<rect x="50" y="375" class="st0" width="25" height="25"/>
	<rect x="50" y="250" class="st0" width="25" height="25"/>
	<rect x="50" y="300" class="st0" width="25" height="25"/>
	<rect x="50" y="275" class="st0" width="25" height="25"/>
	<rect x="300" y="50" class="st0" width="25" height="25"/>
	<rect x="375" y="50" class="st0" width="25" height="25"/>
	<rect x="350" y="50" class="st0" width="25" height="25"/>
	<rect x="400" y="50" class="st0" width="25" height="25"/>
	<rect x="400" y="75" class="st0" width="25" height="25"/>
	<rect x="400" y="125" class="st0" width="25" height="25"/>
	<rect x="400" y="100" class="st0" width="25" height="25"/>
	<rect x="125" y="50" class="st0" width="25" height="25"/>
	<rect x="325" y="50" class="st0" width="25" height="25"/>
	<rect x="175" y="50" class="st0" width="25" height="25"/>
	<rect x="150" y="50" class="st0" width="25" height="25"/>
	<rect x="400" y="150" class="st0" width="25" height="25"/>
	<rect x="275" y="50" class="st0" width="25" height="25"/>
	<rect x="225" y="50" class="st0" width="25" height="25"/>
	<rect x="50" y="400" class="st0" width="25" height="25"/>
	<rect x="250" y="50" class="st0" width="25" height="25"/>
	<rect x="200" y="50" class="st0" width="25" height="25"/>
	<rect x="425" y="275" class="st0" width="25" height="25"/>
	<rect x="425" y="300" class="st0" width="25" height="25"/>
	<rect x="425" y="250" class="st0" width="25" height="25"/>
	<rect x="425" y="350" class="st0" width="25" height="25"/>
	<rect x="425" y="375" class="st0" width="25" height="25"/>
	<rect x="425" y="225" class="st0" width="25" height="25"/>
	<rect x="425" y="325" class="st0" width="25" height="25"/>
	<rect x="425" y="400" class="st0" width="25" height="25"/>
	<rect x="425" y="100" class="st0" width="25" height="25"/>
	<rect x="425" y="75" class="st0" width="25" height="25"/>
	<rect x="425" y="50" class="st0" width="25" height="25"/>
	<rect x="425" y="150" class="st0" width="25" height="25"/>
	<rect x="425" y="175" class="st0" width="25" height="25"/>
	<rect x="425" y="125" class="st0" width="25" height="25"/>
	<rect x="425" y="200" class="st0" width="25" height="25"/>
	<rect x="325" y="425" class="st0" width="25" height="25"/>
	<rect x="225" y="425" class="st0" width="25" height="25"/>
	<rect x="150" y="425" class="st0" width="25" height="25"/>
	<rect x="425" y="425" class="st0" width="25" height="25"/>
	<rect x="175" y="425" class="st0" width="25" height="25"/>
	<rect x="125" y="425" class="st0" width="25" height="25"/>
	<rect x="75" y="425" class="st0" width="25" height="25"/>
	<rect x="100" y="425" class="st0" width="25" height="25"/>
	<rect x="200" y="425" class="st0" width="25" height="25"/>
	<rect x="375" y="425" class="st0" width="25" height="25"/>
	<rect x="250" y="425" class="st0" width="25" height="25"/>
	<rect x="400" y="425" class="st0" width="25" height="25"/>
	<rect x="350" y="425" class="st0" width="25" height="25"/>
	<rect x="275" y="425" class="st0" width="25" height="25"/>
	<rect x="300" y="425" class="st0" width="25" height="25"/>
	<rect x="50" y="425" class="st0" width="25" height="25"/>
	<rect x="200" y="75" class="st0" width="25" height="25"/>
	<rect x="275" y="75" class="st0" width="25" height="25"/>
	<rect x="250" y="75" class="st0" width="25" height="25"/>
	<rect x="225" y="75" class="st0" width="25" height="25"/>
	<rect x="325" y="75" class="st0" width="25" height="25"/>
	<rect x="350" y="75" class="st0" width="25" height="25"/>
	<rect x="300" y="75" class="st0" width="25" height="25"/>
	<rect x="275" y="375" class="st0" width="25" height="25"/>
	<rect x="75" y="75" class="st0" width="25" height="25"/>
	<rect x="375" y="75" class="st0" width="25" height="25"/>
	<rect x="175" y="75" class="st0" width="25" height="25"/>
	<rect x="75" y="125" class="st0" width="25" height="25"/>
	<rect x="75" y="100" class="st0" width="25" height="25"/>
	<rect x="100" y="75" class="st0" width="25" height="25"/>
	<rect x="150" y="75" class="st0" width="25" height="25"/>
	<rect x="125" y="75" class="st0" width="25" height="25"/>
	<rect x="300" y="375" class="st0" width="25" height="25"/>
	<rect x="375" y="300" class="st0" width="25" height="25"/>
	<rect x="375" y="325" class="st0" width="25" height="25"/>
	<rect x="375" y="375" class="st0" width="25" height="25"/>
	<rect x="375" y="100" class="st0" width="25" height="25"/>
	<rect x="75" y="150" class="st0" width="25" height="25"/>
	<rect x="325" y="375" class="st0" width="25" height="25"/>
	<rect x="350" y="375" class="st0" width="25" height="25"/>
	<rect x="375" y="350" class="st0" width="25" height="25"/>
	<rect x="375" y="175" class="st0" width="25" height="25"/>
	<rect x="375" y="150" class="st0" width="25" height="25"/>
	<rect x="375" y="125" class="st0" width="25" height="25"/>
	<rect x="375" y="275" class="st0" width="25" height="25"/>
	<rect x="375" y="250" class="st0" width="25" height="25"/>
	<rect x="375" y="200" class="st0" width="25" height="25"/>
	<rect x="375" y="225" class="st0" width="25" height="25"/>
	<rect x="400" y="200" class="st0" width="25" height="25"/>
	<rect x="75" y="175" class="st0" width="25" height="25"/>
	<rect x="350" y="400" class="st0" width="25" height="25"/>
	<rect x="250" y="400" class="st0" width="25" height="25"/>
	<rect x="400" y="375" class="st0" width="25" height="25"/>
	<rect x="275" y="400" class="st0" width="25" height="25"/>
	<rect x="300" y="400" class="st0" width="25" height="25"/>
	<rect x="325" y="400" class="st0" width="25" height="25"/>
	<rect x="400" y="400" class="st0" width="25" height="25"/>
	<rect x="400" y="225" class="st0" width="25" height="25"/>
	<rect x="400" y="175" class="st0" width="25" height="25"/>
	<rect x="400" y="250" class="st0" width="25" height="25"/>
	<rect x="400" y="350" class="st0" width="25" height="25"/>
	<rect x="400" y="325" class="st0" width="25" height="25"/>
	<rect x="400" y="300" class="st0" width="25" height="25"/>
	<rect x="400" y="275" class="st0" width="25" height="25"/>
	<rect x="375" y="400" class="st0" width="25" height="25"/>
	<rect x="75" y="300" class="st0" width="25" height="25"/>
	<rect x="75" y="325" class="st0" width="25" height="25"/>
	<rect x="75" y="275" class="st0" width="25" height="25"/>
	<rect x="75" y="225" class="st0" width="25" height="25"/>
	<rect x="75" y="200" class="st0" width="25" height="25"/>
	<rect x="75" y="350" class="st0" width="25" height="25"/>
	<rect x="75" y="250" class="st0" width="25" height="25"/>
	<rect x="200" y="400" class="st0" width="25" height="25"/>
	<rect x="150" y="400" class="st0" width="25" height="25"/>
	<rect x="175" y="400" class="st0" width="25" height="25"/>
	<rect x="225" y="400" class="st0" width="25" height="25"/>
	<rect x="125" y="400" class="st0" width="25" height="25"/>
	<rect x="75" y="375" class="st0" width="25" height="25"/>
	<rect x="75" y="400" class="st0" width="25" height="25"/>
	<rect x="100" y="400" class="st0" width="25" height="25"/>
</g>
<g>
	<rect x="50" y="50" class="st1" width="400" height="400"/>
	<rect x="50" y="50" class="st1" width="50" height="50"/>
	<rect x="400" y="50" class="st1" width="50" height="50"/>
	<rect x="50" y="400" class="st1" width="50" height="50"/>
	<rect x="400" y="400" class="st1" width="50" height="50"/>
	<rect x="100" y="100" class="st1" width="150" height="150"/>
	<rect x="250" y="100" class="st1" width="150" height="150"/>
	<rect x="100" y="250" class="st1" width="150" height="150"/>
	<rect x="250" y="250" class="st1" width="150" height="150"/>
	<line class="st1" x1="50" y1="50" x2="450" y2="450"/>
	<line class="st1" x1="450" y1="50" x2="50" y2="450"/>
	<circle class="st1" cx="250" cy="250" r="150"/>
	<circle class="st1" cx="250" cy="250" r="200"/>
</g>
<g>
	<path class="st2" d="M0,0h500v500H0V0z"/>
	<path class="st3" d="M344.4,356.6c0,0-31.1-48.3-62.4-48.3l-7-29.1h0.2l-1.7-6l-6.6-27.3l15.5-62.6v-31.5
		c-0.1-17.1-13.9-31-31.1-31.1c-17.1,0.1-31,13.9-31.1,31.1v31.5l15.6,62.6l-15.6,62.4c-31.3,0-62.4,48.3-62.4,48.3v27.2h187.1
		v-27.2H344.4z"/>
</g>
</svg>
