<?xml version="1.0" encoding="utf-8"?>
<!-- Generator: Adobe Illustrator 19.0.0, SVG Export Plug-In . SVG Version: 6.00 Build 0)  -->
<svg version="1.1" id="图形" xmlns="http://www.w3.org/2000/svg" xmlns:xlink="http://www.w3.org/1999/xlink" x="0px" y="0px"
	 viewBox="15.167 -16.333 1000.636 1000.678" enable-background="new 15.167 -16.333 1000.636 1000.678" xml:space="preserve">
<rect x="15.167" y="-16.333" fill-rule="evenodd" clip-rule="evenodd" fill="#EAC23F" width="1000.636" height="1000.678"/>
<path fill="#FFFFFF" d="M354.074,157.214L354.074,157.214v186.99c0,0.149,0.051,0.2-0.115,0.2H682.12
	c-0.127,0-0.115-0.012-0.115-0.2v-186.99c0-0.149-0.051-0.2,0.115-0.2H353.959C354.086,157.014,354.074,157.026,354.074,157.214
	L354.074,157.214z M307.227,157.214c0-25.983,20.909-47.047,46.732-47.047H682.12c25.81,0,46.732,21.127,46.732,47.047v186.99
	c0,25.983-20.909,47.047-46.732,47.047H353.959c-25.81,0-46.732-21.127-46.732-47.047V157.214z M190.108,648.724v164.339
	c0-0.273,0.087-0.187,0.137-0.187h233.962c0.16,0,0.137,0.022,0.137,0.187V648.724c0,0.273-0.087,0.187-0.137,0.187H190.246
	C190.086,648.911,190.108,648.888,190.108,648.724z M143.261,648.724c0-25.77,21.012-46.66,46.985-46.66h233.962
	c25.949,0,46.985,21.085,46.985,46.66v164.339c0,25.77-21.012,46.66-46.985,46.66H190.246c-25.949,0-46.985-21.085-46.985-46.66
	V648.724z M611.734,648.724v164.339c0-0.273,0.087-0.187,0.137-0.187h233.962c0.16,0,0.137,0.022,0.137,0.187V648.724
	c0,0.273-0.087,0.187-0.137,0.187H611.871C611.711,648.911,611.734,648.888,611.734,648.724z M705.429,531.793H330.65v70.271
	h-46.847V484.945h46.847v46.847l0,0h-46.847v-46.847H717.14h35.135v117.118h-46.847V531.793z M564.887,648.724
	c0-25.77,21.012-46.66,46.985-46.66h233.962c25.949,0,46.985,21.085,46.985,46.66v164.339c0,25.77-21.012,46.66-46.985,46.66
	H611.871c-25.949,0-46.985-21.085-46.985-46.66V648.724z M494.616,391.251h46.847v93.695h-46.847V391.251z"/>
</svg>
