<?xml version="1.0" standalone="no"?><!DOCTYPE svg PUBLIC "-//W3C//DTD SVG 1.1//EN" "http://www.w3.org/Graphics/SVG/1.1/DTD/svg11.dtd"><svg t="1525669236992" class="icon" style="" viewBox="0 0 1024 1024" version="1.1" xmlns="http://www.w3.org/2000/svg" p-id="8739" xmlns:xlink="http://www.w3.org/1999/xlink" width="64" height="64"><defs><style type="text/css"></style></defs><path d="M453.944 385.145h-61.951v61.459h-61.951v-61.459h-61.951v-61.459h61.951v-61.459h61.951v61.459h61.913l0.038 61.459zM600.955 538.697l270.646 275.034c14.977 22.805-6.316 40.808-15.696 51.361-88.765 83.243-208.204 134.68-340.047 134.68-273.709 0-495.529-220.155-495.529-491.708 0-271.516 221.819-491.671 495.529-491.671 146.177 0 294.246 78.743 367.883 163.083l-0.529 0.529c3.668 1.437 24.546 36.195 3.139 58.093l-285.396 300.601zM515.858 540.702l311.567-330.441c-78.781-81.239-188.915-132.448-311.567-132.448-239.481 0.038-433.579 192.659-433.579 430.251 0 237.628 194.134 430.251 433.579 430.251 109.492 0 209.149-40.619 285.359-107.071l-285.359-290.54zM910.745 625.873c51.361 0 92.926-41.301 92.926-92.207 0-50.868-41.565-92.207-92.926-92.207-51.323 0-92.887 41.339-92.887 92.207 0 50.906 41.565 92.207 92.887 92.207v0z" p-id="8740"></path></svg>