<?xml version="1.0" encoding="utf-8"?>
<!-- Generator: Adobe Illustrator 19.0.0, SVG Export Plug-In . SVG Version: 6.00 Build 0)  -->
<svg version="1.1" id="图形" xmlns="http://www.w3.org/2000/svg" xmlns:xlink="http://www.w3.org/1999/xlink" x="0px" y="0px"
	 viewBox="15.167 -16.333 1000.636 1000.678" enable-background="new 15.167 -16.333 1000.636 1000.678" xml:space="preserve">
<rect x="15.167" y="-16.333" display="none" fill-rule="evenodd" clip-rule="evenodd" fill="#03C7DF" width="1000.636" height="1000.678"/>
<image display="none" overflow="visible" width="144" height="144" xlink:href="AC89D92A.png"  transform="matrix(6.9489 0 0 6.9492 15.1667 -16.3331)">
</image>
<circle display="none" fill="none" stroke="#000000" cx="515.506" cy="484.006" r="500.339"/>
<g>
	<path fill="#EB5C56" d="M466.229,359.86c0,17.889-12.139,29.388-28.749,29.388c-15.972,0-28.11-11.5-28.11-29.388
		c0-15.972,12.139-28.749,28.11-28.749C455.369,331.111,466.229,345.805,466.229,359.86z M410.009,571.965
		c0-15.972,12.139-29.388,28.11-29.388c16.611,0,28.749,13.416,28.749,29.388c0,17.25-12.138,28.749-28.749,28.749
		C420.231,600.075,410.009,587.937,410.009,571.965z"/>
	<path fill="#EB5C56" d="M556.944,159.894c95.191,59.415,136.718,157.162,136.718,267.687c0,109.247-41.526,206.994-136.718,266.409
		l-7.027-9.583C620.192,632.019,655.33,532.355,655.33,427.58c0-105.414-35.138-205.077-105.413-258.104L556.944,159.894z"/>
</g>
</svg>
