<?xml version="1.0" encoding="utf-8"?>
<!-- Generator: Adobe Illustrator 19.0.0, SVG Export Plug-In . SVG Version: 6.00 Build 0)  -->
<svg version="1.1" id="Layer_1" xmlns="http://www.w3.org/2000/svg" xmlns:xlink="http://www.w3.org/1999/xlink" x="0px" y="0px"
	 viewBox="0 0 500 500" style="enable-background:new 0 0 500 500;" xml:space="preserve">
<style type="text/css">
	.st0{fill:#EA4335;}
	.st1{fill:#FCC6C3;}
</style>
<rect class="st0" width="500" height="500"/>
<path class="st1" d="M375.8,290.5l0.1-53.6l-4.2,0v0H257l0-26.3h15.8c9.1,0,16.5-7.4,16.5-16.5v-77.3c0-9.1-7.4-16.5-16.5-16.5
	h-49.3c-9.1,0-16.5,7.4-16.5,16.5v77.3c0,9.1,7.4,16.5,16.5,16.5h14.2l0,26.3H135.4v0l-9.1,0l-0.1,53.1h-1.8
	c-9.1,0-16.5,7.4-16.5,16.5v77.3c0,9.1,7.4,16.5,16.5,16.5h49.3c9.1,0,16.5-7.4,16.5-16.5v-77.3c0-9.1-7.4-16.5-16.5-16.5h-38.2
	l0-39.2h101.9l0,38.1h-14.5c-9.1,0-16.5,7.4-16.5,16.5v77.3c0,9.1,7.4,16.5,16.5,16.5h49.3c9.1,0,16.5-7.4,16.5-16.5v-77.3
	c0-9.1-7.4-16.5-16.5-16.5h-15.5l0-38.1h109.6l0,39.2h-44.1c-9.1,0-16.5,7.4-16.5,16.5v77.3c0,9.1,7.4,16.5,16.5,16.5h49.3
	c9.1,0,16.5-7.4,16.5-16.5v-77.3C388.2,298.8,382.9,292.3,375.8,290.5z"/>
</svg>
