<?xml version="1.0" standalone="no"?><!DOCTYPE svg PUBLIC "-//W3C//DTD SVG 1.1//EN" "http://www.w3.org/Graphics/SVG/1.1/DTD/svg11.dtd"><svg t="1525671185449" class="icon" style="" viewBox="0 0 1024 1024" version="1.1" xmlns="http://www.w3.org/2000/svg" p-id="17856" xmlns:xlink="http://www.w3.org/1999/xlink" width="64" height="64"><defs><style type="text/css"></style></defs><path d="M512.035802-0.005115C229.478088-0.005115 0.496119 228.976854 0.496119 511.539683c0 282.501453 228.981969 511.544798 511.544798 511.544798 282.496339 0 511.544798-229.043344 511.544798-511.544798C1023.5806 228.976854 794.532141-0.005115 512.035802-0.005115" fill="#FFFFFF" p-id="17857"></path><path d="M247.96236 718.508286l-24.979852-19.921482 192.749933-241.625334 183.477109 98.569143 179.155247-265.403247 26.473323 17.890975-195.322591 289.349942-185.415554-99.632985z" fill="#608FD1" p-id="17858"></path><path d="M299.415534 708.550102c0 35.377893-28.708416 63.973788-63.9431 63.973788-35.357435 0-63.9431-28.595894-63.9431-63.973788 0-35.188652 28.585665-63.912412 63.9431-63.912412 35.234684 0 63.9431 28.72376 63.9431 63.912412M483.843964 477.317696c0 35.311403-28.647041 63.973788-63.9431 63.973788-35.265371 0-63.9431-28.662384-63.9431-63.973788 0-35.188652 28.672614-63.912412 63.9431-63.912412 35.296059 0.005115 63.9431 28.72376 63.9431 63.912412M668.303082 576.449448c0 35.342091-28.616353 63.9431-63.9431 63.9431-35.234684 0-63.9431-28.595894-63.9431-63.9431 0-35.21934 28.708416-63.9431 63.9431-63.9431 35.331862 0 63.9431 28.72376 63.9431 63.9431M852.82869 301.81941c0 35.342091-28.769792 63.9431-63.9431 63.943099-35.326747 0-63.9431-28.595894-63.9431-63.943099 0-35.214225 28.616353-63.9431 63.9431-63.9431 35.168193 0 63.9431 28.72376 63.9431 63.9431" fill="#608FD1" p-id="17859"></path></svg>