<?xml version="1.0" encoding="utf-8"?>
<!-- Generator: Adobe Illustrator 19.0.0, SVG Export Plug-In . SVG Version: 6.00 Build 0)  -->
<svg version="1.1" id="Layer_1" xmlns="http://www.w3.org/2000/svg" xmlns:xlink="http://www.w3.org/1999/xlink" x="0px" y="0px"
	 viewBox="0 0 500 500" style="enable-background:new 0 0 500 500;" xml:space="preserve">
<style type="text/css">
	.st0{fill:#16D328;}
</style>
<g>
	<path class="st0" d="M249.8,50C139.2,50,49.5,139.7,49.5,250.3c0,110.5,89.7,200.2,200.3,200.2c110.5,0,200.2-89.7,200.2-200.2
		C450,139.3,360.3,50,249.8,50L249.8,50z M316.2,265.1c-8.8,1.6-16.4,0-20.4-8.4c-3.6-8,1.6-13.6,7.2-18.4c2.8-2.4,6-4,9.2-5.6
		c13.2-7.6,24.4-17.6,17.6-34.4c-6-15.6-20.4-19.6-35.6-17.6c-17.6,2.4-27.2,12.8-27.2,30.8c0,27.6,0.8,55.7-0.4,83.3
		c-1.6,31.2-34.8,58.9-66.9,57.7c-34.4-1.2-62.1-29.2-61.7-70.5c0.8-19.2,18-34.8,41.7-45.3c10-4.4,19.6-4.4,25.2,6.8
		c6.4,13.2-4.4,17.6-13.2,21.6c-17.6,7.6-26.4,20-18,38c8,16.8,24.4,20.4,41.7,14.4c14.4-4.8,20-16.4,19.6-31.6
		c-0.4-25.2-0.4-50.1,0-75.3c0.4-30,14.4-49.3,42.1-59.3c25.2-8.8,56.5-0.8,73.7,19.2C376.3,202.2,356.7,256.7,316.2,265.1
		L316.2,265.1z M316.2,265.1"/>
</g>
</svg>
