<?xml version="1.0" standalone="no"?><!DOCTYPE svg PUBLIC "-//W3C//DTD SVG 1.1//EN" "http://www.w3.org/Graphics/SVG/1.1/DTD/svg11.dtd"><svg t="1520307127022" class="icon" style="" viewBox="0 0 1024 1024" version="1.1" xmlns="http://www.w3.org/2000/svg" p-id="1519" xmlns:xlink="http://www.w3.org/1999/xlink" width="200" height="200"><defs><style type="text/css"></style></defs><path d="M884.00311033 388.04351086c-9.78845746 0-17.66711563-7.95791711-17.66711565-17.74637456 0-87.87520212-71.52513081-159.32107398-159.40033291-159.32107398-9.78845746 0-17.66711563-7.95791711-17.66711563-17.74637458 0-9.77580945 7.87865817-17.66711563 17.66711563-17.66711562 107.42597809 0 194.8138223 87.32207703 194.81382229 194.73456335C901.74948407 380.0864375 893.7924107 388.04351086 884.00311033 388.04351086L884.00311033 388.04351086zM760.09552572 388.04351086c-9.78845746 0-17.74637457-7.95791711-17.74637457-17.74637456 0-19.53812796-15.87536142-35.41348938-35.41348938-35.41348939-9.78845746 0-17.66711563-7.87865817-17.66711563-17.66711563s7.87865817-17.74637457 17.66711563-17.74637457c39.07625592 0 70.82697958 31.79035272 70.82697959 70.82697959C777.76264136 380.0864375 769.88398318 388.04351086 760.09552572 388.04351086L760.09552572 388.04351086zM760.20092279 628.67901685c0 103.96135766-135.71208133 219.77948914-330.48627375 219.77948913-151.12622378 0-307.44389712-77.54626758-307.44389712-207.26419399 0-65.12203482 38.3123367-140.57384711 107.94031622-212.41516992 66.74262314-68.85056936 142.76105145-111.66885077 198.39733073-111.66885078 22.21268939 0 40.73647412 7.06161814 53.67335916 20.40744507 12.93772797 13.385456 25.38725591 38.24572577 16.46811556 82.40719042 33.05511997-12.92423703 64.08155264-19.74892291 90.43087555-19.74892291 42.50124646 0 63.29149448 17.44367349 73.14571994 32.0272858 14.32054028 21.06596723 15.42763422 48.90434326 3.35922255 82.76301151C724.95859848 534.54574487 760.20092279 576.90280813 760.20092279 628.67901685L760.20092279 628.67901685zM653.36769968 548.20776382c-7.43093097-2.29260223-17.73288364-5.50679782-22.81893531-16.12578543-5.1906058-10.75052362-0.97471417-21.75147126 0.40809815-25.41423779 6.50849387-16.74467852 12.06841169-39.87980502 2.08180728-54.56965814-9.23533237-13.66201813-28.9446254-16.50774546-43.85876358-16.50774546-24.79450178 0-55.39934537 7.54897522-88.53372428 21.89649821-0.13153601 0.03962905-0.27656213 0.06576801-0.38196001 0.17116506-4.45282471 1.83138327-11.09285376 3.97895857-17.70674469 3.97895857-11.06671564 0-16.98245453-5.77071277-19.56426691-9.26147051-3.29345453-4.50594471-6.46886398-12.45037088-2.70070038-24.49180068 9.05067637-30.11748651 7.81289017-54.08230105-3.4646196-65.74177085-6.19230185-6.40309598-15.66456728-9.61729156-28.22033523-9.61729156-44.99115188 0-114.46145727 40.53832717-172.94346305 100.87869809C192.4788384 518.59112533 157.6842413 585.30761035 157.6842413 641.19515574c0 84.48899771 101.74801521 171.8507038 272.03040692 171.85070378 182.77239248 0 295.07278437-107.34756207 295.07278437-184.36599975C724.78743342 576.66503213 674.84260797 555.04593982 653.36769968 548.20776382L653.36769968 548.20776382z" fill="#d81e06" p-id="1520"></path></svg>