<?xml version="1.0" standalone="no"?><!DOCTYPE svg PUBLIC "-//W3C//DTD SVG 1.1//EN" "http://www.w3.org/Graphics/SVG/1.1/DTD/svg11.dtd"><svg t="1519393604563" class="icon" style="" viewBox="0 0 1024 1024" version="1.1" xmlns="http://www.w3.org/2000/svg" p-id="751" xmlns:xlink="http://www.w3.org/1999/xlink" width="1024" height="1024"><defs><style type="text/css"></style></defs><path d="M284.63333333 298.84000001c-11.28-11.28-29.46-11.28-40.74 0L61.79333333 480.76000001c-11.28 11.22-11.28 29.4 0 40.68l182.16 181.92c11.28 11.22 29.46 11.22 40.74 0 11.28-11.28 11.28-29.4 0-40.68L122.81333333 501.10000001l161.82-161.64C295.91333333 328.24000001 295.91333333 310.06000001 284.63333333 298.84000001zM948.05333333 480.76000001l-182.16-181.92c-11.28-11.28-29.52-11.28-40.74 0-11.28 11.22-11.28 29.4 0 40.62l161.82 161.64-161.82 161.58c-11.28 11.28-11.28 29.4 0 40.68 11.22 11.22 29.46 11.22 40.74 0l182.16-181.92C959.33333333 510.22000001 959.33333333 491.98000001 948.05333333 480.76000001zM699.89333333 116.32000001c-14.34-8.4-32.7-3.42-40.98 11.1l-360 718.92c-8.34 14.46-3.42 33 10.98 41.28 14.34 8.4 32.7 3.42 41.04-11.1l359.94-718.92C719.21333333 143.20000001 714.29333333 124.66000001 699.89333333 116.32000001z" fill="#5ab402" p-id="752"></path></svg>