<?xml version="1.0" encoding="utf-8"?>
<!-- Generator: Adobe Illustrator 19.0.0, SVG Export Plug-In . SVG Version: 6.00 Build 0)  -->
<svg version="1.1" id="图层_1" xmlns="http://www.w3.org/2000/svg" xmlns:xlink="http://www.w3.org/1999/xlink" x="0px" y="0px"
	 viewBox="0 0 425.7 115.5" style="enable-background:new 0 0 425.7 115.5;" xml:space="preserve">
<style type="text/css">
	.st0{fill:#3385FF;}
	.st1{fill:#FF3425;}
	.st2{fill:#FFBB00;}
	.st3{fill:#27B14C;}
</style>
<g>
	<path class="st0" d="M49.7,61.8v50.9H36.4V61.8L1.7,3.2h15.5l25.5,44.5h0.6L68.2,3.2h15.5L49.7,61.8z"/>
	<path class="st1" d="M144.7,112.8H132v-10.4h-0.6c-2,3.7-5.1,6.7-9.3,9.2c-4.2,2.4-8.5,3.7-13,3.7c-8.6,0-15.3-2.6-19.9-7.9
		c-4.7-5.3-7-12.7-7-22.4V37.8h13.2V84c0.3,12.2,6.1,18.4,17.4,18.4c5.3,0,9.7-2.3,13.2-6.8c3.5-4.5,5.3-10,5.3-16.3V37.8h13.2
		V112.8z"/>
	<path class="st2" d="M160.8,37.8h12.7v10.4h0.6c2-3.7,5.1-6.7,9.3-9.2c4.2-2.4,8.5-3.7,13-3.7c8.6,0,15.3,2.6,19.9,7.9
		c4.7,5.3,7,12.7,7,22.4v47.1H210V66.5c-0.3-12.2-6.1-18.4-17.4-18.4c-5.3,0-9.7,2.3-13.2,6.8c-3.6,4.5-5.3,10-5.3,16.3v41.5h-13.2
		V37.8z"/>
	<path class="st0" d="M292.1,91.9c0,6.5-2.7,12-8.1,16.5c-5.4,4.5-12.1,6.7-20.3,6.7c-7.1,0-13.3-2-18.7-5.9
		c-5.4-3.9-9.2-9.1-11.5-15.5l11.8-5.4c1.7,4.5,4.2,8,7.6,10.5c3.3,2.5,6.9,3.7,10.9,3.7c4.2,0,7.7-1,10.6-2.9
		c2.8-1.9,4.2-4.2,4.2-6.9c0-4.8-3.5-8.3-10.4-10.6l-12.1-3.2c-13.7-3.7-20.6-10.7-20.6-21.1c0-6.8,2.6-12.3,7.8-16.4
		c5.2-4.1,11.9-6.2,20.1-6.2c6.2,0,11.9,1.6,16.9,4.7c5,3.2,8.6,7.4,10.6,12.7L279.1,58c-1.3-3.2-3.5-5.6-6.5-7.4
		c-3-1.8-6.4-2.7-10.1-2.7c-3.5,0-6.5,0.9-9.3,2.8s-4.1,4.1-4.1,6.7c0,4.3,3.8,7.3,11.4,9.2l10.7,2.9
		C285.1,73.1,292.1,80.6,292.1,91.9z"/>
	<path class="st3" d="M336,115.2c-10.4,0-18.9-3.8-25.6-11.3c-6.7-7.5-10.1-17.1-10.1-28.6c0-11.4,3.3-20.9,9.8-28.5
		c6.5-7.6,14.9-11.4,25-11.4c10.5,0,18.8,3.6,25,10.8s9.3,17.3,9.3,30.2l-0.1,1.5h-55.4c0.2,7.3,2.5,13.3,6.9,17.7
		c4.4,4.5,9.7,6.7,15.8,6.7c8.4,0,15.1-4.5,19.9-13.5l11.8,6.1c-3.2,6.3-7.6,11.3-13.2,14.8S343.1,115.2,336,115.2z M314.8,66.2
		h40.5c-0.4-5.2-2.4-9.5-6-12.9c-3.6-3.4-8.4-5.1-14.5-5.1c-5,0-9.3,1.6-12.9,4.9C318.4,56.3,316,60.7,314.8,66.2z"/>
	<path class="st1" d="M394.7,112.8h-13.2v-75h12.7V50h0.6c1.3-4,4.1-7.4,8.3-10.2c4.2-2.8,8.3-4.2,12.3-4.2c3.8,0,7.1,0.6,9.8,1.8
		l-4,13.6c-1.6-0.7-4.2-1.1-7.8-1.1c-5,0-9.3,2.1-13,6.4c-3.7,4.3-5.5,9.3-5.5,15V112.8z"/>
</g>
</svg>
